<?xml version="1.0" standalone="no"?>
<!DOCTYPE svg PUBLIC "-//W3C//DTD SVG 1.1//EN" "http://www.w3.org/Graphics/SVG/1.1/DTD/svg11.dtd" >
<svg xmlns="http://www.w3.org/2000/svg" xmlns:xlink="http://www.w3.org/1999/xlink" version="1.1">
<metadata>
Created by FontForge 20170731 at Wed Jun 23 14:34:25 1999
 By Aleksey,,,
(c) 1992 Carter &#38; Cone Type Inc. (c) 1992 Type Solutions, Inc. Portions (c) 1992 Microsoft Corp. All rights reserved.
</metadata>
<defs>
<font id="Elephant-Regular" horiz-adv-x="500" >
  <font-face 
    font-family="Elephant"
    font-weight="400"
    font-stretch="normal"
    units-per-em="1000"
    panose-1="2 2 9 4 9 5 5 2 3 3"
    ascent="800"
    descent="-200"
    x-height="474"
    cap-height="729"
    bbox="-168 -306 1233 983"
    underline-thickness="90"
    underline-position="-268"
    unicode-range="U+0020-F002"
  />
<missing-glyph horiz-adv-x="800" 
d="M50 0v800h700v-800h-700zM700 50v700h-600v-700h600z" />
    <glyph glyph-name=".notdef" horiz-adv-x="800" 
d="M50 0v800h700v-800h-700zM700 50v700h-600v-700h600z" />
    <glyph glyph-name=".null" horiz-adv-x="0" 
 />
    <glyph glyph-name="nonmarkingreturn" horiz-adv-x="250" 
 />
    <glyph glyph-name="space" unicode=" " horiz-adv-x="250" 
 />
    <glyph glyph-name="exclam" unicode="!" horiz-adv-x="323" 
d="M274 587q0 -60 -54 -158.5t-54 -216.5h-15q0 109 -53.5 227t-53.5 150q0 55 37.5 102.5t78.5 47.5q39 0 76.5 -46.5t37.5 -105.5zM257 89q0 -40 -28.5 -67.5t-69.5 -27.5q-40 0 -68.5 27.5t-28.5 67.5q0 39 28.5 66.5t68.5 27.5q41 0 69.5 -26.5t28.5 -67.5z" />
    <glyph glyph-name="quotedbl" unicode="&#x22;" horiz-adv-x="375" 
d="M171 659q0 -27 -28.5 -109.5t-35.5 -145.5h-16q-7 59 -35.5 145t-28.5 110q0 32 27 57.5t45 25.5q16 0 44 -24.5t28 -58.5zM347 659q0 -27 -28.5 -109.5t-35.5 -145.5h-16q-7 59 -35.5 145t-28.5 110q0 32 27 57.5t45 25.5q16 0 44 -24.5t28 -58.5z" />
    <glyph glyph-name="numbersign" unicode="#" horiz-adv-x="769" 
d="M409 724l24 -6l-67 -191h161l69 197l24 -6l-67 -191h165l-45 -119h-162l-39 -107h167l-45 -118h-164l-70 -197l-24 6l68 191h-161l-70 -197l-24 6l68 191h-166l45 118h163l38 107h-167l44 119h166zM321 408l-40 -107h167l40 107h-167z" />
    <glyph glyph-name="dollar" unicode="$" horiz-adv-x="710" 
d="M364 11q49 8 82 33t33 71q0 43 -22.5 70t-92.5 56v-230zM370 740h16q108 0 173 -40t65 -116q0 -40 -28.5 -68.5t-69.5 -28.5t-71 24.5t-30 68.5q0 39 22.5 64.5t44 28t21.5 12.5q0 12 -37.5 24t-75.5 12l-30 -1v-234q67 -27 134 -53q68 -32 107 -80.5t39 -113.5
q0 -123 -84.5 -179.5t-201.5 -68.5v-96h-21v94l-41 -1q-88 0 -170.5 41.5t-82.5 119.5q0 42 30.5 73.5t73.5 31.5q46 0 76 -27t30 -73q0 -39 -24 -61t-53 -26q-16 0 -16 -12q0 -13 49.5 -30.5t89.5 -17.5l38 1v241q-37 15 -77 31.5t-80.5 37.5t-76 74t-35.5 117
q0 110 91.5 170.5t183.5 60.5v61h21v-61zM349 717q-42 -9 -66.5 -35t-24.5 -67q0 -43 24.5 -71t66.5 -49v222z" />
    <glyph glyph-name="percent" unicode="%" horiz-adv-x="983" 
d="M951 236q0 -100 -77 -174t-197 -74q-36 0 -68.5 14.5t-57 39t-38 58.5t-13.5 73q0 97 76.5 172.5t197.5 75.5q38 0 68 -14t54.5 -38t39.5 -57.5t15 -75.5zM347 683q0 20 -6.5 29t-24.5 9q-19 0 -35.5 -25.5t-42 -83t-52.5 -136.5t-27 -114q0 -19 6.5 -28t24.5 -9
q23 0 39 29t39.5 80t51 134.5t27.5 114.5zM716 723l15 25q5 6 11 6t10.5 -5.5t0.5 -12.5l-511 -772l-19 13l475 718q-34 -20 -63.5 -28.5t-73.5 -8.5q-30 0 -64.5 7.5t-65.5 20.5q27 -32 37.5 -66.5t10.5 -63.5q0 -101 -77 -175t-197 -74q-36 0 -68.5 14.5t-55.5 37.5
t-38 58.5t-15 71.5q0 98 75.5 174.5t198.5 76.5q25 0 44 -4.5t56 -19t81.5 -26.5t81.5 -12q53 0 87 10.5t64 34.5zM819 364q0 20 -6.5 29.5t-24.5 9.5q-16 0 -30.5 -17.5t-42.5 -81t-56 -145.5t-28 -116q0 -19 6.5 -28t24.5 -9q23 0 39 29t39.5 80t51 134.5t27.5 114.5z" />
    <glyph glyph-name="ampersand" unicode="&#x26;" horiz-adv-x="980" 
d="M504 108q-52 59 -111 146.5t-103 176.5q-19 -8 -31.5 -36t-12.5 -64q0 -106 58.5 -174t132.5 -68q30 0 44 6t23 13zM583 616q0 48 -19 76t-54 28q-21 0 -36 -14t-15 -38q0 -31 16.5 -73t41.5 -84q27 12 46.5 35.5t19.5 69.5zM677 272q7 8 25.5 30t34.5 50t20 41.5t4 21.5
q0 18 -13.5 24t-36.5 8l-47 3v16h254v-16q-11 -1 -23.5 -1.5t-44 -7.5t-63 -53.5t-54.5 -76t-44 -54.5q65 -80 108.5 -111.5t77.5 -31.5q29 0 52 21.5t28 84.5h16q0 -109 -69.5 -170.5t-170.5 -61.5q-64 0 -114.5 25t-100.5 82q-64 -64 -117 -85.5t-115 -21.5
q-112 0 -178 65t-66 157q0 88 59.5 151.5t183.5 84.5q-18 36 -26 59.5t-8 66.5q0 62 61 115t183 53q76 0 116.5 -33t40.5 -85q0 -42 -32 -74t-94 -50q36 -60 72 -114.5t81 -111.5z" />
    <glyph glyph-name="quotesingle" unicode="'" horiz-adv-x="205" 
d="M178 659q0 -26 -30.5 -109t-37.5 -146h-16q-7 60 -37.5 145t-30.5 110q0 31 29 57t47 26q17 0 46.5 -25t29.5 -58z" />
    <glyph glyph-name="parenleft" unicode="(" horiz-adv-x="468" 
d="M453 -183v-16q-171 16 -274.5 142t-103.5 322q0 200 103.5 323t274.5 141v-16q-100 -12 -143.5 -123.5t-43.5 -324.5q0 -212 43 -324t144 -124z" />
    <glyph glyph-name="parenright" unicode=")" horiz-adv-x="468" 
d="M394 265q0 -197 -103 -322.5t-275 -141.5v16q101 12 144 123.5t43 324.5q0 215 -43 325.5t-144 122.5v16q171 -18 274.5 -141t103.5 -323z" />
    <glyph glyph-name="asterisk" unicode="*" horiz-adv-x="480" 
d="M234 550q-3 38 -27.5 79t-24.5 55q0 19 23 40t36 21q14 0 36 -20.5t22 -39.5q0 -8 -25 -54t-29 -81l11 -10q34 14 66.5 52.5t52.5 38.5q22 0 44.5 -16t22.5 -29q0 -18 -16 -44t-38 -26q-7 0 -43 8t-53 8q-15 0 -33 -3l-2 -12q24 -28 76 -48t52 -52q0 -18 -6 -36t-13 -23
t-26 -5q-59 0 -68.5 67.5t-23.5 90.5h-15q-17 -28 -22.5 -93.5t-71.5 -65.5q-19 0 -25.5 5t-12.5 22.5t-6 34.5q0 32 52 54t77 50l-3 11q-9 2 -18 3t-17 1q-20 0 -51 -7.5t-41 -7.5q-25 0 -40.5 25.5t-15.5 46.5q0 11 23 27t45 16q16 0 51.5 -39.5t66.5 -53.5z" />
    <glyph glyph-name="plus" unicode="+" horiz-adv-x="833" 
d="M457 626v-257h252v-81h-252v-258h-81v258h-252v81h252v257h81z" />
    <glyph glyph-name="comma" unicode="," horiz-adv-x="272" 
d="M50 -120q53 5 93 36t40 76q0 11 -2.5 16t-7.5 5q-7 0 -23 -7t-29 -7q-33 0 -60 25t-27 61q0 41 26.5 69.5t68.5 28.5q53 0 86.5 -39.5t33.5 -94.5q0 -79 -57 -131t-140 -52z" />
    <glyph glyph-name="hyphen" unicode="-" horiz-adv-x="281" 
d="M7 320h267v-155h-267v155z" />
    <glyph glyph-name="hyphen" unicode="&#xad;" horiz-adv-x="281" 
d="M7 320h267v-155h-267v155z" />
    <glyph glyph-name="period" unicode="." horiz-adv-x="272" 
d="M36 89q0 40 29 68t70 28t70.5 -27.5t29.5 -68.5t-29 -69t-71 -28q-41 0 -70 28t-29 69z" />
    <glyph glyph-name="slash" unicode="/" horiz-adv-x="361" 
d="M-32 -101l369 871l45 -16l-369 -870z" />
    <glyph glyph-name="zero" unicode="0" horiz-adv-x="758" 
d="M722 364q0 -145 -96 -260.5t-247 -115.5q-159 0 -251 120t-92 256q0 145 99 260.5t244 115.5q150 0 246.5 -117.5t96.5 -258.5zM473 364q0 83 -3 142t-11.5 114.5t-26 78t-53.5 22.5q-33 0 -52.5 -23.5t-26.5 -71.5t-11 -120t-4 -142q0 -77 3.5 -139.5t11.5 -117.5
t25.5 -77.5t53.5 -22.5q33 0 52.5 23.5t26 71t11 123t4.5 139.5z" />
    <glyph glyph-name="one" unicode="1" horiz-adv-x="527" 
d="M391 125l2 -46q3 -33 14.5 -44.5t30.5 -14t32.5 -3t29.5 -1.5v-16h-472v16q11 0 22.5 0.5t39 4t39 16t14.5 44.5l2 46v470l-2 46q-3 31 -14.5 45.5t-34 17.5t-45.5 4.5t-33 2.5v16h375v-604z" />
    <glyph glyph-name="two" unicode="2" horiz-adv-x="731" 
d="M16 7q66 60 136.5 125t106.5 103q95 90 126 156t31 141q0 84 -34.5 133t-100.5 49q-48 0 -89.5 -25.5t-41.5 -54.5q0 -48 52 -48q38 0 61.5 -22.5t23.5 -58.5q0 -45 -31 -75t-76 -30q-56 0 -93 32.5t-37 85.5q0 62 42 112.5t94.5 73.5t93 29.5t86.5 6.5q121 0 206 -54
t85 -156q0 -64 -39.5 -114t-88.5 -75.5t-150.5 -65t-112.5 -57.5v-4q25 2 57.5 3t69.5 1h158q49 0 69 12t29.5 34t16 43t11.5 35h13l-64 -342h-610v7z" />
    <glyph glyph-name="three" unicode="3" horiz-adv-x="718" 
d="M462 412q103 0 163 -51t60 -138q0 -117 -122.5 -176t-274.5 -59q-103 0 -186 51t-83 127q0 57 39 95t96 38q60 0 97.5 -31.5t37.5 -82.5q0 -37 -14.5 -56.5t-38 -40t-28.5 -26.5t-5 -19q0 -18 28 -28.5t67 -10.5q72 0 108.5 53t36.5 141q0 78 -39.5 138.5t-107.5 60.5
q-24 0 -45 -6q-19 -7 -37 -14q-5 0 -10.5 4.5t-5.5 10.5q0 12 21.5 16t49.5 4q69 0 107 40t38 113q0 64 -26.5 108.5t-86.5 44.5q-35 0 -66.5 -13.5t-31.5 -37.5q0 -13 8 -22t31.5 -13t40.5 -23.5t17 -49.5q0 -43 -32.5 -66t-84.5 -23q-49 0 -80 29t-31 75q0 45 49 87.5
t113 60.5t129 18q128 0 205.5 -41t77.5 -130q0 -67 -53.5 -104.5t-130.5 -44.5v-8z" />
    <glyph glyph-name="four" unicode="4" horiz-adv-x="700" 
d="M325 199v193l1 110q-23 -26 -65.5 -75.5t-100.5 -111t-118 -115.5l124 -1h159zM563 199h118v-43h-118v-39q0 -18 2.5 -44.5t14 -38t31.5 -14t37 -3t29 -1.5v-16h-474v16q13 0 26.5 0.5t41 4t39 16t14.5 44.5l2 75h-338v21q77 69 161 159t178 200.5t162 196.5h74v-534z
" />
    <glyph glyph-name="five" unicode="5" horiz-adv-x="674" 
d="M77 340l87 395h9q35 -11 84.5 -22t109.5 -11q77 0 125 11q32 12 64 25q10 0 10 -19q0 -30 -22.5 -68.5t-77 -81t-168.5 -42.5q-51 0 -87 5.5t-68 20.5l-32 -141q46 45 101.5 61.5t143.5 16.5q111 0 196 -64t85 -167q0 -129 -110.5 -200t-255.5 -71q-110 0 -179.5 52.5
t-69.5 132.5q0 42 34 73t79 31q55 0 93 -29.5t38 -79.5t-32 -82t-32 -45q0 -18 21.5 -27.5t43.5 -9.5q75 0 102 61t27 152q0 97 -33.5 171t-109.5 74q-69 0 -103 -34t-43.5 -52t-14.5 -38z" />
    <glyph glyph-name="six" unicode="6" horiz-adv-x="708" 
d="M433 225q0 25 -1.5 49t-4.5 53q0 51 -17 84t-53 33q-30 0 -48 -23.5t-21.5 -44t-4.5 -59.5t-1 -79v-13q0 -49 7 -107t22 -84.5t49 -26.5q35 0 52 28t17 84q0 16 2 56t2 50zM359 -12q-81 0 -141.5 32t-102.5 85.5t-60.5 119t-18.5 139.5q0 154 99.5 265t269.5 111
q102 0 175.5 -40t73.5 -108q0 -41 -31 -66t-75 -25q-52 0 -88.5 36.5t-36.5 91.5q0 16 5.5 30.5t11.5 30.5q0 16 -10 24t-36 8q-30 0 -52.5 -22.5t-34 -74.5t-17.5 -106.5t-6 -104.5l4 -2q14 33 50.5 49.5t85.5 16.5q108 0 178 -63t70 -162q0 -116 -91.5 -190.5
t-221.5 -74.5z" />
    <glyph glyph-name="seven" unicode="7" horiz-adv-x="626" 
d="M705 729l2 -7q-45 -45 -98 -100.5t-119 -135.5t-112 -181.5t-46 -202.5q0 -17 2.5 -48t2.5 -36q0 -68 -42 -111t-101 -43q-62 0 -98 41t-36 103q0 58 41.5 121t99 119t111.5 103.5t101.5 89t82.5 74.5l-2 5q-12 0 -57 -1.5t-61 -1.5h-224q-50 0 -67.5 -10.5t-34.5 -45.5
l-12 -30l-12 3l105 363h12l-3 -26q0 -29 15.5 -36.5t57.5 -7.5h176q95 0 177.5 0.5t138.5 1.5z" />
    <glyph glyph-name="eight" unicode="8" horiz-adv-x="682" 
d="M159 328q-46 33 -69 78t-23 103q0 68 38.5 119t102.5 81.5t151 30.5q107 0 179 -52.5t72 -136.5q0 -41 -24 -70t-69 -41v-4q54 -30 91 -81t37 -114q0 -115 -90.5 -184t-221.5 -69q-54 0 -103 13t-119.5 59t-70.5 141q0 52 33.5 84.5t85.5 37.5v5zM500 445
q27 21 41.5 52.5t14.5 70.5q0 71 -51.5 111.5t-137.5 40.5q-50 0 -83 -28t-33 -73q0 -44 30 -73t59.5 -41.5t84.5 -31t75 -28.5zM174 318q-29 -16 -46 -50t-17 -84q0 -75 62 -126t158 -51q56 0 98.5 28t42.5 79q0 46 -23 75.5t-104.5 62t-170.5 66.5z" />
    <glyph glyph-name="nine" unicode="9" horiz-adv-x="706" 
d="M275 503q0 -17 2.5 -54.5t2.5 -48.5q0 -51 17 -84t53 -33q31 0 48 23t20 43t4.5 69t1.5 85q0 19 -2 49.5t-6.5 73t-19.5 69t-49 26.5q-69 0 -69 -112zM348 740q81 0 139 -31t102 -83t62.5 -117t18.5 -140q0 -158 -102 -269.5t-271 -111.5q-106 0 -157 29.5t-69 54
t-18 58.5q0 43 30.5 67t74.5 24q51 0 89 -33t38 -80q0 -21 -6 -40t-6 -29q0 -15 10 -23t35 -8q30 0 50.5 19.5t33.5 69.5t19 107t6 116l-4 2q-15 -33 -53.5 -53.5t-86.5 -20.5q-106 0 -176.5 62t-70.5 165q0 115 90.5 190t221.5 75z" />
    <glyph glyph-name="colon" unicode=":" horiz-adv-x="312" 
d="M56 89q0 40 29 68t70 28t70.5 -27.5t29.5 -68.5t-29 -69t-71 -28q-41 0 -70 28t-29 69zM56 378q0 40 29 68t70 28t70.5 -27.5t29.5 -68.5t-29 -69t-71 -28q-41 0 -70 28t-29 69z" />
    <glyph glyph-name="semicolon" unicode=";" horiz-adv-x="312" 
d="M70 -120q54 5 93.5 35t39.5 77q0 11 -2.5 16t-7.5 5q-9 0 -24 -6.5t-26 -6.5q-36 0 -62.5 23.5t-26.5 61.5q0 41 26.5 69.5t68.5 28.5q53 0 86.5 -39.5t33.5 -94.5q0 -79 -57 -131t-140 -52zM56 378q0 40 29 68t70 28t70.5 -27.5t29.5 -68.5t-29 -69t-71 -28
q-41 0 -70 28t-29 69z" />
    <glyph glyph-name="less" unicode="&#x3c;" horiz-adv-x="833" 
d="M249 332v-5l455 -184l-32 -76l-543 224v76l543 224l32 -76z" />
    <glyph glyph-name="equal" unicode="=" horiz-adv-x="833" 
d="M701 471v-81h-569v81h569zM701 269v-81h-569v81h569z" />
    <glyph glyph-name="greater" unicode="&#x3e;" horiz-adv-x="833" 
d="M704 291l-543 -226l-32 76l455 186v5l-455 185l32 76l543 -226v-76z" />
    <glyph glyph-name="question" unicode="?" horiz-adv-x="618" 
d="M275 88q0 -40 -28.5 -67.5t-69.5 -27.5q-40 0 -68.5 27.5t-28.5 67.5q0 39 28.5 66.5t68.5 27.5q41 0 69.5 -26.5t28.5 -67.5zM164 210v193h16q4 -21 10 -37t18.5 -28.5t30 -20t36.5 -7.5q44 0 71.5 42t27.5 142q0 92 -27.5 156.5t-104.5 64.5q-34 0 -59.5 -12t-25.5 -32
q0 -7 6.5 -12t22.5 -5q37 0 60.5 -22.5t23.5 -58.5q0 -40 -31 -66t-74 -26q-38 0 -66 28t-28 70q0 71 67 116t151 45q121 0 203 -58.5t82 -173.5q0 -105 -76 -165t-189 -60q-42 0 -72 15t-49 41h-4v-129h-20z" />
    <glyph glyph-name="at" unicode="@" horiz-adv-x="986" 
d="M601 313q15 43 15 64q0 14 -6.5 21t-20.5 7q-16 0 -37 -24.5t-41 -63.5t-33 -65t-16 -34l-43 -98q-14 -34 -21 -55t-7 -32q0 -8 4 -12t11 -4q25 0 58 31.5t53 75.5l44 94q11 25 22.5 51t17.5 44zM918 328q0 110 -70 191.5t-253 81.5q-177 0 -308 -136t-131 -316
q0 -162 95.5 -250t235.5 -88q82 0 159.5 25t189.5 106l8 -12q-80 -66 -173.5 -105t-193.5 -39q-178 0 -301 95t-123 271q0 208 158.5 350t376.5 142q158 0 255 -85t97 -222q0 -79 -28 -141.5t-80 -115.5t-106 -72t-96 -19q-48 0 -80.5 25t-32.5 71l-4 1q-33 -48 -65 -70
t-84 -22q-54 0 -88.5 33.5t-34.5 90.5q0 107 97.5 214t217.5 107q30 0 52 -14t22 -44q-1 -6 -1 -9h4l25 58h177q-18 -39 -45 -97t-64.5 -140.5t-45.5 -101t-8 -35.5q0 -15 7 -23t21 -8q28 0 59 16.5t73 62t64 98.5t22 126z" />
    <glyph glyph-name="A" unicode="A" horiz-adv-x="748" 
d="M341 249l-88 246l-85 -246h173zM161 228l-31 -104q-10 -36 -10 -57q0 -23 11.5 -32t29.5 -12.5t35 -4.5t33 -2v-16h-282v16l59 4q33 4 50 16.5t25.5 31.5t19 45t17.5 47l191 572h110l211 -572l31 -78q14 -31 28.5 -44.5t40.5 -17.5l41 -4v-16h-475v16q12 0 21.5 0.5
t34.5 4.5t36 10.5t11 27.5q0 22 -14 63l-36 106h-188z" />
    <glyph glyph-name="B" unicode="B" horiz-adv-x="881" 
d="M478 396q42 8 56 49t14 104q0 51 -18.5 98.5t-46 54.5t-51 8t-41.5 2v-323q19 0 38.5 0.5t48.5 6.5zM514 -1l-489 1v16h31q21 3 41 5.5t31.5 15t14.5 44.5l2 46v474l-2 46q-3 32 -15 45t-33.5 16t-39 3.5t-31.5 1.5v16l462 1q94 0 147 -7t88.5 -31t55.5 -59.5t20 -84.5
q0 -73 -42.5 -105t-85 -42.5t-104.5 -10.5v-8q73 0 109.5 -5.5t73 -20.5t64.5 -56.5t28 -106.5q0 -63 -29 -105t-74 -62.5t-110 -23.5t-113 -3zM515 28q33 8 47.5 63t14.5 115q0 54 -22.5 105.5t-54.5 55.5t-49.5 4.5t-26.5 0.5h-33v-354h12q36 0 60 1.5t52 8.5z" />
    <glyph glyph-name="C" unicode="C" horiz-adv-x="793" 
d="M443 -12q-172 0 -282.5 106.5t-110.5 269.5q0 167 109.5 271.5t282.5 104.5q74 0 128 -25l106 -60q30 0 40 20.5t14 58.5h20v-316h-17q-44 122 -62.5 165t-61.5 83t-110 40q-87 0 -129 -98t-42 -229q0 -141 50.5 -244.5t148.5 -103.5q91 0 146 66t73 172l17 -3
q-14 -120 -91 -199t-229 -79z" />
    <glyph glyph-name="D" unicode="D" horiz-adv-x="941" 
d="M27 0v16q13 0 30 1.5t38.5 4t33 15t14.5 44.5l2 46v474l-2 46q-3 32 -15 45t-33.5 16t-39 3.5t-31.5 1.5v16l373 2q117 0 220.5 -22t191 -112t87.5 -254q0 -157 -78.5 -231.5t-166 -93t-203.5 -18.5h-421zM497 700q-14 6 -43.5 8t-50.5 2h-12v-691q7 0 13 -0.5t15 -0.5
q38 0 69.5 5t59 25.5t53 109t25.5 181.5q0 130 -31.5 232.5t-97.5 128.5z" />
    <glyph glyph-name="E" unicode="E" horiz-adv-x="868" 
d="M391 20q42 1 86 1.5t93 7t121 99t106 190.5h16v-318h-786v16q13 0 30 1.5t38.5 4t33 15t14.5 44.5l2 46v474l-2 46q-3 32 -15 45t-33.5 16t-39 3.5t-31.5 1.5v16h769v-296h-16q-51 112 -124 188.5t-122.5 81.5t-83.5 6t-45 1h-9l-2 -328l42 2q58 6 87.5 54.5t29.5 114.5
h19v-364h-19q0 67 -29.5 117t-87.5 56l-42 2v-344z" />
    <glyph glyph-name="F" unicode="F" horiz-adv-x="784" 
d="M773 729v-324h-16q-42 91 -78 153t-88.5 105.5t-123.5 43.5l-76 3v-321l46 2q58 6 87.5 55t29.5 114h19v-364h-19q0 67 -29 117t-88 56l-46 2v-241l2 -46q3 -32 16 -46t34.5 -17t39 -3.5t31.5 -1.5v-16h-487v16q13 0 30 1.5t38.5 4t33 15t14.5 44.5l2 46v474l-2 46
q-3 32 -15 45t-33.5 16t-39 3.5t-31.5 1.5v16h749z" />
    <glyph glyph-name="G" unicode="G" horiz-adv-x="909" 
d="M327 379q0 -158 31 -262.5t108 -104.5q38 0 58 15t25 33.5t6 43.5t1 62v39q0 43 -3 58q-3 33 -13.5 45t-32.5 15t-40 3.5t-33 1.5v16h468v-16l-46 -3q-31 -3 -41.5 -14.5t-13.5 -45.5l-2 -47v-131l2 -90h-15q-13 29 -45.5 53t-71.5 24q-35 0 -100 -43t-172 -43
q-148 0 -249 107t-101 269q0 170 111 273t283 103q94 0 178 -42t94 -44q29 0 39 21.5t19 61.5h20v-323h-17q-30 124 -99.5 210t-177.5 86q-86 0 -128 -99.5t-42 -231.5z" />
    <glyph glyph-name="H" unicode="H" horiz-adv-x="1005" 
d="M614 362h-223v-237l2 -46q0 -33 11.5 -44.5t43.5 -15.5l36 -3v-16h-446v16l50 4q29 4 40.5 17t14.5 44l2 46v475l-2 46q-3 32 -13.5 44.5t-41.5 16.5l-52 4v16h448v-16l-36 -3q-32 -3 -43.5 -15.5t-11.5 -44.5l-2 -46v-220h223v220l-2 46q-3 33 -13.5 44.5t-41.5 15.5
l-36 3v16h448v-16l-52 -4q-29 -4 -40.5 -17t-14.5 -44l-2 -46v-475l2 -46q3 -32 13.5 -44.5t41.5 -16.5l50 -4v-16h-446v16l36 3q32 4 42 15t13 45l2 46v237z" />
    <glyph glyph-name="I" unicode="I" horiz-adv-x="536" 
d="M502 0h-471v16q7 0 19 0.5t39.5 4t39 16.5t14.5 44l2 46v475l-2 46q-3 32 -13.5 44.5t-41.5 16.5l-54 4v16h468v-16l-54 -3q-31 -3 -41.5 -14.5t-13.5 -45.5l-2 -46v-479l2 -46q3 -33 14.5 -44.5t42.5 -15.5l52 -3v-16z" />
    <glyph glyph-name="J" unicode="J" horiz-adv-x="656" 
d="M292 115l2 46v443l-2 46q-3 33 -13.5 44.5t-30 14t-33 3t-23.5 1.5v16h452v-16l-47 -4q-30 -4 -41 -16t-14 -45l-2 -46v-347q0 -110 -105.5 -188.5t-233.5 -78.5q-94 0 -153.5 44t-59.5 123q0 50 37 86t88 36q60 0 95 -34t35 -89q0 -48 -23 -77q-26 -27 -51 -54
q0 -10 14 -13.5t35 -3.5q43 0 58.5 33.5t15.5 75.5z" />
    <glyph glyph-name="K" unicode="K" horiz-adv-x="932" 
d="M418 340l-27 -32v-183l2 -46q3 -33 13.5 -44.5t41.5 -15.5l36 -3v-16h-446v16l50 4q29 4 40.5 17t14.5 44l2 46v475l-2 46q-3 32 -13.5 44.5t-41.5 16.5l-52 4v16h451v-16l-39 -3q-31 -3 -41.5 -14.5t-13.5 -45.5l-2 -46v-270q29 34 81 94t106.5 123.5t73 89t18.5 41.5
q0 14 -10.5 20t-28.5 8l-47 3v16h254v-16q-13 -1 -27 -1.5t-34 -4.5t-41.5 -16t-50.5 -44l-100 -115l273 -422q38 -57 55 -71t37 -17.5t30.5 -4t18.5 -1.5v-16h-481v16l42 2q21 2 31 6t10 19q0 9 -5 22.5t-23 41t-40.5 62t-60 90t-54.5 81.5z" />
    <glyph glyph-name="L" unicode="L" horiz-adv-x="819" 
d="M477 23q60 0 119.5 55t105 127t82.5 152h16v-357h-782v16q8 0 22.5 0.5t44 4t42.5 16.5t16 44l2 46v475l-2 46q-3 32 -13.5 44.5t-32.5 15.5t-38 3.5t-29 1.5v16h484v-16l-66 -3q-30 -3 -41 -15t-14 -45l-2 -46v-584z" />
    <glyph glyph-name="M" unicode="M" horiz-adv-x="1081" 
d="M162 605v-467l2 -48q3 -32 16.5 -48.5t44.5 -20.5l70 -5v-16h-288v16q15 1 32.5 1.5t42.5 4t39.5 20.5t17.5 48l2 48v464l-2 46q-7 24 -21.5 40t-35 19t-40.5 4t-30 2v16h370l168 -434l151 434h360v-16h-23q-10 0 -41.5 -4t-43.5 -17t-15 -45l-2 -46v-474l2 -46
q3 -32 13.5 -44.5t41.5 -16.5l50 -4v-16h-456v16l46 3q32 4 42 15t13 45l2 46v371q0 31 2.5 73.5t5.5 79.5h-6l-41 -129l-177 -520h-62l-244 605h-6z" />
    <glyph glyph-name="N" unicode="N" horiz-adv-x="900" 
d="M896 713q-13 -1 -28.5 -2t-43.5 -5.5t-42.5 -23t-17.5 -50.5l-2 -48v-584h-122l-475 608h-4v-467l2 -48q3 -33 16.5 -49t41 -20.5t47 -5.5t26.5 -2v-16h-288v16q13 1 29 2t56.5 7.5t46.5 67.5l2 48v455l-2 46q-13 21 -31 39t-39.5 25t-41.5 7h-30v16h382l359 -460h4v319
l-2 48q-3 32 -16.5 48.5t-40.5 21t-43.5 5.5t-30.5 2v16h288v-16z" />
    <glyph glyph-name="O" unicode="O" horiz-adv-x="906" 
d="M858 364q0 -160 -121 -268t-286 -108q-172 0 -287.5 106.5t-115.5 269.5q0 168 118 272t285 104t287 -105.5t120 -270.5zM554 637q-30 84 -103 84q-37 0 -64 -24t-41.5 -69.5t-21 -117t-6.5 -146.5q0 -103 8 -168t30 -127t95 -62q37 0 64 24t41.5 69.5t21 117t6.5 146.5
q0 89 -6 154.5t-24 118.5z" />
    <glyph glyph-name="P" unicode="P" horiz-adv-x="813" 
d="M513 0h-488v16h31q21 3 41 5.5t31.5 15t14.5 44.5l2 46v474l-2 46q-3 32 -15 45t-33.5 16t-39 3.5t-31.5 1.5v16l467 1q163 0 216.5 -36t74.5 -77.5t21 -89.5q0 -45 -14 -86t-43 -67.5t-72 -39.5t-111 -13q-65 0 -105 -0.5t-67 -1.5v-192l2 -46q3 -32 14.5 -44.5
t33.5 -15.5t43 -3.5t29 -1.5v-16zM553 529q0 57 -15 111t-45.5 62.5t-59 9t-42.5 0.5v-374q20 1 41 2t55.5 7.5t50 60t15.5 121.5z" />
    <glyph glyph-name="Q" unicode="Q" horiz-adv-x="906" 
d="M368 55q32 -47 83 -47q20 0 40 9q-9 40 -25.5 66t-45.5 26q-23 0 -35.5 -14.5t-16.5 -39.5zM673 56q17 -9 41.5 -16t47.5 -7q56 0 86 28t30 86h14v-73q0 -103 -54.5 -169t-143.5 -66q-74 0 -123 43.5t-73 112.5q-11 -2 -23.5 -4t-23.5 -2q-172 0 -287.5 106.5
t-115.5 268.5q0 167 118.5 271.5t284.5 104.5t286.5 -106.5t120.5 -269.5q0 -96 -51 -177t-134 -131zM584 364q0 89 -6 154.5t-30 134t-97 68.5q-37 0 -64 -24t-41.5 -69.5t-21 -117t-6.5 -146.5q0 -82 8.5 -166t28.5 -126h4q5 31 28.5 55t59.5 24q39 0 68 -16
q29 -20 40 -27q16 49 22.5 115.5t6.5 140.5z" />
    <glyph glyph-name="R" unicode="R" horiz-adv-x="912" 
d="M391 364v-234l2 -46q3 -32 16 -46t44 -18l51 -4v-16h-480v16h31q22 3 42 5.5t31.5 15t14.5 44.5l2 46v474l-2 46q-3 32 -15 45t-34 16t-38 3.5t-30 1.5v16l447 1q93 0 151 -8t94.5 -32t58 -59.5t21.5 -82.5q0 -35 -12.5 -70t-38.5 -60t-64.5 -39t-122.5 -14v-7
q51 -11 85.5 -21t62.5 -29t50.5 -56.5t36.5 -82t25 -63t31 -18.5q26 0 34.5 33.5t8.5 76.5h16q0 -49 -6 -78t-30 -60.5t-68.5 -51t-96.5 -19.5q-81 0 -129.5 46.5t-60 122t-18.5 127.5q-11 58 -29 67.5t-39 10.5t-42 1zM471 385q38 6 57.5 55t19.5 109q0 49 -20 96.5
t-48 55.5t-50 9t-39 2v-330h34q28 0 46 3z" />
    <glyph glyph-name="S" unicode="S" horiz-adv-x="710" 
d="M671 214q0 -99 -83.5 -162.5t-181.5 -63.5q-86 0 -170 54.5t-97 54.5q-33 0 -41 -25t-15 -84h-17v358h17q6 -21 20.5 -69t54 -114.5t104 -110.5t149.5 -44q49 0 80 26t31 62q0 43 -23 68t-83 48.5t-127 50.5t-142 73q-75 45 -75 170q0 98 79 166t182 68q57 0 111 -27
l104 -58q29 0 38 24.5t9 60.5h19v-265h-18q-5 17 -20.5 58t-60 92t-88 73.5t-104.5 22.5q-41 0 -76 -24t-35 -60q0 -38 26.5 -63.5t61 -40.5t95.5 -38t126.5 -53.5t107.5 -89t42 -138.5z" />
    <glyph glyph-name="T" unicode="T" horiz-adv-x="802" 
d="M6 729h790v-321h-17q-27 61 -64.5 129.5t-78.5 119.5t-72 51l-40 2v-583l2 -46q3 -32 13.5 -44.5t32.5 -15t40 -3.5t32 -2v-16h-489v16l66 3q30 3 41 15t14 45l2 46v585l-39 -2q-32 0 -71 -47.5t-78.5 -120t-66.5 -132.5h-17v321z" />
    <glyph glyph-name="U" unicode="U" horiz-adv-x="853" 
d="M869 713q-13 -1 -29.5 -2t-44 -5t-42 -24t-17.5 -52l-2 -48v-297l-2 -50q-15 -138 -75 -192.5t-186 -54.5q-166 0 -256 63t-90 157v394l-2 46q-3 32 -13.5 44.5t-41.5 16.5l-42 4v16h468v-16q-13 -1 -29.5 -1.5t-42.5 -4t-36 -14.5t-13 -45l-2 -46v-401q0 -12 1 -29
t6.5 -52.5t40 -70t94.5 -34.5q84 0 126.5 42.5t57 97.5t15.5 94l1 47v290l-2 48q-3 33 -16.5 50t-40.5 21.5t-45 5.5t-34 2v16h294v-16z" />
    <glyph glyph-name="V" unicode="V" horiz-adv-x="745" 
d="M792 713q-9 -1 -21 -1.5t-37.5 -4.5t-43.5 -17t-32 -46l-30 -77l-201 -571h-103l-204 573l-31 78q-15 32 -29 45.5t-40 16.5l-41 4v16h463v-16l-44 -4q-22 -4 -35.5 -9t-13.5 -31q0 -18 14.5 -62t43.5 -122.5t87 -231.5q35 94 71 194.5t49 145t13 66.5q0 25 -12 35
t-28 13.5t-31.5 4t-28.5 1.5v16h265v-16z" />
    <glyph glyph-name="W" unicode="W" horiz-adv-x="1186" 
d="M583 541l-41 106q-14 29 -23.5 43t-40.5 19l-31 4v16h440v-16h-14q-7 0 -26 -3.5t-32 -8.5t-13 -30q0 -23 13.5 -64t31.5 -91.5t47 -130.5t42 -116q13 34 31.5 82t51 135.5t42.5 120t10 56.5q0 23 -12 33t-29 12.5t-32 3t-28 1.5v16h257v-16l-44 -5q-32 -5 -50 -18
t-32 -46l-30 -77l-214 -571h-80l-182 516l-191 -516h-80l-204 573l-31 78q-15 32 -27.5 45.5t-37.5 16.5l-35 4v16h432v-16l-32 -3q-23 -3 -32.5 -9.5t-9.5 -24.5q0 -22 16.5 -70.5t41.5 -117.5t45 -122t33 -88z" />
    <glyph glyph-name="X" unicode="X" horiz-adv-x="764" 
d="M298 306l-195 313q-33 52 -53 69t-52 22l-31 3v16h460v-16l-42 -2q-21 -2 -30 -6.5t-9 -18.5q0 -11 4 -21.5t17 -32.5l84 -140q30 37 58 73.5t48.5 65.5t20.5 49q0 28 -25.5 30t-37 2.5t-21.5 0.5v16h256v-16l-37 -2q-35 -5 -57 -16t-52.5 -45.5t-68.5 -82t-74 -91.5
q68 -111 128 -207t98 -155t56.5 -74.5t50.5 -20.5l33 -3v-16h-462v16l42 2q37 4 37 29q0 19 -19 51l-118 193q-57 -72 -94 -120.5t-56 -75.5t-19 -45q0 -26 24.5 -29t40.5 -3.5t26 -1.5v-16h-273v16q11 0 25 0.5t34 3t43.5 14t59 52t92 110.5t88.5 110z" />
    <glyph glyph-name="Y" unicode="Y" horiz-adv-x="744" 
d="M524 127l2 -46q3 -32 13.5 -44.5t32 -15t39.5 -3.5t31 -2v-16h-487v16l66 3q30 3 41 15t14 45l2 46v186l-189 308q-34 53 -53.5 70t-51.5 21l-28 3v16h467v-16l-52 -2q-21 -2 -30 -6t-9 -19q0 -11 4 -21.5t20 -38t61.5 -100.5t87.5 -139q34 59 74 127.5t59.5 105
t19.5 59.5q0 27 -44 32l-40 2v16h238v-16l-26 -2q-34 0 -57 -13t-48 -51.5t-69.5 -116t-87.5 -154.5v-249z" />
    <glyph glyph-name="Z" unicode="Z" horiz-adv-x="834" 
d="M310 20q39 1 70.5 1.5t73.5 1.5q72 0 163.5 109t143.5 215h16v-347h-767v11l489 694v5l-115 -3q-76 0 -166.5 -103t-144.5 -209h-16v334h743v-11l-490 -693v-5z" />
    <glyph glyph-name="bracketleft" unicode="[" horiz-adv-x="460" 
d="M454 -125q0 -34 -25 -55q-4 -4 -9.5 -0.5t-1.5 9.5q10 13 10 30q0 26 -38.5 35.5t-83.5 9.5q-64 0 -130 -7t-119 -22v859q52 -14 117 -21.5t132 -7.5q48 0 85 9t37 36q0 17 -10 30q-4 5 1 9t10 4q25 -25 25 -59q0 -59 -38.5 -86.5t-90.5 -27.5q-71 0 -138.5 33.5
t-104.5 52.5v-803q48 25 110.5 55.5t132.5 30.5q53 0 91 -27t38 -87z" />
    <glyph glyph-name="backslash" unicode="\" horiz-adv-x="361" 
d="M395 -101l-45 -15l-369 870l45 16z" />
    <glyph glyph-name="bracketright" unicode="]" horiz-adv-x="460" 
d="M404 -125q-52 14 -117 21.5t-132 7.5q-48 0 -85 -9t-37 -36q0 -17 10 -30q4 -5 -1 -9t-10 -4q-25 25 -25 59q0 59 38.5 86.5t90.5 27.5q71 0 138.5 -33.5t104.5 -52.5v803q-48 -25 -110.5 -55.5t-132.5 -30.5q-53 0 -91 27t-38 87q0 37 25 55q5 4 10 4t1 -13
q-5 -6 -7.5 -13.5t-2.5 -16.5q0 -26 38.5 -35.5t83.5 -9.5q64 0 130 7t119 22v-859z" />
    <glyph glyph-name="asciicircum" unicode="^" horiz-adv-x="833" 
d="M420 609h-5l-184 -375l-76 32l225 463h74l225 -463l-76 -32z" />
    <glyph glyph-name="underscore" unicode="_" 
d="M500 -83v-81h-500v81h500z" />
    <glyph glyph-name="grave" unicode="`" 
d="M323 532l-8 -11q-34 20 -79 39t-86.5 36.5t-55.5 30.5t-14 45q0 10 2 19.5t5 13.5t19 10t34 6q29 0 88.5 -77.5t94.5 -111.5z" />
    <glyph glyph-name="a" unicode="a" horiz-adv-x="575" 
d="M530 50q24 0 33.5 29.5t9.5 70.5h14q0 -88 -31.5 -116t-56.5 -35.5t-64 -7.5q-43 0 -76.5 22t-40.5 59q-16 -41 -53.5 -61.5t-97.5 -20.5q-64 0 -104 35t-40 97q0 50 25 80.5t51 37.5t80 12t79.5 11.5t36.5 14t11 25.5l-1 91q0 39 -10 56t-42 17q-20 0 -33.5 -9
t-13.5 -23q0 -11 21.5 -27.5t21.5 -49.5q0 -31 -27.5 -55t-89.5 -24q-34 0 -59.5 18.5t-25.5 49.5q0 62 69.5 99t165.5 37q81 0 149 -33.5t68 -103.5v-229q0 -32 6 -49q5 -18 25 -18zM306 79v191l-3 1q-9 -12 -33.5 -22.5t-34 -20.5t-15 -38.5t-5.5 -58.5q0 -45 7 -72
t32 -27q19 0 33.5 15t18.5 32z" />
    <glyph glyph-name="b" unicode="b" horiz-adv-x="616" 
d="M601 239q0 -113 -76 -181t-193 -68q-77 0 -120 32t-71 64h-6q-14 -14 -29.5 -39.5t-29.5 -49.5h-12q1 40 1.5 75.5t1.5 85.5v461l-1 41q0 27 -8.5 37.5t-36.5 13.5l-38 2v16h276v-226l-2 -79q11 20 35.5 40t92.5 20q95 0 155.5 -67.5t60.5 -177.5zM399 238q0 14 -2 53.5
t-2 48.5q0 53 -16 85.5t-52 32.5q-31 0 -45 -17.5t-18 -40t-5 -65t-1 -84.5v-67q0 -27 3 -56q0 -53 16.5 -87.5t50.5 -34.5q33 0 50 36t17 88q0 20 1 47.5t3 60.5z" />
    <glyph glyph-name="c" unicode="c" horiz-adv-x="533" 
d="M314 468q-28 0 -47 -22t-29.5 -54t-15 -69.5t-4.5 -72.5q0 -91 30.5 -158.5t107.5 -67.5q55 0 96 34.5t62 87.5l15 -8q-67 -148 -240 -148q-114 0 -194 67.5t-80 178.5q0 112 78.5 180t195.5 68q44 0 81 -9.5t69.5 -26t62 -47t29.5 -71.5q0 -37 -23 -59.5t-68 -22.5
q-39 0 -70.5 27.5t-31.5 62.5q0 27 11 52t11 42q0 16 -12 26t-34 10z" />
    <glyph glyph-name="d" unicode="d" horiz-adv-x="621" 
d="M354 405q-4 25 -22 38t-42 13q-31 0 -46.5 -29.5t-20 -67t-5.5 -68t-1 -56.5v-45q0 -19 4.5 -66t20 -77t47.5 -30q55 0 64 53q2 23 3 81.5t1 87.5v92q0 42 -3 74zM357 477v128l-2 46q0 33 -10 44t-43 15l-47 3v16h294v-619l1 -41q0 -27 9.5 -37.5t36.5 -13.5l32 -2v-16
h-269v50q-11 -20 -35.5 -40t-92.5 -20q-96 0 -156 67t-60 182q0 111 60 178t156 67q70 0 93 -19t34 -40z" />
    <glyph glyph-name="e" unicode="e" horiz-adv-x="530" 
d="M521 150q-28 -75 -90 -117.5t-146 -42.5q-118 0 -194 65.5t-76 181.5q0 108 78.5 177.5t188.5 69.5q115 0 176 -65t61 -159h-307q0 -36 5.5 -73.5t21 -72.5t44 -56.5t71.5 -21.5q61 0 96.5 34.5t54.5 86.5zM345 280q-1 11 -1.5 26t-0.5 38q0 61 -15 92.5t-52 31.5
q-32 0 -44.5 -30.5t-17.5 -93.5l-2 -64h133z" />
    <glyph glyph-name="f" unicode="f" horiz-adv-x="360" 
d="M329 620q0 26 20 47t20 31q0 12 -8.5 18t-25.5 6q-35 0 -50.5 -40.5t-15.5 -102.5l-2 -105h114l-17 -38h-97v-311l1 -46q0 -36 6 -47t35 -15l36 -1v-16h-336v16l24 1q29 3 35 14t6 48l1 46v311h-73l16 38h57q0 20 1.5 42.5t1.5 32.5q0 71 81.5 130.5t184.5 59.5
q68 0 119.5 -28.5t51.5 -84.5q0 -36 -29.5 -60.5t-65.5 -24.5t-63.5 21.5t-27.5 57.5z" />
    <glyph glyph-name="g" unicode="g" horiz-adv-x="540" 
d="M118 -81q-28 -4 -40.5 -16.5t-12.5 -36.5q0 -40 58.5 -60.5t134.5 -20.5q95 0 153 21t58 67q0 28 -26 37t-74 9h-251zM291 314l-3 73q0 37 -10 59t-35 22q-23 0 -33.5 -22.5t-10.5 -58.5l-3 -73l3 -73q0 -35 11 -57.5t34 -22.5t33.5 22t10.5 58zM392 429q11 25 34 40
t56 15q35 0 56 -18t21 -49q0 -24 -16 -40t-42 -16q-24 0 -40.5 13.5t-16.5 39.5q0 14 9.5 26.5t9.5 18.5q0 4 -8 4q-13 0 -29 -10.5t-26 -31.5q18 -19 28 -47.5t10 -59.5q0 -76 -58 -122.5t-136 -46.5q-48 0 -94 19q-21 2 -40 -7t-19 -29q0 -14 15 -21q14 -8 32 -8h213
q82 0 131 -47t49 -118q0 -87 -82.5 -128t-193.5 -41q-91 0 -159.5 22t-68.5 77q0 26 20.5 41.5t51.5 21.5q-40 23 -62.5 51.5t-22.5 69.5q0 50 33 85t79 42q-37 24 -57.5 58.5t-20.5 79.5q0 77 57.5 124t138.5 47q91 0 148 -55z" />
    <glyph glyph-name="h" unicode="h" horiz-adv-x="649" 
d="M259 400q19 40 53 62t97 22q69 0 122 -37.5t53 -96.5v-225l1 -46q0 -36 6 -47.5t35 -14.5l22 -1v-16h-309v16l13 1q27 0 33 12t6 50l1 46v204l-1 41q0 42 -14 60t-42 18q-34 0 -48.5 -22t-23.5 -45v-256l1 -46q0 -39 5.5 -50.5t33.5 -11.5l13 -1v-16h-310v16l23 1
q29 3 35 14t6 48l1 46v494l-1 41q0 27 -8.5 37.5t-36.5 13.5l-38 2v16h276v-237q0 -33 -1 -55.5t-3 -36.5z" />
    <glyph glyph-name="i" unicode="i" horiz-adv-x="340" 
d="M332 0h-324v16l24 1q29 3 35 14t6 48l1 46v239l-1 41q-2 24 -6 36t-36 15l-27 2v16h262v-349l1 -46q0 -36 6 -47.5t35 -14.5l24 -1v-16zM72 641q0 39 28.5 66.5t68.5 27.5q41 0 69.5 -26.5t28.5 -67.5q0 -40 -28.5 -67.5t-69.5 -27.5q-40 0 -68.5 27.5t-28.5 67.5z" />
    <glyph glyph-name="j" unicode="j" horiz-adv-x="330" 
d="M270 641q0 -40 -28.5 -67.5t-69.5 -27.5q-40 0 -68.5 27.5t-28.5 67.5q0 39 28.5 66.5t68.5 27.5q41 0 69.5 -26.5t28.5 -67.5zM271 54q0 -22 -1.5 -46.5t-1.5 -28.5q0 -75 -78.5 -142.5t-177.5 -67.5q-70 0 -116 25t-46 82q0 36 27.5 60.5t63.5 24.5q35 0 61.5 -22
t26.5 -57q0 -27 -18.5 -47.5t-18.5 -30.5q0 -8 7.5 -12.5t22.5 -4.5q31 0 43.5 36t12.5 95l1 105v341l-1 41q-2 24 -6 36t-36 15l-37 2v16h272v-420z" />
    <glyph glyph-name="k" unicode="k" horiz-adv-x="628" 
d="M261 214q53 54 106 109t73.5 80t20.5 38q0 8 -6.5 11.5t-18.5 4.5l-34 2v15h188v-15q-10 0 -19.5 -0.5t-26 -4t-27.5 -10t-32.5 -25.5t-37 -35t-28.5 -30q49 -80 100 -162.5t74.5 -118t35 -44.5t31.5 -12l24 -1v-16h-339v16l20 1q26 0 26 16q0 10 -13.5 33t-41.5 67
t-54 84l-19 -20v-72l1 -46q0 -39 5.5 -50.5t33.5 -11.5l19 -1v-16h-316v16l23 1q29 3 35 14t6 48l1 46v494l-1 41q0 27 -8.5 37.5t-36.5 13.5l-38 2v16h276v-449z" />
    <glyph glyph-name="l" unicode="l" horiz-adv-x="337" 
d="M332 0h-324v16l24 1q29 3 35 14t6 48l1 46v494l-1 41q-2 24 -6 36t-36 15l-34 2v16h269v-604l1 -46q0 -36 6 -47.5t35 -14.5l24 -1v-16z" />
    <glyph glyph-name="m" unicode="m" horiz-adv-x="946" 
d="M942 0h-301v16q35 0 41.5 11t6.5 52l1 46v202l-1 41q0 43 -10.5 62t-37.5 19q-18 0 -38.5 -16.5t-27.5 -64.5v-243l1 -46q0 -32 3.5 -46t38.5 -17v-16h-284v16q34 0 41 11t7 52l1 46v202l-1 41q0 43 -10.5 62t-37.5 19q-34 0 -46.5 -22t-19.5 -45v-257l1 -46
q0 -32 3.5 -46t38.5 -17v-16h-299v16l22 1q29 3 35 14t6 48l1 46v239l-1 41q-2 24 -6 36t-36 15l-23 2v16h254v-75q9 28 35.5 56.5t107.5 28.5q56 0 97.5 -23.5t61.5 -70.5q5 18 26.5 56t121.5 38q68 0 118 -38t50 -98v-223l1 -46q0 -38 5.5 -48t35.5 -14l18 -1v-16z" />
    <glyph glyph-name="n" unicode="n" horiz-adv-x="653" 
d="M396 329l-1 41q0 78 -55 78q-35 0 -49.5 -22t-23.5 -45v-256l1 -46q0 -41 7.5 -52t44.5 -11v-16h-311v16l24 1q29 3 35 14t6 48l1 46v239l-1 41q-2 24 -6 36t-36 15l-23 2v16h254v-75q11 28 39.5 56.5t110.5 28.5q71 0 123 -40t52 -94v-225l1 -46q0 -36 6 -47.5t35 -14.5
l22 -1v-16h-309v16q36 0 44 11.5t8 51.5l1 46v204z" />
    <glyph glyph-name="o" unicode="o" horiz-adv-x="570" 
d="M555 237q0 -106 -80.5 -176.5t-189.5 -70.5q-115 0 -192.5 70.5t-77.5 176.5t78.5 176.5t191.5 70.5q111 0 190.5 -70t79.5 -177zM356 238q0 14 -2 56t-2 50q0 54 -16.5 89t-51.5 35q-32 0 -49 -36.5t-17 -87.5q0 -19 -1.5 -46.5t-2.5 -59.5q0 -14 2 -57.5t2 -50.5
q0 -54 16.5 -89t50.5 -35q33 0 50 36t17 88q0 20 1 47.5t3 60.5z" />
    <glyph glyph-name="p" unicode="p" horiz-adv-x="619" 
d="M265 69q4 -25 22.5 -38t41.5 -13q31 0 46.5 30t19.5 66t5.5 64t1.5 61v65q-3 29 -6.5 60.5t-19.5 61t-49 29.5q-20 0 -38.5 -17.5t-22.5 -42.5q-2 -24 -3 -62.5t-1 -76.5v-110q0 -46 3 -77zM-11 -231v16l35 2q29 3 37 12.5t8 38.5l1 41v485l-1 41q0 28 -8.5 38t-37.5 13
l-32 2v16h269v-59q11 23 35.5 46t92.5 23q96 0 156 -67t60 -182q0 -111 -60 -178t-156 -67q-70 0 -93 19t-34 40l1 -59v-95l2 -46q3 -34 13.5 -45.5t41.5 -15.5l48 -3v-16h-378z" />
    <glyph glyph-name="q" unicode="q" horiz-adv-x="611" 
d="M551 479l-2 -130v-470l1 -41q0 -27 8.5 -37.5t36.5 -13.5l28 -2v-16h-357v16q10 0 23.5 0.5t32 2.5t26.5 11.5t8 38.5l1 41v170q-10 -20 -33.5 -39.5t-92.5 -19.5q-95 0 -155.5 67.5t-60.5 177.5q0 113 76 181t193 68q75 0 116 -28.5t69 -58.5l72 82h10zM357 238v89
q-2 12 -2 17q0 57 -15.5 90.5t-52.5 33.5q-32 0 -49 -36.5t-17 -87.5q0 -19 -1.5 -46.5t-2.5 -59.5q0 -14 2 -57.5t2 -50.5q0 -49 17 -81.5t51 -32.5q30 0 45 18.5t17 36.5t4 85.5t2 81.5z" />
    <glyph glyph-name="r" unicode="r" horiz-adv-x="512" 
d="M6 0v16l27 1q29 3 35 14t6 48l1 46v239l-1 41q-2 24 -6 36t-36 15l-26 2v16h259v-84q7 18 30 54t105 36q48 0 81.5 -33.5t33.5 -79.5t-31.5 -76.5t-77.5 -30.5q-38 0 -65.5 26.5t-27.5 60.5q0 25 9 46q10 19 20 39q-5 7 -10 7q-26 0 -45.5 -31t-19.5 -58v-231l1 -50
q0 -28 7 -38t35 -13l30 -2v-16h-334z" />
    <glyph glyph-name="s" unicode="s" horiz-adv-x="484" 
d="M44 207h13q26 -81 52 -119t56.5 -57t74.5 -19q25 0 43 13.5t18 37.5q0 31 -14 46t-44 32.5t-69.5 39t-66 42t-41 46.5t-14.5 60q0 74 56 114.5t137 40.5q38 0 72 -14q33 -17 67 -33q14 0 24 17t10 40h14v-201h-13q-8 24 -20 53t-34.5 58.5t-47.5 45.5t-64 16
q-28 0 -45.5 -13.5t-17.5 -33.5q0 -23 12.5 -36t36.5 -27.5t65.5 -37t74.5 -44.5t55 -54.5t22 -74.5q0 -77 -58.5 -116t-141.5 -39q-43 0 -84 18q-40 20 -79 41q-13 0 -23 -21t-12 -45h-14v224z" />
    <glyph glyph-name="t" unicode="t" horiz-adv-x="403" 
d="M66 436h-68v27q34 9 71 33.5t70.5 57t56 63.5t34.5 56h28v-199h131l-14 -38h-117v-272l2 -51q0 -43 19 -65t48 -22q39 0 57 32.5t18 72.5h14q0 -56 -33 -98.5t-142 -42.5q-69 0 -122 36t-53 101v309z" />
    <glyph glyph-name="u" unicode="u" horiz-adv-x="652" 
d="M652 0h-262v64q-23 -36 -56.5 -55t-92.5 -19q-69 0 -122 41q-54 40 -54 111v222l-1 41q0 27 -8.5 37.5t-36.5 13.5l-28 2v16h266v-327l1 -41q0 -41 14.5 -61.5t43.5 -20.5q32 0 46.5 18t23.5 37v270l-2 46q0 33 -11 45t-44 16l-31 2v16h280v-364l1 -41q0 -27 8.5 -37.5
t36.5 -13.5l28 -2v-16z" />
    <glyph glyph-name="v" unicode="v" horiz-adv-x="505" 
d="M312 458q-6 0 -12 -0.5t-21.5 -3t-15.5 -23.5q0 -11 2 -19t7 -20l76 -202l71 184q12 35 12 55q0 14 -7 19t-22 8l-32 2v16h167v-16l-37 -4q-16 -3 -29 -18.5t-27 -51t-54.5 -140.5t-61.5 -160t-33 -88h-71q-17 43 -42 108.5t-63 163t-52 131.5t-20.5 43.5t-19.5 12t-24 3
t-16 0.5v16h325v-16z" />
    <glyph glyph-name="w" unicode="w" horiz-adv-x="811" 
d="M406 348l-21 58q-8 20 -15 33.5t-22 16.5l-22 2v16h306v-16h-15q-8 0 -22 -3t-14 -24q0 -7 1 -14t10.5 -37.5t30.5 -90.5t34 -95l69 180q13 39 13 56q0 15 -7 19t-19 6t-20.5 2.5t-16.5 0.5v16h167v-16l-36 -4q-30 -5 -56 -69l-148 -389h-72l-116 328l-129 -328h-71
q-15 43 -31 88t-57.5 162.5t-55 152.5t-19.5 44t-18 11.5t-23.5 3t-21.5 0.5v16h315v-16h-7q-4 0 -17.5 -3t-13.5 -24q0 -7 1 -14t9 -31.5t27 -80.5t40 -113z" />
    <glyph glyph-name="x" unicode="x" horiz-adv-x="541" 
d="M201 197l-119 201q-21 34 -33 45t-33 14l-28 2v15h337v-15l-27 -1q-14 -1 -20 -4t-6 -14q0 -5 1.5 -11.5t10.5 -22.5l50 -87l64 82q17 25 17 38q0 19 -25 19l-23 1v15h166v-15h-11q-7 0 -21.5 -2t-27.5 -8.5t-42 -39.5l-87 -106l135 -226q22 -36 33.5 -46t32.5 -13l21 -2
v-16h-331v16l27 1q25 3 25 20q0 10 -11 32l-65 112l-83 -107q-17 -25 -17 -37q0 -17 25 -20l27 -1v-16h-178v16l31 1q27 4 42 14t32.5 30t49.5 60t61 76z" />
    <glyph glyph-name="y" unicode="y" horiz-adv-x="503" 
d="M61 406q-12 25 -20 35.5t-21 13.5l-39 3v16h327v-16h-15q-8 0 -20.5 -2.5t-12.5 -20.5q0 -8 4 -20.5t8 -24.5l78 -186q10 24 32 78.5t35 92.5t13 55q0 13 -4.5 18t-24.5 8l-32 2v16h167v-16q-6 0 -12.5 -0.5t-24 -3.5t-29.5 -18t-44.5 -98t-70 -176t-84 -193t-87 -150
t-108.5 -50q-40 0 -73.5 27t-33.5 70q0 40 27 68t69 28q43 0 67 -25t24 -59t-19 -55t-19 -25q9 1 19 2q22 10 42.5 38t36.5 58t34 71q-22 52 -54.5 128.5t-72 168.5t-62.5 142z" />
    <glyph glyph-name="z" unicode="z" horiz-adv-x="542" 
d="M298 20q48 0 106 69t91 137h13v-226h-507v9l302 444l-54 2q-49 0 -107.5 -65t-92.5 -133h-13v217h486v-9l-301 -444z" />
    <glyph glyph-name="braceleft" unicode="{" horiz-adv-x="380" 
d="M105 271v-7q59 -7 102.5 -42.5t43.5 -115.5q0 -24 -10 -75.5t-10 -66.5q0 -81 35.5 -111.5t104.5 -30.5v-18q-136 0 -199.5 40.5t-63.5 120.5q0 45 28 110t28 95q0 42 -24.5 65t-107.5 23v18q83 0 107.5 23t24.5 67q0 32 -28 96.5t-28 106.5q0 103 81.5 132t181.5 29v-18
q-69 0 -104.5 -30t-35.5 -112q0 -19 10 -70t10 -72q0 -79 -44 -115t-102 -42z" />
    <glyph glyph-name="bar" unicode="|" horiz-adv-x="445" 
d="M183 754h79v-1000h-79v1000z" />
    <glyph glyph-name="braceright" unicode="}" horiz-adv-x="380" 
d="M349 258q-83 0 -107.5 -22.5t-24.5 -65.5q0 -32 28 -94t28 -111q0 -102 -81 -131.5t-182 -29.5v18q69 0 104.5 30t35.5 112q0 20 -10 71t-10 71q0 79 44 115t102 43v7q-59 6 -102.5 41.5t-43.5 115.5q0 24 10 76t10 66q0 83 -35 112.5t-105 29.5v18q103 0 183 -28.5
t80 -132.5q0 -44 -28 -108t-28 -95q0 -45 24 -67.5t108 -22.5v-18z" />
    <glyph glyph-name="asciitilde" unicode="~" horiz-adv-x="833" 
d="M710 443q0 -91 -43 -154t-123 -63q-30 0 -54.5 9t-51.5 28l-79 57q-19 15 -37 23t-38 8q-43 0 -66 -39t-23 -98h-73q0 84 43.5 150t122.5 66q27 0 54 -10t42.5 -20.5t48.5 -34.5t46.5 -33t32 -18t36.5 -9q43 0 66 38.5t23 99.5h73z" />
    <glyph glyph-name="nonbreakingspace" unicode="&#xa0;" horiz-adv-x="250" 
 />
    <glyph glyph-name="exclamdown" unicode="&#xa1;" horiz-adv-x="323" 
d="M49 140q0 60 54 158.5t54 216.5h15q0 -109 53.5 -227t53.5 -150q0 -55 -37.5 -102.5t-78.5 -47.5q-39 0 -76.5 46.5t-37.5 105.5zM66 645q0 40 28.5 67.5t69.5 27.5q40 0 68.5 -27.5t28.5 -67.5q0 -39 -28.5 -66.5t-68.5 -27.5q-41 0 -69.5 26.5t-28.5 67.5z" />
    <glyph glyph-name="cent" unicode="&#xa2;" horiz-adv-x="573" 
d="M434 457q47 -27 77.5 -56.5t30.5 -71.5q0 -37 -23 -59.5t-68 -22.5q-29 0 -55.5 17t-39.5 43l-104 -199q17 -38 48 -60t67 -22q54 0 96 35t62 86l15 -8q-65 -147 -240 -147q-55 0 -100 16l-86 -165l-18 9l84 162q-69 28 -111.5 86t-42.5 136q0 111 79 179t195 68
q36 0 62 -4.5t52 -14.5l77 147l19 -8zM349 338q0 25 10.5 51.5t10.5 41.5q0 18 -10 27t-34 9q-30 0 -48 -20.5t-28 -52.5t-15.5 -72.5t-5.5 -71.5q0 -69 14 -116z" />
    <glyph glyph-name="sterling" unicode="&#xa3;" horiz-adv-x="810" 
d="M238 84q-55 41 -91 62t-82 21q-29 0 -50.5 -18.5t-21.5 -47.5q0 -39 31 -62.5t71 -23.5q47 0 80 15.5t62 48.5zM233 404q-12 34 -12 69q0 123 91.5 195t218.5 72q87 0 148.5 -41.5t61.5 -112.5q0 -39 -27.5 -69.5t-65.5 -30.5q-43 0 -73 26t-30 70q0 41 25.5 68.5
t54.5 27.5q15 2 15 12q0 9 -24.5 19.5t-56.5 10.5q-43 0 -72.5 -29.5t-29.5 -76.5q0 -30 27 -93t27 -117h163l-10 -28h-157q-10 -36 -37 -74.5t-63 -78.5q56 -8 82 -11.5t54 -3.5q107 0 139 29.5t45 88.5h12q2 -12 3 -26.5t1 -28.5q0 -129 -78 -206t-212 -77q-43 0 -78 13
t-111 62q-39 -34 -77 -50.5t-83 -16.5q-52 0 -91 30.5t-39 78.5q0 67 77.5 102.5t172.5 35.5q47 0 103 -8q-8 29 -41.5 78t-40.5 63h-155l10 28h133z" />
    <glyph glyph-name="currency" unicode="&#xa4;" horiz-adv-x="882" 
d="M650 301q0 -35 -10.5 -65t-31.5 -60l38 -40l-45 -44l-39 38q-57 -45 -136 -45q-34 0 -65.5 11.5t-60.5 33.5l-40 -38l-46 44l39 40q-21 32 -31.5 62.5t-10.5 66.5q0 72 42 134l-39 36l46 49l40 -40q28 22 62 32t72 10q73 0 128 -42l39 40l45 -49l-38 -36q42 -63 42 -138z
M556 305q0 52 -36.5 91.5t-87.5 39.5q-54 0 -92 -38t-38 -93q0 -50 38 -87t89 -37q54 0 90.5 35.5t36.5 88.5z" />
    <glyph glyph-name="yen" unicode="&#xa5;" horiz-adv-x="804" 
d="M221 424l-117 195q-34 53 -53 69.5t-51 21.5l-17 3v16h457v-16h-25q-13 0 -30.5 -2t-27.5 -6.5t-10 -18.5q0 -11 4 -21.5t25 -47.5t60 -101t80 -129q36 64 75.5 136t55 103t15.5 48q0 32 -45 37l-39 2v16h226v-16l-23 -2q-22 -3 -43 -10.5t-46 -46.5t-60.5 -102.5
t-71.5 -127.5h164l-10 -28h-169l-11 -20v-85h190l-10 -28h-180v-136l2 -46q3 -32 13.5 -44.5t32.5 -15.5t38 -3.5t29 -1.5v-16h-484v16l66 3q30 3 41 15t14 45l2 46v138h-210l10 28h200v20l-51 85h-159l10 28h133z" />
    <glyph glyph-name="brokenbar" unicode="&#xa6;" horiz-adv-x="445" 
d="M262 280h-78l-1 494h79v-494zM262 -306h-79l1 486h78v-486z" />
    <glyph glyph-name="section" unicode="&#xa7;" horiz-adv-x="598" 
d="M226 399q-60 42 -89.5 82t-29.5 87q0 71 60.5 121.5t159.5 50.5q72 0 123.5 -35.5t51.5 -88.5q0 -30 -21.5 -51.5t-55.5 -21.5q-37 0 -68 19.5t-31 60.5q0 55 30.5 63t30.5 19q0 7 -17.5 13t-41.5 6q-41 0 -70.5 -19.5t-29.5 -59.5q0 -32 20.5 -58t44 -43t84.5 -56
t88 -58.5t50 -54.5t23 -81q0 -59 -47 -99t-121 -49q56 -44 88.5 -74.5t32.5 -100.5q0 -67 -67 -119t-161 -52q-72 0 -119.5 33t-47.5 90q0 31 22.5 52.5t61.5 21.5q35 0 63 -21t28 -58q0 -24 -12.5 -43.5t-30 -24.5t-17.5 -15q0 -7 16 -12.5t38 -5.5q41 0 73.5 20t32.5 64
q0 30 -19 56q-20 26 -74.5 63.5t-128.5 88.5q-36 28 -59.5 62t-23.5 77q0 60 44 100t116 51zM359 151q21 9 30.5 27.5t9.5 45.5q0 33 -16.5 57t-55.5 53l-89 58q-16 -6 -26.5 -27t-10.5 -47q0 -31 17 -58t60 -56z" />
    <glyph glyph-name="dieresis" unicode="&#xa8;" 
d="M70 618q0 26 20 46t48 20t47 -19t19 -47q0 -30 -18 -49t-48 -19q-28 0 -48 20t-20 48zM296 618q0 26 20 46t47 20q28 0 47.5 -19.5t19.5 -46.5q0 -30 -19 -49t-48 -19q-27 0 -47 20t-20 48z" />
    <glyph glyph-name="copyright" unicode="&#xa9;" horiz-adv-x="1000" 
d="M888 344q0 -162 -115 -278t-279 -116q-163 0 -278.5 115.5t-115.5 278.5t115 279t279 116t279 -116t115 -279zM856 344q0 151 -105 257t-257 106t-257 -106t-105 -257t105 -257t257 -106q151 0 256.5 105.5t105.5 257.5zM507 108q-112 0 -182 67t-70 171q0 106 70 172
t181 66q51 0 84 -15l64 -38q18 0 25.5 13t7.5 34h18v-199h-16q-35 97 -61 137.5t-86 40.5q-57 0 -83 -59.5t-26 -142.5q0 -88 32.5 -151.5t94.5 -63.5q55 0 89.5 39.5t47.5 107.5l17 -3q-9 -77 -58 -126.5t-149 -49.5z" />
    <glyph glyph-name="ordfeminine" unicode="&#xaa;" horiz-adv-x="544" 
d="M471 420q21 0 28 21.5t7 51.5h15q0 -66 -25 -86t-48 -25.5t-56 -5.5q-38 0 -65.5 15.5t-32.5 44.5q-15 -30 -44 -45.5t-80 -15.5q-55 0 -88.5 25.5t-33.5 71.5q0 37 21 59t48 29t64.5 9t58 7t31 9.5t12.5 21.5l-1 61q0 29 -9 42.5t-35 13.5q-17 0 -26 -5t-9 -16
q0 -6 17 -19t17 -38q0 -22 -23 -40t-74 -18q-28 0 -50 13.5t-22 36.5q0 46 57.5 73.5t137.5 27.5q66 0 124.5 -26t58.5 -77v-168q0 -23 4 -35q4 -13 21 -13zM283 444v134l-3 1q-6 -8 -27.5 -18t-27.5 -16t-10.5 -24.5t-4.5 -42.5q0 -31 5.5 -50t26.5 -19q16 0 26.5 10.5
t14.5 24.5zM120 244h322l-10 -28h-322zM120 124h322l-10 -28h-322z" />
    <glyph glyph-name="guillemotleft" unicode="&#xab;" horiz-adv-x="496" 
d="M276 74l-11 -10l-223 167v28l223 166l11 -10q-20 -33 -46 -77.5t-49 -92.5q26 -52 50.5 -95t44.5 -76zM442 91l-11 -10l-203 151v25l203 151l11 -10q-18 -29 -40.5 -67.5t-46.5 -85.5q26 -52 47.5 -88.5t39.5 -65.5z" />
    <glyph glyph-name="logicalnot" unicode="&#xac;" horiz-adv-x="833" 
d="M701 370v-245h-86v164h-483v81h569z" />
    <glyph glyph-name="registered" unicode="&#xae;" horiz-adv-x="1000" 
d="M889 345q0 -164 -115 -279t-279 -115t-279 115t-115 279t115 279t279 115t279 -115t115 -279zM465 344v-141l1 -27q0 -35 37 -41l32 -2v-14h-284v14l28 2q20 3 27 11t10 28l1 27v290l-1 29q-3 19 -10.5 27.5t-26.5 10.5l-27 3v14h266q58 0 93.5 -4.5t58 -20t35.5 -37.5
t13 -52q0 -23 -7.5 -44t-28.5 -40t-44.5 -24.5t-65.5 -5.5q45 -14 59 -19t30.5 -16t31 -34.5t23 -51.5t14 -37.5t19.5 -9.5q17 0 21.5 17t4.5 48h14q0 -34 -3 -50t-16 -36q-37 -45 -104 -45q-102 0 -114.5 76t-16.5 108q-7 34 -17 39.5t-41 7.5h-12zM516 361q24 4 37 34
t13 67q0 30 -13 58t-32 33.5t-31.5 6t-24.5 0.5v-200h28q17 0 23 1zM857 346q0 150 -105 256t-256 106t-257 -106t-106 -256q0 -152 105 -258t258 -106q151 0 256 106t105 258z" />
    <glyph glyph-name="degree" unicode="&#xb0;" horiz-adv-x="329" 
d="M165 739q60 0 103.5 -42.5t43.5 -101.5t-43 -101t-105 -42q-61 0 -103.5 41.5t-42.5 101.5t43 102t104 42zM255 596q0 38 -26 64t-64 26q-37 0 -64 -26t-27 -64t26.5 -64.5t64.5 -26.5t64 27t26 64z" />
    <glyph glyph-name="plusminus" unicode="&#xb1;" horiz-adv-x="833" 
d="M376 164v201h-247v81h247v223h81v-223h247v-81h-247v-201h247v-81h-575v81h247z" />
    <glyph glyph-name="acute" unicode="&#xb4;" 
d="M176 532q38 37 96.5 113t86.5 76q20 0 34.5 -5.5t20 -12.5t5.5 -31q0 -32 -13.5 -45t-61.5 -33t-88 -37t-72 -36z" />
    <glyph glyph-name="mu" unicode="&#xb5;" horiz-adv-x="668" 
d="M641 225q0 -59 -10.5 -109t-32 -76.5t-41.5 -37.5t-46 -11q-39 0 -58.5 28t-19.5 69l2 49l-4 2q-30 -61 -83.5 -105t-110.5 -44q-59 0 -89 43.5t-30 129.5h-4q-18 -58 -27.5 -109.5t-9.5 -100.5q15 -35 27 -66t12 -59t-20 -43.5t-39 -15.5q-22 0 -42 15t-20 50
q0 42 29.5 134t52 156t25.5 76l23 170q7 49 24 81.5t62 32.5q29 0 42 -16t13 -41q0 -37 -31 -96t-59 -111q0 -39 22.5 -65.5t67.5 -26.5q53 0 91.5 26.5t57.5 73.5q0 46 2 89.5t7.5 77t22 61.5t60.5 28q30 0 43 -17.5t13 -40.5q0 -54 -38 -125.5t-70 -128.5
q12 -22 30.5 -36.5t48.5 -14.5q39 0 62 24t31 80h14z" />
    <glyph glyph-name="paragraph" unicode="&#xb6;" horiz-adv-x="587" 
d="M460 96q0 -104 -12 -157t-45 -84.5t-62 -43.5t-63 -12q-59 0 -100.5 35t-41.5 96q0 51 34 86t90 35q42 0 68 -23t26 -59q0 -33 -18.5 -52.5t-48.5 -19.5q-31 0 -49 17.5t-18 44.5q0 12 9.5 28t9.5 19q-6 5 -10 5q-32 0 -52.5 -24.5t-20.5 -56.5q0 -47 34.5 -79.5
t84.5 -32.5q81 0 114 50t39.5 94t6.5 117v109q-187 0 -288 67t-101 199q0 74 40 136t100.5 93.5t115 39t136.5 7.5h158v-16q-12 0 -28 -0.5t-45 -4.5t-43.5 -18.5t-17.5 -48.5l-2 -51v-495z" />
    <glyph glyph-name="cedilla" unicode="&#xb8;" horiz-adv-x="484" 
d="M252 1l-45 -60q5 1 16 2t20 1q64 0 91 -29.5t27 -59.5q0 -55 -42 -77t-90 -22q-33 0 -58 13.5t-25 35.5q0 12 9.5 23.5t25.5 11.5q19 0 27 -11t8 -24q0 -9 -11 -29q14 -7 23 -7q18 0 31.5 15.5t13.5 44.5q0 37 -17.5 55.5t-52.5 18.5q-16 0 -26.5 -3.5t-15.5 -5.5l-4 5
l77 102h18z" />
    <glyph glyph-name="ordmasculine" unicode="&#xba;" horiz-adv-x="550" 
d="M501 558q0 -82 -67 -131.5t-160 -49.5q-97 0 -161 49.5t-64 131.5t64 131.5t161 49.5q96 0 161.5 -49t65.5 -132zM333 559v45q-3 22 -6 54t-16.5 49t-37.5 17q-26 0 -38 -24t-15 -64l-3 -77l3 -79q5 -54 18.5 -71t35.5 -17q28 0 39.5 23.5t14.5 52.5t4 51.5t1 39.5z
M120 244h322l-10 -28h-322zM120 124h322l-10 -28h-322z" />
    <glyph glyph-name="guillemotright" unicode="&#xbb;" horiz-adv-x="496" 
d="M454 231l-223 -167l-11 10q20 33 44 74.5t51 96.5q-27 54 -50.5 95t-44.5 75l11 10l223 -166v-28zM268 232l-203 -151l-11 10q18 29 40 66.5t47 87.5q-29 57 -48.5 90.5t-38.5 62.5l11 10l203 -151v-25z" />
    <glyph glyph-name="questiondown" unicode="&#xbf;" horiz-adv-x="618" 
d="M343 645q0 40 28.5 67.5t69.5 27.5q40 0 68.5 -27.5t28.5 -67.5q0 -39 -28.5 -66.5t-68.5 -27.5q-41 0 -69.5 26.5t-28.5 67.5zM454 517v-193h-16q0 38 -29.5 65.5t-71.5 27.5q-55 0 -74 -53.5t-19 -130.5q0 -92 27.5 -156t104.5 -64q33 0 59 11.5t26 31.5q0 7 -6.5 12
t-22.5 5q-37 0 -60.5 22.5t-23.5 58.5q0 41 30.5 66.5t73.5 25.5q38 0 66.5 -28.5t28.5 -69.5q0 -71 -67 -116t-151 -45q-121 0 -203 58.5t-82 173.5q0 105 73.5 165t183.5 60q46 0 78 -15t51 -41h4v129h20z" />
    <glyph glyph-name="Agrave" unicode="&#xc0;" horiz-adv-x="748" 
d="M341 249l-88 246l-85 -246h173zM161 228l-31 -104q-10 -36 -10 -57q0 -23 11.5 -32t29.5 -12.5t35 -4.5t33 -2v-16h-282v16l59 4q33 4 50 16.5t25.5 31.5t19 45t17.5 47l191 572h110l211 -572l31 -78q14 -31 28.5 -44.5t40.5 -17.5l41 -4v-16h-475v16q12 0 21.5 0.5
t34.5 4.5t36 10.5t11 27.5q0 22 -14 63l-36 106h-188zM447 782l-8 -11q-34 20 -79 39t-86.5 36.5t-55.5 30.5t-14 45q0 10 2 19.5t5 13.5t19 10t34 6q29 0 88.5 -77.5t94.5 -111.5z" />
    <glyph glyph-name="Aacute" unicode="&#xc1;" horiz-adv-x="748" 
d="M341 249l-88 246l-85 -246h173zM161 228l-31 -104q-10 -36 -10 -57q0 -23 11.5 -32t29.5 -12.5t35 -4.5t33 -2v-16h-282v16l59 4q33 4 50 16.5t25.5 31.5t19 45t17.5 47l191 572h110l211 -572l31 -78q14 -31 28.5 -44.5t40.5 -17.5l41 -4v-16h-475v16q12 0 21.5 0.5
t34.5 4.5t36 10.5t11 27.5q0 22 -14 63l-36 106h-188zM300 782q38 37 96.5 113t86.5 76q20 0 34.5 -5.5t20 -12.5t5.5 -31q0 -32 -13.5 -45t-61.5 -33t-88 -37t-72 -36z" />
    <glyph glyph-name="Acircumflex" unicode="&#xc2;" horiz-adv-x="748" 
d="M341 249l-88 246l-85 -246h173zM161 228l-31 -104q-10 -36 -10 -57q0 -23 11.5 -32t29.5 -12.5t35 -4.5t33 -2v-16h-282v16l59 4q33 4 50 16.5t25.5 31.5t19 45t17.5 47l191 572h110l211 -572l31 -78q14 -31 28.5 -44.5t40.5 -17.5l41 -4v-16h-475v16q12 0 21.5 0.5
t34.5 4.5t36 10.5t11 27.5q0 22 -14 63l-36 106h-188zM524 776l-11 -8l-141 102l-141 -102l-11 8l109 181h86z" />
    <glyph glyph-name="Atilde" unicode="&#xc3;" horiz-adv-x="748" 
d="M341 249l-88 246l-85 -246h173zM161 228l-31 -104q-10 -36 -10 -57q0 -23 11.5 -32t29.5 -12.5t35 -4.5t33 -2v-16h-282v16l59 4q33 4 50 16.5t25.5 31.5t19 45t17.5 47l191 572h110l211 -572l31 -78q14 -31 28.5 -44.5t40.5 -17.5l41 -4v-16h-475v16q12 0 21.5 0.5
t34.5 4.5t36 10.5t11 27.5q0 22 -14 63l-36 106h-188zM307 840q-32 0 -47 -11t-23 -40h-17q15 73 42.5 104.5t74.5 31.5q15 0 64 -13t55 -13q58 0 71 51h17q-15 -73 -42.5 -104.5t-74.5 -31.5q-22 0 -69.5 13t-50.5 13z" />
    <glyph glyph-name="Adieresis" unicode="&#xc4;" horiz-adv-x="748" 
d="M341 249l-88 246l-85 -246h173zM161 228l-31 -104q-10 -36 -10 -57q0 -23 11.5 -32t29.5 -12.5t35 -4.5t33 -2v-16h-282v16l59 4q33 4 50 16.5t25.5 31.5t19 45t17.5 47l191 572h110l211 -572l31 -78q14 -31 28.5 -44.5t40.5 -17.5l41 -4v-16h-475v16q12 0 21.5 0.5
t34.5 4.5t36 10.5t11 27.5q0 22 -14 63l-36 106h-188zM194 868q0 26 20 46t48 20t47 -19t19 -47q0 -30 -18 -49t-48 -19q-28 0 -48 20t-20 48zM420 868q0 26 20 46t47 20q28 0 47.5 -19.5t19.5 -46.5q0 -30 -19 -49t-48 -19q-27 0 -47 20t-20 48z" />
    <glyph glyph-name="Aring" unicode="&#xc5;" horiz-adv-x="748" 
d="M341 249l-88 246l-85 -246h173zM161 228l-31 -104q-10 -36 -10 -57q0 -23 11.5 -32t29.5 -12.5t35 -4.5t33 -2v-16h-282v16l59 4q33 4 50 16.5t25.5 31.5t19 45t17.5 47l191 572h110l211 -572l31 -78q14 -31 28.5 -44.5t40.5 -17.5l41 -4v-16h-475v16q12 0 21.5 0.5
t34.5 4.5t36 10.5t11 27.5q0 22 -14 63l-36 106h-188zM308 880q0 -28 18 -46t46 -18t46.5 17.5t18.5 46.5q0 28 -18.5 46.5t-46.5 18.5t-46 -18t-18 -47zM267 880q0 45 31 74t75 29t75.5 -28.5t31.5 -74.5q0 -44 -31.5 -73.5t-75.5 -29.5q-43 0 -74.5 29.5t-31.5 73.5z" />
    <glyph glyph-name="AE" unicode="&#xc6;" horiz-adv-x="1130" 
d="M420 375v327q0 8 -6 8q-5 0 -10 -9l-180 -326h196zM213 354q-37 -67 -73.5 -135t-49.5 -93.5t-18 -42t-5 -28.5q0 -14 9.5 -21t24.5 -11t34 -5t28 -2v-16h-269v16l48 4q40 4 71 34.5t71 105.5l249 455q23 46 23 65q0 15 -8.5 19t-28 8t-35 5t-23.5 1v16h794v-296h-16
q-51 112 -124 188.5t-123 81.5t-77.5 5.5t-48.5 1.5v-333l42 2q58 6 87.5 55t29.5 114h19v-364h-19q0 65 -29.5 116t-87.5 57l-42 2v-339q37 1 77.5 1.5t89 7t120.5 99t106 190.5h16v-318h-773v16q13 0 30 1.5t38.5 4t33 15t14.5 44.5l2 46v227h-207z" />
    <glyph glyph-name="Ccedilla" unicode="&#xc7;" horiz-adv-x="793" 
d="M443 -12q-172 0 -282.5 106.5t-110.5 269.5q0 167 109.5 271.5t282.5 104.5q74 0 128 -25l106 -60q30 0 40 20.5t14 58.5h20v-316h-17q-44 122 -62.5 165t-61.5 83t-110 40q-87 0 -129 -98t-42 -229q0 -141 50.5 -244.5t148.5 -103.5q91 0 146 66t73 172l17 -3
q-14 -120 -91 -199t-229 -79zM407 1l-45 -60q5 1 16 2t20 1q64 0 91 -29.5t27 -59.5q0 -55 -42 -77t-90 -22q-33 0 -58 13.5t-25 35.5q0 12 9.5 23.5t25.5 11.5q19 0 27 -11t8 -24q0 -9 -11 -29q14 -7 23 -7q18 0 31.5 15.5t13.5 44.5q0 37 -17.5 55.5t-52.5 18.5
q-16 0 -26.5 -3.5t-15.5 -5.5l-4 5l77 102h18z" />
    <glyph glyph-name="Egrave" unicode="&#xc8;" horiz-adv-x="868" 
d="M391 20q42 1 86 1.5t93 7t121 99t106 190.5h16v-318h-786v16q13 0 30 1.5t38.5 4t33 15t14.5 44.5l2 46v474l-2 46q-3 32 -15 45t-33.5 16t-39 3.5t-31.5 1.5v16h769v-296h-16q-51 112 -124 188.5t-122.5 81.5t-83.5 6t-45 1h-9l-2 -328l42 2q58 6 87.5 54.5t29.5 114.5
h19v-364h-19q0 67 -29.5 117t-87.5 56l-42 2v-344zM507 782l-8 -11q-34 20 -79 39t-86.5 36.5t-55.5 30.5t-14 45q0 10 2 19.5t5 13.5t19 10t34 6q29 0 88.5 -77.5t94.5 -111.5z" />
    <glyph glyph-name="Eacute" unicode="&#xc9;" horiz-adv-x="868" 
d="M391 20q42 1 86 1.5t93 7t121 99t106 190.5h16v-318h-786v16q13 0 30 1.5t38.5 4t33 15t14.5 44.5l2 46v474l-2 46q-3 32 -15 45t-33.5 16t-39 3.5t-31.5 1.5v16h769v-296h-16q-51 112 -124 188.5t-122.5 81.5t-83.5 6t-45 1h-9l-2 -328l42 2q58 6 87.5 54.5t29.5 114.5
h19v-364h-19q0 67 -29.5 117t-87.5 56l-42 2v-344zM360 782q38 37 96.5 113t86.5 76q20 0 34.5 -5.5t20 -12.5t5.5 -31q0 -32 -13.5 -45t-61.5 -33t-88 -37t-72 -36z" />
    <glyph glyph-name="Ecircumflex" unicode="&#xca;" horiz-adv-x="868" 
d="M391 20q42 1 86 1.5t93 7t121 99t106 190.5h16v-318h-786v16q13 0 30 1.5t38.5 4t33 15t14.5 44.5l2 46v474l-2 46q-3 32 -15 45t-33.5 16t-39 3.5t-31.5 1.5v16h769v-296h-16q-51 112 -124 188.5t-122.5 81.5t-83.5 6t-45 1h-9l-2 -328l42 2q58 6 87.5 54.5t29.5 114.5
h19v-364h-19q0 67 -29.5 117t-87.5 56l-42 2v-344zM584 776l-11 -8l-141 102l-141 -102l-11 8l109 181h86z" />
    <glyph glyph-name="Edieresis" unicode="&#xcb;" horiz-adv-x="868" 
d="M391 20q42 1 86 1.5t93 7t121 99t106 190.5h16v-318h-786v16q13 0 30 1.5t38.5 4t33 15t14.5 44.5l2 46v474l-2 46q-3 32 -15 45t-33.5 16t-39 3.5t-31.5 1.5v16h769v-296h-16q-51 112 -124 188.5t-122.5 81.5t-83.5 6t-45 1h-9l-2 -328l42 2q58 6 87.5 54.5t29.5 114.5
h19v-364h-19q0 67 -29.5 117t-87.5 56l-42 2v-344zM254 868q0 26 20 46t48 20t47 -19t19 -47q0 -30 -18 -49t-48 -19q-28 0 -48 20t-20 48zM480 868q0 26 20 46t47 20q28 0 47.5 -19.5t19.5 -46.5q0 -30 -19 -49t-48 -19q-27 0 -47 20t-20 48z" />
    <glyph glyph-name="Igrave" unicode="&#xcc;" horiz-adv-x="536" 
d="M502 0h-471v16q7 0 19 0.5t39.5 4t39 16.5t14.5 44l2 46v475l-2 46q-3 32 -13.5 44.5t-41.5 16.5l-54 4v16h468v-16l-54 -3q-31 -3 -41.5 -14.5t-13.5 -45.5l-2 -46v-479l2 -46q3 -33 14.5 -44.5t42.5 -15.5l52 -3v-16zM341 782l-8 -11q-34 20 -79 39t-86.5 36.5
t-55.5 30.5t-14 45q0 10 2 19.5t5 13.5t19 10t34 6q29 0 88.5 -77.5t94.5 -111.5z" />
    <glyph glyph-name="Iacute" unicode="&#xcd;" horiz-adv-x="536" 
d="M502 0h-471v16q7 0 19 0.5t39.5 4t39 16.5t14.5 44l2 46v475l-2 46q-3 32 -13.5 44.5t-41.5 16.5l-54 4v16h468v-16l-54 -3q-31 -3 -41.5 -14.5t-13.5 -45.5l-2 -46v-479l2 -46q3 -33 14.5 -44.5t42.5 -15.5l52 -3v-16zM194 782q38 37 96.5 113t86.5 76q20 0 34.5 -5.5
t20 -12.5t5.5 -31q0 -32 -13.5 -45t-61.5 -33t-88 -37t-72 -36z" />
    <glyph glyph-name="Icircumflex" unicode="&#xce;" horiz-adv-x="536" 
d="M502 0h-471v16q7 0 19 0.5t39.5 4t39 16.5t14.5 44l2 46v475l-2 46q-3 32 -13.5 44.5t-41.5 16.5l-54 4v16h468v-16l-54 -3q-31 -3 -41.5 -14.5t-13.5 -45.5l-2 -46v-479l2 -46q3 -33 14.5 -44.5t42.5 -15.5l52 -3v-16zM418 776l-11 -8l-141 102l-141 -102l-11 8l109 181
h86z" />
    <glyph glyph-name="Idieresis" unicode="&#xcf;" horiz-adv-x="536" 
d="M502 0h-471v16q7 0 19 0.5t39.5 4t39 16.5t14.5 44l2 46v475l-2 46q-3 32 -13.5 44.5t-41.5 16.5l-54 4v16h468v-16l-54 -3q-31 -3 -41.5 -14.5t-13.5 -45.5l-2 -46v-479l2 -46q3 -33 14.5 -44.5t42.5 -15.5l52 -3v-16zM88 868q0 26 20 46t48 20t47 -19t19 -47
q0 -30 -18 -49t-48 -19q-28 0 -48 20t-20 48zM314 868q0 26 20 46t47 20q28 0 47.5 -19.5t19.5 -46.5q0 -30 -19 -49t-48 -19q-27 0 -47 20t-20 48z" />
    <glyph glyph-name="Eth" unicode="&#xd0;" horiz-adv-x="941" 
d="M391 394h143l-10 -28h-133v-347q7 0 13 -0.5t15 -0.5q38 0 69.5 5t59 25.5t53 109t25.5 181.5q0 130 -31.5 232.5t-71.5 118.5t-69.5 18t-50.5 2h-12v-316zM145 366h-125l10 28h115v207l-2 46q-3 32 -15 45t-33.5 16t-39 3.5t-31.5 1.5v16l373 2q117 0 220.5 -22
t191 -112t87.5 -254q0 -157 -78.5 -231.5t-166 -93t-203.5 -18.5h-421v16q13 0 30 1.5t38.5 4t33 15t14.5 44.5l2 46v239z" />
    <glyph glyph-name="Ntilde" unicode="&#xd1;" horiz-adv-x="900" 
d="M896 713q-13 -1 -28.5 -2t-43.5 -5.5t-42.5 -23t-17.5 -50.5l-2 -48v-584h-122l-475 608h-4v-467l2 -48q3 -33 16.5 -49t41 -20.5t47 -5.5t26.5 -2v-16h-288v16q13 1 29 2t56.5 7.5t46.5 67.5l2 48v455l-2 46q-13 21 -31 39t-39.5 25t-41.5 7h-30v16h382l359 -460h4v319
l-2 48q-3 32 -16.5 48.5t-40.5 21t-43.5 5.5t-30.5 2v16h288v-16zM383 840q-32 0 -47 -11t-23 -40h-17q15 73 42.5 104.5t74.5 31.5q15 0 64 -13t55 -13q58 0 71 51h17q-15 -73 -42.5 -104.5t-74.5 -31.5q-22 0 -69.5 13t-50.5 13z" />
    <glyph glyph-name="Ograve" unicode="&#xd2;" horiz-adv-x="906" 
d="M858 364q0 -160 -121 -268t-286 -108q-172 0 -287.5 106.5t-115.5 269.5q0 168 118 272t285 104t287 -105.5t120 -270.5zM554 637q-30 84 -103 84q-37 0 -64 -24t-41.5 -69.5t-21 -117t-6.5 -146.5q0 -103 8 -168t30 -127t95 -62q37 0 64 24t41.5 69.5t21 117t6.5 146.5
q0 89 -6 154.5t-24 118.5zM526 782l-8 -11q-34 20 -79 39t-86.5 36.5t-55.5 30.5t-14 45q0 10 2 19.5t5 13.5t19 10t34 6q29 0 88.5 -77.5t94.5 -111.5z" />
    <glyph glyph-name="Oacute" unicode="&#xd3;" horiz-adv-x="906" 
d="M858 364q0 -160 -121 -268t-286 -108q-172 0 -287.5 106.5t-115.5 269.5q0 168 118 272t285 104t287 -105.5t120 -270.5zM554 637q-30 84 -103 84q-37 0 -64 -24t-41.5 -69.5t-21 -117t-6.5 -146.5q0 -103 8 -168t30 -127t95 -62q37 0 64 24t41.5 69.5t21 117t6.5 146.5
q0 89 -6 154.5t-24 118.5zM379 782q38 37 96.5 113t86.5 76q20 0 34.5 -5.5t20 -12.5t5.5 -31q0 -32 -13.5 -45t-61.5 -33t-88 -37t-72 -36z" />
    <glyph glyph-name="Ocircumflex" unicode="&#xd4;" horiz-adv-x="906" 
d="M858 364q0 -160 -121 -268t-286 -108q-172 0 -287.5 106.5t-115.5 269.5q0 168 118 272t285 104t287 -105.5t120 -270.5zM554 637q-30 84 -103 84q-37 0 -64 -24t-41.5 -69.5t-21 -117t-6.5 -146.5q0 -103 8 -168t30 -127t95 -62q37 0 64 24t41.5 69.5t21 117t6.5 146.5
q0 89 -6 154.5t-24 118.5zM600 776l-11 -8l-141 102l-141 -102l-11 8l109 181h86z" />
    <glyph glyph-name="Otilde" unicode="&#xd5;" horiz-adv-x="906" 
d="M858 364q0 -160 -121 -268t-286 -108q-172 0 -287.5 106.5t-115.5 269.5q0 168 118 272t285 104t287 -105.5t120 -270.5zM554 637q-30 84 -103 84q-37 0 -64 -24t-41.5 -69.5t-21 -117t-6.5 -146.5q0 -103 8 -168t30 -127t95 -62q37 0 64 24t41.5 69.5t21 117t6.5 146.5
q0 89 -6 154.5t-24 118.5zM386 840q-32 0 -47 -11t-23 -40h-17q15 73 42.5 104.5t74.5 31.5q15 0 64 -13t55 -13q58 0 71 51h17q-15 -73 -42.5 -104.5t-74.5 -31.5q-22 0 -69.5 13t-50.5 13z" />
    <glyph glyph-name="Odieresis" unicode="&#xd6;" horiz-adv-x="906" 
d="M858 364q0 -160 -121 -268t-286 -108q-172 0 -287.5 106.5t-115.5 269.5q0 168 118 272t285 104t287 -105.5t120 -270.5zM554 637q-30 84 -103 84q-37 0 -64 -24t-41.5 -69.5t-21 -117t-6.5 -146.5q0 -103 8 -168t30 -127t95 -62q37 0 64 24t41.5 69.5t21 117t6.5 146.5
q0 89 -6 154.5t-24 118.5zM273 868q0 26 20 46t48 20t47 -19t19 -47q0 -30 -18 -49t-48 -19q-28 0 -48 20t-20 48zM499 868q0 26 20 46t47 20q28 0 47.5 -19.5t19.5 -46.5q0 -30 -19 -49t-48 -19q-27 0 -47 20t-20 48z" />
    <glyph glyph-name="multiply" unicode="&#xd7;" horiz-adv-x="833" 
d="M421 386l225 224l57 -57l-224 -225l224 -224l-57 -58l-225 225l-224 -225l-57 58l224 224l-224 225l57 57z" />
    <glyph glyph-name="Oslash" unicode="&#xd8;" horiz-adv-x="906" 
d="M858 364q0 -160 -121 -268t-286 -108q-127 0 -232 65l-64 -82l-16 13l62 80q-72 52 -112.5 129t-40.5 171q0 168 118 272t285 104q121 0 227 -63l62 79l17 -12l-61 -78q74 -51 118 -129.5t44 -172.5zM579 526l-252 -347q5 -32 8.5 -49.5t22 -70t93.5 -52.5q37 0 65 24
t42.5 69.5t21 117t6.5 146.5q0 89 -7 162zM574 558q-5 33 -8 45.5t-21.5 65t-93.5 52.5q-37 0 -65 -24t-42.5 -69.5t-21 -117t-6.5 -146.5q0 -47 1.5 -80.5t5.5 -73.5z" />
    <glyph glyph-name="Ugrave" unicode="&#xd9;" horiz-adv-x="853" 
d="M869 713q-13 -1 -29.5 -2t-44 -5t-42 -24t-17.5 -52l-2 -48v-297l-2 -50q-15 -138 -75 -192.5t-186 -54.5q-166 0 -256 63t-90 157v394l-2 46q-3 32 -13.5 44.5t-41.5 16.5l-42 4v16h468v-16q-13 -1 -29.5 -1.5t-42.5 -4t-36 -14.5t-13 -45l-2 -46v-401q0 -12 1 -29
t6.5 -52.5t40 -70t94.5 -34.5q84 0 126.5 42.5t57 97.5t15.5 94l1 47v290l-2 48q-3 33 -16.5 50t-40.5 21.5t-45 5.5t-34 2v16h294v-16zM570 782l-8 -11q-34 20 -79 39t-86.5 36.5t-55.5 30.5t-14 45q0 10 2 19.5t5 13.5t19 10t34 6q29 0 88.5 -77.5t94.5 -111.5z" />
    <glyph glyph-name="Uacute" unicode="&#xda;" horiz-adv-x="853" 
d="M869 713q-13 -1 -29.5 -2t-44 -5t-42 -24t-17.5 -52l-2 -48v-297l-2 -50q-15 -138 -75 -192.5t-186 -54.5q-166 0 -256 63t-90 157v394l-2 46q-3 32 -13.5 44.5t-41.5 16.5l-42 4v16h468v-16q-13 -1 -29.5 -1.5t-42.5 -4t-36 -14.5t-13 -45l-2 -46v-401q0 -12 1 -29
t6.5 -52.5t40 -70t94.5 -34.5q84 0 126.5 42.5t57 97.5t15.5 94l1 47v290l-2 48q-3 33 -16.5 50t-40.5 21.5t-45 5.5t-34 2v16h294v-16zM373 782q38 37 96.5 113t86.5 76q20 0 34.5 -5.5t20 -12.5t5.5 -31q0 -32 -13.5 -45t-61.5 -33t-88 -37t-72 -36z" />
    <glyph glyph-name="Ucircumflex" unicode="&#xdb;" horiz-adv-x="853" 
d="M869 713q-13 -1 -29.5 -2t-44 -5t-42 -24t-17.5 -52l-2 -48v-297l-2 -50q-15 -138 -75 -192.5t-186 -54.5q-166 0 -256 63t-90 157v394l-2 46q-3 32 -13.5 44.5t-41.5 16.5l-42 4v16h468v-16q-13 -1 -29.5 -1.5t-42.5 -4t-36 -14.5t-13 -45l-2 -46v-401q0 -12 1 -29
t6.5 -52.5t40 -70t94.5 -34.5q84 0 126.5 42.5t57 97.5t15.5 94l1 47v290l-2 48q-3 33 -16.5 50t-40.5 21.5t-45 5.5t-34 2v16h294v-16zM627 776l-11 -8l-141 102l-141 -102l-11 8l109 181h86z" />
    <glyph glyph-name="Udieresis" unicode="&#xdc;" horiz-adv-x="853" 
d="M869 713q-13 -1 -29.5 -2t-44 -5t-42 -24t-17.5 -52l-2 -48v-297l-2 -50q-15 -138 -75 -192.5t-186 -54.5q-166 0 -256 63t-90 157v394l-2 46q-3 32 -13.5 44.5t-41.5 16.5l-42 4v16h468v-16q-13 -1 -29.5 -1.5t-42.5 -4t-36 -14.5t-13 -45l-2 -46v-401q0 -12 1 -29
t6.5 -52.5t40 -70t94.5 -34.5q84 0 126.5 42.5t57 97.5t15.5 94l1 47v290l-2 48q-3 33 -16.5 50t-40.5 21.5t-45 5.5t-34 2v16h294v-16zM297 868q0 26 20 46t48 20t47 -19t19 -47q0 -30 -18 -49t-48 -19q-28 0 -48 20t-20 48zM523 868q0 26 20 46t47 20q28 0 47.5 -19.5
t19.5 -46.5q0 -30 -19 -49t-48 -19q-27 0 -47 20t-20 48z" />
    <glyph glyph-name="Yacute" unicode="&#xdd;" horiz-adv-x="744" 
d="M524 127l2 -46q3 -32 13.5 -44.5t32 -15t39.5 -3.5t31 -2v-16h-487v16l66 3q30 3 41 15t14 45l2 46v186l-189 308q-34 53 -53.5 70t-51.5 21l-28 3v16h467v-16l-52 -2q-21 -2 -30 -6t-9 -19q0 -11 4 -21.5t20 -38t61.5 -100.5t87.5 -139q34 59 74 127.5t59.5 105
t19.5 59.5q0 27 -44 32l-40 2v16h238v-16l-26 -2q-34 0 -57 -13t-48 -51.5t-69.5 -116t-87.5 -154.5v-249zM353 782q38 37 96.5 113t86.5 76q20 0 34.5 -5.5t20 -12.5t5.5 -31q0 -32 -13.5 -45t-61.5 -33t-88 -37t-72 -36z" />
    <glyph glyph-name="Thorn" unicode="&#xde;" horiz-adv-x="814" 
d="M553 383q0 57 -15 111t-44.5 63.5t-59 10t-43.5 0.5v-378q20 1 41 2t55.5 7.5t50 61t15.5 122.5zM508 729v-16l-60 -4q-32 -4 -42 -15t-13 -45l-2 -63h100q83 0 140.5 -11.5t93.5 -35.5t57 -66.5t21 -90.5q0 -44 -15 -85.5t-44.5 -69t-72 -41t-108.5 -13.5
q-65 0 -105 -0.5t-67 -1.5v-48t2.5 -48t14 -38.5t33.5 -15.5t43 -3.5t29 -1.5v-16h-488v16h31q21 3 41 5.5t31.5 15t14.5 44.5l2 46v474l-2 46q-3 32 -15 45t-33.5 16t-39 3.5t-31.5 1.5v16h484z" />
    <glyph glyph-name="germandbls" unicode="&#xdf;" horiz-adv-x="634" 
d="M342 17q-23 20 -28 45t-5 83h14q0 -52 5 -75t31 -23q18 0 25.5 13.5t12.5 50.5t5 99q0 51 -1.5 74.5t-8 55t-27.5 51t-66 19.5v15q35 4 48 20t17 49.5t5 46.5t1 35q0 18 -0.5 33.5t-4.5 45.5t-9 48t-37 18q-33 0 -41.5 -32t-8.5 -89l-2 -105v-495h-258v16l24 1
q29 3 35 14t6 48l1 46v311h-73l16 38h57q0 22 1.5 46.5t1.5 28.5q0 71 79.5 130.5t181.5 59.5q124 0 171.5 -51t47.5 -107q0 -74 -47.5 -115.5t-147.5 -41.5v-10q136 0 194.5 -60.5t58.5 -155.5q0 -88 -53 -148t-131 -60q-31 0 -51 5t-39 22z" />
    <glyph glyph-name="agrave" unicode="&#xe0;" horiz-adv-x="575" 
d="M530 50q24 0 33.5 29.5t9.5 70.5h14q0 -88 -31.5 -116t-56.5 -35.5t-64 -7.5q-43 0 -76.5 22t-40.5 59q-16 -41 -53.5 -61.5t-97.5 -20.5q-64 0 -104 35t-40 97q0 50 25 80.5t51 37.5t80 12t79.5 11.5t36.5 14t11 25.5l-1 91q0 39 -10 56t-42 17q-20 0 -33.5 -9
t-13.5 -23q0 -11 21.5 -27.5t21.5 -49.5q0 -31 -27.5 -55t-89.5 -24q-34 0 -59.5 18.5t-25.5 49.5q0 62 69.5 99t165.5 37q81 0 149 -33.5t68 -103.5v-229q0 -32 6 -49q5 -18 25 -18zM306 79v191l-3 1q-9 -12 -33.5 -22.5t-34 -20.5t-15 -38.5t-5.5 -58.5q0 -45 7 -72
t32 -27q19 0 33.5 15t18.5 32zM361 532l-8 -11q-34 20 -79 39t-86.5 36.5t-55.5 30.5t-14 45q0 10 2 19.5t5 13.5t19 10t34 6q29 0 88.5 -77.5t94.5 -111.5z" />
    <glyph glyph-name="aacute" unicode="&#xe1;" horiz-adv-x="575" 
d="M530 50q24 0 33.5 29.5t9.5 70.5h14q0 -88 -31.5 -116t-56.5 -35.5t-64 -7.5q-43 0 -76.5 22t-40.5 59q-16 -41 -53.5 -61.5t-97.5 -20.5q-64 0 -104 35t-40 97q0 50 25 80.5t51 37.5t80 12t79.5 11.5t36.5 14t11 25.5l-1 91q0 39 -10 56t-42 17q-20 0 -33.5 -9
t-13.5 -23q0 -11 21.5 -27.5t21.5 -49.5q0 -31 -27.5 -55t-89.5 -24q-34 0 -59.5 18.5t-25.5 49.5q0 62 69.5 99t165.5 37q81 0 149 -33.5t68 -103.5v-229q0 -32 6 -49q5 -18 25 -18zM306 79v191l-3 1q-9 -12 -33.5 -22.5t-34 -20.5t-15 -38.5t-5.5 -58.5q0 -45 7 -72
t32 -27q19 0 33.5 15t18.5 32zM214 532q38 37 96.5 113t86.5 76q20 0 34.5 -5.5t20 -12.5t5.5 -31q0 -32 -13.5 -45t-61.5 -33t-88 -37t-72 -36z" />
    <glyph glyph-name="acircumflex" unicode="&#xe2;" horiz-adv-x="575" 
d="M530 50q24 0 33.5 29.5t9.5 70.5h14q0 -88 -31.5 -116t-56.5 -35.5t-64 -7.5q-43 0 -76.5 22t-40.5 59q-16 -41 -53.5 -61.5t-97.5 -20.5q-64 0 -104 35t-40 97q0 50 25 80.5t51 37.5t80 12t79.5 11.5t36.5 14t11 25.5l-1 91q0 39 -10 56t-42 17q-20 0 -33.5 -9
t-13.5 -23q0 -11 21.5 -27.5t21.5 -49.5q0 -31 -27.5 -55t-89.5 -24q-34 0 -59.5 18.5t-25.5 49.5q0 62 69.5 99t165.5 37q81 0 149 -33.5t68 -103.5v-229q0 -32 6 -49q5 -18 25 -18zM306 79v191l-3 1q-9 -12 -33.5 -22.5t-34 -20.5t-15 -38.5t-5.5 -58.5q0 -45 7 -72
t32 -27q19 0 33.5 15t18.5 32zM438 526l-11 -8l-141 102l-141 -102l-11 8l109 181h86z" />
    <glyph glyph-name="atilde" unicode="&#xe3;" horiz-adv-x="575" 
d="M530 50q24 0 33.5 29.5t9.5 70.5h14q0 -88 -31.5 -116t-56.5 -35.5t-64 -7.5q-43 0 -76.5 22t-40.5 59q-16 -41 -53.5 -61.5t-97.5 -20.5q-64 0 -104 35t-40 97q0 50 25 80.5t51 37.5t80 12t79.5 11.5t36.5 14t11 25.5l-1 91q0 39 -10 56t-42 17q-20 0 -33.5 -9
t-13.5 -23q0 -11 21.5 -27.5t21.5 -49.5q0 -31 -27.5 -55t-89.5 -24q-34 0 -59.5 18.5t-25.5 49.5q0 62 69.5 99t165.5 37q81 0 149 -33.5t68 -103.5v-229q0 -32 6 -49q5 -18 25 -18zM306 79v191l-3 1q-9 -12 -33.5 -22.5t-34 -20.5t-15 -38.5t-5.5 -58.5q0 -45 7 -72
t32 -27q19 0 33.5 15t18.5 32zM221 590q-32 0 -47 -11t-23 -40h-17q15 73 42.5 104.5t74.5 31.5q15 0 64 -13t55 -13q58 0 71 51h17q-15 -73 -42.5 -104.5t-74.5 -31.5q-22 0 -69.5 13t-50.5 13z" />
    <glyph glyph-name="adieresis" unicode="&#xe4;" horiz-adv-x="575" 
d="M530 50q24 0 33.5 29.5t9.5 70.5h14q0 -88 -31.5 -116t-56.5 -35.5t-64 -7.5q-43 0 -76.5 22t-40.5 59q-16 -41 -53.5 -61.5t-97.5 -20.5q-64 0 -104 35t-40 97q0 50 25 80.5t51 37.5t80 12t79.5 11.5t36.5 14t11 25.5l-1 91q0 39 -10 56t-42 17q-20 0 -33.5 -9
t-13.5 -23q0 -11 21.5 -27.5t21.5 -49.5q0 -31 -27.5 -55t-89.5 -24q-34 0 -59.5 18.5t-25.5 49.5q0 62 69.5 99t165.5 37q81 0 149 -33.5t68 -103.5v-229q0 -32 6 -49q5 -18 25 -18zM306 79v191l-3 1q-9 -12 -33.5 -22.5t-34 -20.5t-15 -38.5t-5.5 -58.5q0 -45 7 -72
t32 -27q19 0 33.5 15t18.5 32zM108 618q0 26 20 46t48 20t47 -19t19 -47q0 -30 -18 -49t-48 -19q-28 0 -48 20t-20 48zM334 618q0 26 20 46t47 20q28 0 47.5 -19.5t19.5 -46.5q0 -30 -19 -49t-48 -19q-27 0 -47 20t-20 48z" />
    <glyph glyph-name="aring" unicode="&#xe5;" horiz-adv-x="575" 
d="M530 50q24 0 33.5 29.5t9.5 70.5h14q0 -88 -31.5 -116t-56.5 -35.5t-64 -7.5q-43 0 -76.5 22t-40.5 59q-16 -41 -53.5 -61.5t-97.5 -20.5q-64 0 -104 35t-40 97q0 50 25 80.5t51 37.5t80 12t79.5 11.5t36.5 14t11 25.5l-1 91q0 39 -10 56t-42 17q-20 0 -33.5 -9
t-13.5 -23q0 -11 21.5 -27.5t21.5 -49.5q0 -31 -27.5 -55t-89.5 -24q-34 0 -59.5 18.5t-25.5 49.5q0 62 69.5 99t165.5 37q81 0 149 -33.5t68 -103.5v-229q0 -32 6 -49q5 -18 25 -18zM306 79v191l-3 1q-9 -12 -33.5 -22.5t-34 -20.5t-15 -38.5t-5.5 -58.5q0 -45 7 -72
t32 -27q19 0 33.5 15t18.5 32zM222 630q0 -28 18 -46t46 -18t46.5 17.5t18.5 46.5q0 28 -18.5 46.5t-46.5 18.5t-46 -18t-18 -47zM181 630q0 45 31 74t75 29t75.5 -28.5t31.5 -74.5q0 -44 -31.5 -73.5t-75.5 -29.5q-43 0 -74.5 29.5t-31.5 73.5z" />
    <glyph glyph-name="ae" unicode="&#xe6;" horiz-adv-x="812" 
d="M627 280q-1 11 -1.5 26t-0.5 38q-5 63 -17 93.5t-46 30.5q-32 0 -45 -31t-18 -91l-2 -66h130zM307 271q-10 -12 -35.5 -22.5t-35.5 -20.5t-15.5 -38.5t-5.5 -58.5q0 -37 13.5 -65t40.5 -28q36 0 53.5 24t17.5 46q-10 22 -19 45q-14 46 -14 118zM353 87
q-15 -44 -55.5 -70.5t-110.5 -26.5q-77 0 -120.5 34.5t-43.5 97.5q0 50 25 80.5t51 37.5t80 12t80 12t37 14t11 25v90q0 38 -11 56.5t-42 18.5q-20 0 -34.5 -9.5t-14.5 -22.5q0 -10 21.5 -27.5t21.5 -49.5q0 -31 -27.5 -55t-89.5 -24q-34 0 -59.5 18.5t-25.5 49.5
q0 62 69.5 99t161.5 37q45 0 88 -9.5t75 -34.5q21 19 57.5 31.5t70.5 12.5q118 0 175.5 -64t57.5 -160h-304q0 -33 6.5 -71.5t22.5 -74t44 -57t71 -21.5q58 0 91 32t56 88l15 -7q-27 -75 -86.5 -117t-144.5 -42q-73 0 -129 26t-90 71z" />
    <glyph glyph-name="ccedilla" unicode="&#xe7;" horiz-adv-x="533" 
d="M314 468q-28 0 -47 -22t-29.5 -54t-15 -69.5t-4.5 -72.5q0 -91 30.5 -158.5t107.5 -67.5q55 0 96 34.5t62 87.5l15 -8q-67 -148 -240 -148q-114 0 -194 67.5t-80 178.5q0 112 78.5 180t195.5 68q44 0 81 -9.5t69.5 -26t62 -47t29.5 -71.5q0 -37 -23 -59.5t-68 -22.5
q-39 0 -70.5 27.5t-31.5 62.5q0 27 11 52t11 42q0 16 -12 26t-34 10zM277 1l-45 -60q5 1 16 2t20 1q64 0 91 -29.5t27 -59.5q0 -55 -42 -77t-90 -22q-33 0 -58 13.5t-25 35.5q0 12 9.5 23.5t25.5 11.5q19 0 27 -11t8 -24q0 -9 -11 -29q14 -7 23 -7q18 0 31.5 15.5t13.5 44.5
q0 37 -17.5 55.5t-52.5 18.5q-16 0 -26.5 -3.5t-15.5 -5.5l-4 5l77 102h18z" />
    <glyph glyph-name="egrave" unicode="&#xe8;" horiz-adv-x="530" 
d="M521 150q-28 -75 -90 -117.5t-146 -42.5q-118 0 -194 65.5t-76 181.5q0 108 78.5 177.5t188.5 69.5q115 0 176 -65t61 -159h-307q0 -36 5.5 -73.5t21 -72.5t44 -56.5t71.5 -21.5q61 0 96.5 34.5t54.5 86.5zM345 280q-1 11 -1.5 26t-0.5 38q0 61 -15 92.5t-52 31.5
q-32 0 -44.5 -30.5t-17.5 -93.5l-2 -64h133zM398 532l-8 -11q-34 20 -79 39t-86.5 36.5t-55.5 30.5t-14 45q0 10 2 19.5t5 13.5t19 10t34 6q29 0 88.5 -77.5t94.5 -111.5z" />
    <glyph glyph-name="eacute" unicode="&#xe9;" horiz-adv-x="530" 
d="M521 150q-28 -75 -90 -117.5t-146 -42.5q-118 0 -194 65.5t-76 181.5q0 108 78.5 177.5t188.5 69.5q115 0 176 -65t61 -159h-307q0 -36 5.5 -73.5t21 -72.5t44 -56.5t71.5 -21.5q61 0 96.5 34.5t54.5 86.5zM345 280q-1 11 -1.5 26t-0.5 38q0 61 -15 92.5t-52 31.5
q-32 0 -44.5 -30.5t-17.5 -93.5l-2 -64h133zM191 532q38 37 96.5 113t86.5 76q20 0 34.5 -5.5t20 -12.5t5.5 -31q0 -32 -13.5 -45t-61.5 -33t-88 -37t-72 -36z" />
    <glyph glyph-name="ecircumflex" unicode="&#xea;" horiz-adv-x="530" 
d="M521 150q-28 -75 -90 -117.5t-146 -42.5q-118 0 -194 65.5t-76 181.5q0 108 78.5 177.5t188.5 69.5q115 0 176 -65t61 -159h-307q0 -36 5.5 -73.5t21 -72.5t44 -56.5t71.5 -21.5q61 0 96.5 34.5t54.5 86.5zM345 280q-1 11 -1.5 26t-0.5 38q0 61 -15 92.5t-52 31.5
q-32 0 -44.5 -30.5t-17.5 -93.5l-2 -64h133zM415 526l-11 -8l-141 102l-141 -102l-11 8l109 181h86z" />
    <glyph glyph-name="edieresis" unicode="&#xeb;" horiz-adv-x="530" 
d="M521 150q-28 -75 -90 -117.5t-146 -42.5q-118 0 -194 65.5t-76 181.5q0 108 78.5 177.5t188.5 69.5q115 0 176 -65t61 -159h-307q0 -36 5.5 -73.5t21 -72.5t44 -56.5t71.5 -21.5q61 0 96.5 34.5t54.5 86.5zM345 280q-1 11 -1.5 26t-0.5 38q0 61 -15 92.5t-52 31.5
q-32 0 -44.5 -30.5t-17.5 -93.5l-2 -64h133zM85 618q0 26 20 46t48 20t47 -19t19 -47q0 -30 -18 -49t-48 -19q-28 0 -48 20t-20 48zM311 618q0 26 20 46t47 20q28 0 47.5 -19.5t19.5 -46.5q0 -30 -19 -49t-48 -19q-27 0 -47 20t-20 48z" />
    <glyph glyph-name="igrave" unicode="&#xec;" horiz-adv-x="340" 
d="M332 0h-324v16l24 1q29 3 35 14t6 48l1 46v239l-1 41q-2 24 -6 36t-36 15l-27 2v16h262v-349l1 -46q0 -36 6 -47.5t35 -14.5l24 -1v-16zM243 532l-8 -11q-34 20 -79 39t-86.5 36.5t-55.5 30.5t-14 45q0 10 2 19.5t5 13.5t19 10t34 6q29 0 88.5 -77.5t94.5 -111.5z" />
    <glyph glyph-name="iacute" unicode="&#xed;" horiz-adv-x="340" 
d="M332 0h-324v16l24 1q29 3 35 14t6 48l1 46v239l-1 41q-2 24 -6 36t-36 15l-27 2v16h262v-349l1 -46q0 -36 6 -47.5t35 -14.5l24 -1v-16zM96 532q38 37 96.5 113t86.5 76q20 0 34.5 -5.5t20 -12.5t5.5 -31q0 -32 -13.5 -45t-61.5 -33t-88 -37t-72 -36z" />
    <glyph glyph-name="icircumflex" unicode="&#xee;" horiz-adv-x="340" 
d="M332 0h-324v16l24 1q29 3 35 14t6 48l1 46v239l-1 41q-2 24 -6 36t-36 15l-27 2v16h262v-349l1 -46q0 -36 6 -47.5t35 -14.5l24 -1v-16zM320 526l-11 -8l-141 102l-141 -102l-11 8l109 181h86z" />
    <glyph glyph-name="idieresis" unicode="&#xef;" horiz-adv-x="340" 
d="M332 0h-324v16l24 1q29 3 35 14t6 48l1 46v239l-1 41q-2 24 -6 36t-36 15l-27 2v16h262v-349l1 -46q0 -36 6 -47.5t35 -14.5l24 -1v-16zM-10 618q0 26 20 46t48 20t47 -19t19 -47q0 -30 -18 -49t-48 -19q-28 0 -48 20t-20 48zM216 618q0 26 20 46t47 20q28 0 47.5 -19.5
t19.5 -46.5q0 -30 -19 -49t-48 -19q-27 0 -47 20t-20 48z" />
    <glyph glyph-name="eth" unicode="&#xf0;" horiz-adv-x="574" 
d="M360 238q0 27 -1 52.5t-6.5 69.5t-20 76t-48.5 32q-33 0 -49 -35t-16 -90q0 -19 -2 -56t-2 -49q0 -14 2 -57.5t2 -50.5q0 -56 16 -90t50 -34q33 0 48 32t21 90.5t6 109.5zM257 589l-111 -63l-12 20l108 61q-35 38 -73.5 63.5t-64 33t-42.5 8t-33 1.5v16h245
q26 -14 44.5 -25.5t41.5 -28.5l88 50l12 -19l-81 -46q36 -34 62 -64.5t57.5 -83.5t44 -109.5t12.5 -121.5q0 -129 -80 -210t-190 -81q-115 0 -192 69t-77 180q0 108 75.5 175.5t186.5 67.5q14 0 24 -2.5t19 -6.5l2 3q-15 35 -29 60t-37 53z" />
    <glyph glyph-name="ntilde" unicode="&#xf1;" horiz-adv-x="653" 
d="M396 329l-1 41q0 78 -55 78q-35 0 -49.5 -22t-23.5 -45v-256l1 -46q0 -41 7.5 -52t44.5 -11v-16h-311v16l24 1q29 3 35 14t6 48l1 46v239l-1 41q-2 24 -6 36t-36 15l-23 2v16h254v-75q11 28 39.5 56.5t110.5 28.5q71 0 123 -40t52 -94v-225l1 -46q0 -36 6 -47.5t35 -14.5
l22 -1v-16h-309v16q36 0 44 11.5t8 51.5l1 46v204zM260 590q-32 0 -47 -11t-23 -40h-17q15 73 42.5 104.5t74.5 31.5q15 0 64 -13t55 -13q58 0 71 51h17q-15 -73 -42.5 -104.5t-74.5 -31.5q-22 0 -69.5 13t-50.5 13z" />
    <glyph glyph-name="ograve" unicode="&#xf2;" horiz-adv-x="570" 
d="M555 237q0 -106 -80.5 -176.5t-189.5 -70.5q-115 0 -192.5 70.5t-77.5 176.5t78.5 176.5t191.5 70.5q111 0 190.5 -70t79.5 -177zM356 238q0 14 -2 56t-2 50q0 54 -16.5 89t-51.5 35q-32 0 -49 -36.5t-17 -87.5q0 -19 -1.5 -46.5t-2.5 -59.5q0 -14 2 -57.5t2 -50.5
q0 -54 16.5 -89t50.5 -35q33 0 50 36t17 88q0 20 1 47.5t3 60.5zM358 532l-8 -11q-34 20 -79 39t-86.5 36.5t-55.5 30.5t-14 45q0 10 2 19.5t5 13.5t19 10t34 6q29 0 88.5 -77.5t94.5 -111.5z" />
    <glyph glyph-name="oacute" unicode="&#xf3;" horiz-adv-x="570" 
d="M555 237q0 -106 -80.5 -176.5t-189.5 -70.5q-115 0 -192.5 70.5t-77.5 176.5t78.5 176.5t191.5 70.5q111 0 190.5 -70t79.5 -177zM356 238q0 14 -2 56t-2 50q0 54 -16.5 89t-51.5 35q-32 0 -49 -36.5t-17 -87.5q0 -19 -1.5 -46.5t-2.5 -59.5q0 -14 2 -57.5t2 -50.5
q0 -54 16.5 -89t50.5 -35q33 0 50 36t17 88q0 20 1 47.5t3 60.5zM211 532q38 37 96.5 113t86.5 76q20 0 34.5 -5.5t20 -12.5t5.5 -31q0 -32 -13.5 -45t-61.5 -33t-88 -37t-72 -36z" />
    <glyph glyph-name="ocircumflex" unicode="&#xf4;" horiz-adv-x="570" 
d="M555 237q0 -106 -80.5 -176.5t-189.5 -70.5q-115 0 -192.5 70.5t-77.5 176.5t78.5 176.5t191.5 70.5q111 0 190.5 -70t79.5 -177zM356 238q0 14 -2 56t-2 50q0 54 -16.5 89t-51.5 35q-32 0 -49 -36.5t-17 -87.5q0 -19 -1.5 -46.5t-2.5 -59.5q0 -14 2 -57.5t2 -50.5
q0 -54 16.5 -89t50.5 -35q33 0 50 36t17 88q0 20 1 47.5t3 60.5zM435 526l-11 -8l-141 102l-141 -102l-11 8l109 181h86z" />
    <glyph glyph-name="otilde" unicode="&#xf5;" horiz-adv-x="570" 
d="M555 237q0 -106 -80.5 -176.5t-189.5 -70.5q-115 0 -192.5 70.5t-77.5 176.5t78.5 176.5t191.5 70.5q111 0 190.5 -70t79.5 -177zM356 238q0 14 -2 56t-2 50q0 54 -16.5 89t-51.5 35q-32 0 -49 -36.5t-17 -87.5q0 -19 -1.5 -46.5t-2.5 -59.5q0 -14 2 -57.5t2 -50.5
q0 -54 16.5 -89t50.5 -35q33 0 50 36t17 88q0 20 1 47.5t3 60.5zM218 590q-32 0 -47 -11t-23 -40h-17q15 73 42.5 104.5t74.5 31.5q15 0 64 -13t55 -13q58 0 71 51h17q-15 -73 -42.5 -104.5t-74.5 -31.5q-22 0 -69.5 13t-50.5 13z" />
    <glyph glyph-name="odieresis" unicode="&#xf6;" horiz-adv-x="570" 
d="M555 237q0 -106 -80.5 -176.5t-189.5 -70.5q-115 0 -192.5 70.5t-77.5 176.5t78.5 176.5t191.5 70.5q111 0 190.5 -70t79.5 -177zM356 238q0 14 -2 56t-2 50q0 54 -16.5 89t-51.5 35q-32 0 -49 -36.5t-17 -87.5q0 -19 -1.5 -46.5t-2.5 -59.5q0 -14 2 -57.5t2 -50.5
q0 -54 16.5 -89t50.5 -35q33 0 50 36t17 88q0 20 1 47.5t3 60.5zM105 618q0 26 20 46t48 20t47 -19t19 -47q0 -30 -18 -49t-48 -19q-28 0 -48 20t-20 48zM331 618q0 26 20 46t47 20q28 0 47.5 -19.5t19.5 -46.5q0 -30 -19 -49t-48 -19q-27 0 -47 20t-20 48z" />
    <glyph glyph-name="divide" unicode="&#xf7;" horiz-adv-x="833" 
d="M416 591q30 0 51 -21t21 -52q0 -30 -20.5 -50.5t-51.5 -20.5q-30 0 -51 20t-21 51q0 30 21.5 51.5t50.5 21.5zM701 369v-81h-569v81h569zM418 209q30 0 51 -21t21 -51t-20.5 -50.5t-51.5 -20.5q-30 0 -51 20t-21 51q0 30 21 51t51 21z" />
    <glyph glyph-name="oslash" unicode="&#xf8;" horiz-adv-x="570" 
d="M356 319l-140 -192q5 -55 20.5 -88.5t48.5 -33.5t51 36.5t18 87.5q0 27 1.5 58.5t2.5 50.5zM214 158l139 193q0 50 -17.5 83.5t-51.5 33.5q-33 0 -50.5 -36.5t-17.5 -87.5q0 -19 -1.5 -46.5t-2.5 -59.5zM138 29l-61 -78l-16 13l59 76q-50 35 -77.5 85t-27.5 112
q0 106 78.5 176.5t191.5 70.5q80 0 148 -41l57 74l17 -12l-56 -73q49 -34 76.5 -84t27.5 -111q0 -107 -80 -177.5t-190 -70.5q-80 0 -147 40z" />
    <glyph glyph-name="ugrave" unicode="&#xf9;" horiz-adv-x="652" 
d="M652 0h-262v64q-23 -36 -56.5 -55t-92.5 -19q-69 0 -122 41q-54 40 -54 111v222l-1 41q0 27 -8.5 37.5t-36.5 13.5l-28 2v16h266v-327l1 -41q0 -41 14.5 -61.5t43.5 -20.5q32 0 46.5 18t23.5 37v270l-2 46q0 33 -11 45t-44 16l-31 2v16h280v-364l1 -41q0 -27 8.5 -37.5
t36.5 -13.5l28 -2v-16zM399 532l-8 -11q-34 20 -79 39t-86.5 36.5t-55.5 30.5t-14 45q0 10 2 19.5t5 13.5t19 10t34 6q29 0 88.5 -77.5t94.5 -111.5z" />
    <glyph glyph-name="uacute" unicode="&#xfa;" horiz-adv-x="652" 
d="M652 0h-262v64q-23 -36 -56.5 -55t-92.5 -19q-69 0 -122 41q-54 40 -54 111v222l-1 41q0 27 -8.5 37.5t-36.5 13.5l-28 2v16h266v-327l1 -41q0 -41 14.5 -61.5t43.5 -20.5q32 0 46.5 18t23.5 37v270l-2 46q0 33 -11 45t-44 16l-31 2v16h280v-364l1 -41q0 -27 8.5 -37.5
t36.5 -13.5l28 -2v-16zM252 532q38 37 96.5 113t86.5 76q20 0 34.5 -5.5t20 -12.5t5.5 -31q0 -32 -13.5 -45t-61.5 -33t-88 -37t-72 -36z" />
    <glyph glyph-name="ucircumflex" unicode="&#xfb;" horiz-adv-x="652" 
d="M652 0h-262v64q-23 -36 -56.5 -55t-92.5 -19q-69 0 -122 41q-54 40 -54 111v222l-1 41q0 27 -8.5 37.5t-36.5 13.5l-28 2v16h266v-327l1 -41q0 -41 14.5 -61.5t43.5 -20.5q32 0 46.5 18t23.5 37v270l-2 46q0 33 -11 45t-44 16l-31 2v16h280v-364l1 -41q0 -27 8.5 -37.5
t36.5 -13.5l28 -2v-16zM476 526l-11 -8l-141 102l-141 -102l-11 8l109 181h86z" />
    <glyph glyph-name="udieresis" unicode="&#xfc;" horiz-adv-x="652" 
d="M652 0h-262v64q-23 -36 -56.5 -55t-92.5 -19q-69 0 -122 41q-54 40 -54 111v222l-1 41q0 27 -8.5 37.5t-36.5 13.5l-28 2v16h266v-327l1 -41q0 -41 14.5 -61.5t43.5 -20.5q32 0 46.5 18t23.5 37v270l-2 46q0 33 -11 45t-44 16l-31 2v16h280v-364l1 -41q0 -27 8.5 -37.5
t36.5 -13.5l28 -2v-16zM146 618q0 26 20 46t48 20t47 -19t19 -47q0 -30 -18 -49t-48 -19q-28 0 -48 20t-20 48zM372 618q0 26 20 46t47 20q28 0 47.5 -19.5t19.5 -46.5q0 -30 -19 -49t-48 -19q-27 0 -47 20t-20 48z" />
    <glyph glyph-name="yacute" unicode="&#xfd;" horiz-adv-x="503" 
d="M61 406q-12 25 -20 35.5t-21 13.5l-39 3v16h327v-16h-15q-8 0 -20.5 -2.5t-12.5 -20.5q0 -8 4 -20.5t8 -24.5l78 -186q10 24 32 78.5t35 92.5t13 55q0 13 -4.5 18t-24.5 8l-32 2v16h167v-16q-6 0 -12.5 -0.5t-24 -3.5t-29.5 -18t-44.5 -98t-70 -176t-84 -193t-87 -150
t-108.5 -50q-40 0 -73.5 27t-33.5 70q0 40 27 68t69 28q43 0 67 -25t24 -59t-19 -55t-19 -25q9 1 19 2q22 10 42.5 38t36.5 58t34 71q-22 52 -54.5 128.5t-72 168.5t-62.5 142zM252 532q38 37 96.5 113t86.5 76q20 0 34.5 -5.5t20 -12.5t5.5 -31q0 -32 -13.5 -45t-61.5 -33
t-88 -37t-72 -36z" />
    <glyph glyph-name="thorn" unicode="&#xfe;" horiz-adv-x="616" 
d="M262 69q4 -25 22.5 -38t41.5 -13q45 0 59 61.5t14 159.5q0 104 -13.5 160t-61.5 56q-20 0 -38.5 -16.5t-21.5 -41.5t-4 -64t-1 -77v-21v-89.5t3 -76.5zM-14 -231v16l35 2q29 3 37 12.5t8 38.5l1 41v740l-1 41q0 28 -8.5 38t-37.5 13l-32 2v16h271v-244l-2 -69
q11 23 35.5 45.5t92.5 22.5q96 0 156 -67t60 -182q0 -111 -60 -178t-156 -67q-70 0 -93 19t-34 40l1 -64v-100l2 -46q0 -30 10.5 -38.5t44.5 -12.5l48 -3v-16h-378z" />
    <glyph glyph-name="ydieresis" unicode="&#xff;" horiz-adv-x="503" 
d="M61 406q-12 25 -20 35.5t-21 13.5l-39 3v16h327v-16h-15q-8 0 -20.5 -2.5t-12.5 -20.5q0 -8 4 -20.5t8 -24.5l78 -186q10 24 32 78.5t35 92.5t13 55q0 13 -4.5 18t-24.5 8l-32 2v16h167v-16q-6 0 -12.5 -0.5t-24 -3.5t-29.5 -18t-44.5 -98t-70 -176t-84 -193t-87 -150
t-108.5 -50q-40 0 -73.5 27t-33.5 70q0 40 27 68t69 28q43 0 67 -25t24 -59t-19 -55t-19 -25q9 1 19 2q22 10 42.5 38t36.5 58t34 71q-22 52 -54.5 128.5t-72 168.5t-62.5 142zM72 618q0 26 20 46t48 20t47 -19t19 -47q0 -30 -18 -49t-48 -19q-28 0 -48 20t-20 48zM298 618
q0 26 20 46t47 20q28 0 47.5 -19.5t19.5 -46.5q0 -30 -19 -49t-48 -19q-27 0 -47 20t-20 48z" />
    <glyph glyph-name="lessequal" unicode="&#x106;" horiz-adv-x="793" 
d="M443 -12q-172 0 -282.5 106.5t-110.5 269.5q0 167 109.5 271.5t282.5 104.5q74 0 128 -25l106 -60q30 0 40 20.5t14 58.5h20v-316h-17q-44 122 -62.5 165t-61.5 83t-110 40q-87 0 -129 -98t-42 -229q0 -141 50.5 -244.5t148.5 -103.5q91 0 146 66t73 172l17 -3
q-14 -120 -91 -199t-229 -79zM326 782q38 37 96.5 113t86.5 76q20 0 34.5 -5.5t20 -12.5t5.5 -31q0 -32 -13.5 -45t-61.5 -33t-88 -37t-72 -36z" />
    <glyph glyph-name="greaterequal" unicode="&#x107;" horiz-adv-x="533" 
d="M314 468q-28 0 -47 -22t-29.5 -54t-15 -69.5t-4.5 -72.5q0 -91 30.5 -158.5t107.5 -67.5q55 0 96 34.5t62 87.5l15 -8q-67 -148 -240 -148q-114 0 -194 67.5t-80 178.5q0 112 78.5 180t195.5 68q44 0 81 -9.5t69.5 -26t62 -47t29.5 -71.5q0 -37 -23 -59.5t-68 -22.5
q-39 0 -70.5 27.5t-31.5 62.5q0 27 11 52t11 42q0 16 -12 26t-34 10zM176 532q38 37 96.5 113t86.5 76q20 0 34.5 -5.5t20 -12.5t5.5 -31q0 -32 -13.5 -45t-61.5 -33t-88 -37t-72 -36z" />
    <glyph glyph-name="product" unicode="&#x10d;" horiz-adv-x="533" 
d="M314 468q-28 0 -47 -22t-29.5 -54t-15 -69.5t-4.5 -72.5q0 -91 30.5 -158.5t107.5 -67.5q55 0 96 34.5t62 87.5l15 -8q-67 -148 -240 -148q-114 0 -194 67.5t-80 178.5q0 112 78.5 180t195.5 68q44 0 81 -9.5t69.5 -26t62 -47t29.5 -71.5q0 -37 -23 -59.5t-68 -22.5
q-39 0 -70.5 27.5t-31.5 62.5q0 27 11 52t11 42q0 16 -12 26t-34 10zM400 714l-109 -181h-86l-109 181l13 7l139 -101l141 102z" />
    <glyph glyph-name="partialdiff" unicode="&#x111;" horiz-adv-x="621" 
d="M357 568h-141l10 28h131l-2 53q-3 34 -12.5 45.5t-40.5 15.5l-47 3v16h294v-133h111l-10 -28h-101v-458l1 -41q0 -28 8.5 -38t37.5 -13l32 -2v-16h-269v52q-11 -20 -35.5 -40t-92.5 -20q-96 0 -156 66.5t-60 180.5q0 111 60 178t156 67q71 0 94 -19t33 -40l-1 52v91z
M354 405q-4 25 -22 38t-42 13q-31 0 -46.5 -29.5t-20 -67t-5.5 -68t-1 -56.5v-45q0 -19 4.5 -66t20 -77t47.5 -30q55 0 64 53q2 23 3 81.5t1 87.5v92q0 42 -3 74z" />
    <glyph glyph-name="pi" unicode="&#x11e;" horiz-adv-x="909" 
d="M327 379q0 -158 31 -262.5t108 -104.5q38 0 58 15t25 33.5t6 43.5t1 62v39q0 43 -3 58q-3 33 -13.5 45t-32.5 15t-40 3.5t-33 1.5v16h468v-16l-46 -3q-31 -3 -41.5 -14.5t-13.5 -45.5l-2 -47v-131l2 -90h-15q-13 29 -45.5 53t-71.5 24q-35 0 -100 -43t-172 -43
q-148 0 -249 107t-101 269q0 170 111 273t283 103q94 0 178 -42t94 -44q29 0 39 21.5t19 61.5h20v-323h-17q-30 124 -99.5 210t-177.5 86q-86 0 -128 -99.5t-42 -231.5zM277 971h15q5 -38 40 -66t86 -28q53 0 88 27t41 68h15q0 -83 -40.5 -134.5t-102.5 -51.5
q-64 0 -103 50.5t-39 134.5z" />
    <glyph glyph-name="integral" unicode="&#x11f;" horiz-adv-x="540" 
d="M118 -81q-28 -4 -40.5 -16.5t-12.5 -36.5q0 -40 58.5 -60.5t134.5 -20.5q95 0 153 21t58 67q0 28 -26 37t-74 9h-251zM291 314l-3 73q0 37 -10 59t-35 22q-23 0 -33.5 -22.5t-10.5 -58.5l-3 -73l3 -73q0 -35 11 -57.5t34 -22.5t33.5 22t10.5 58zM392 429q11 25 34 40
t56 15q35 0 56 -18t21 -49q0 -24 -16 -40t-42 -16q-24 0 -40.5 13.5t-16.5 39.5q0 14 9.5 26.5t9.5 18.5q0 4 -8 4q-13 0 -29 -10.5t-26 -31.5q18 -19 28 -47.5t10 -59.5q0 -76 -58 -122.5t-136 -46.5q-48 0 -94 19q-21 2 -40 -7t-19 -29q0 -14 15 -21q14 -8 32 -8h213
q82 0 131 -47t49 -118q0 -87 -82.5 -128t-193.5 -41q-91 0 -159.5 22t-68.5 77q0 26 20.5 41.5t51.5 21.5q-40 23 -62.5 51.5t-22.5 69.5q0 50 33 85t79 42q-37 24 -57.5 58.5t-20.5 79.5q0 77 57.5 124t138.5 47q91 0 148 -55zM107 721h15q5 -38 40 -66t86 -28q53 0 88 27
t41 68h15q0 -83 -40.5 -134.5t-102.5 -51.5q-64 0 -103 50.5t-39 134.5z" />
    <glyph glyph-name="apple" unicode="&#x130;" horiz-adv-x="536" 
d="M502 0h-471v16q7 0 19 0.5t39.5 4t39 16.5t14.5 44l2 46v475l-2 46q-3 32 -13.5 44.5t-41.5 16.5l-54 4v16h468v-16l-54 -3q-31 -3 -41.5 -14.5t-13.5 -45.5l-2 -46v-479l2 -46q3 -33 14.5 -44.5t42.5 -15.5l52 -3v-16zM183 868q0 27 20 47t49 20q27 0 47 -20t20 -47
q0 -29 -19 -49t-48 -20q-28 0 -48.5 20.5t-20.5 48.5z" />
    <glyph glyph-name="dotlessi" unicode="&#x131;" horiz-adv-x="340" 
d="M332 0h-324v16l24 1q29 3 35 14t6 48l1 46v239l-1 41q-2 24 -6 36t-36 15l-27 2v16h262v-349l1 -46q0 -36 6 -47.5t35 -14.5l24 -1v-16z" />
    <glyph glyph-name="OE" unicode="&#x152;" horiz-adv-x="1288" 
d="M558 635q-30 85 -105 85q-37 0 -65 -24t-42.5 -70t-21 -116.5t-6.5 -145.5q0 -101 8 -166t30 -127.5t97 -62.5q37 0 65 24t42.5 70t21 116.5t6.5 145.5q0 89 -6 153.5t-24 117.5zM1213 729v-296h-16q-51 112 -124 188.5t-123 81.5t-77.5 5.5t-48.5 1.5v-328l42 2
q58 6 87.5 55t29.5 114h19v-364h-19q0 67 -29 117t-88 56l-42 2v-344q37 1 77.5 1.5t89 7t120.5 99t106 190.5h16v-318h-678q-25 -4 -56.5 -7.5t-47.5 -3.5q-173 0 -288 106t-115 269q0 171 111 273t289 102q21 0 52 -3t60 -7h653z" />
    <glyph glyph-name="oe" unicode="&#x153;" horiz-adv-x="864" 
d="M356 238q0 14 -2 56t-2 50q0 54 -16.5 89t-51.5 35q-32 0 -49 -36.5t-17 -87.5q0 -19 -1.5 -46.5t-2.5 -59.5q0 -14 2 -57.5t2 -50.5q0 -54 16.5 -89t50.5 -35q33 0 50 36t17 88q0 20 1 47.5t3 60.5zM679 280q-1 11 -1.5 26t-0.5 38q0 61 -14 92.5t-50 31.5
q-32 0 -44.5 -31t-17.5 -93l-2 -64h130zM285 -10q-115 0 -192.5 70.5t-77.5 176.5t78.5 176.5t191.5 70.5q90 0 167 -55q77 55 167 55q115 0 174.5 -64.5t59.5 -159.5h-304q0 -38 5.5 -74.5t21 -71.5t44.5 -56.5t71 -21.5q60 0 93 33t55 89l15 -6q-26 -77 -86.5 -119.5
t-145.5 -42.5q-51 0 -90.5 12t-82.5 41q-40 -26 -80.5 -39.5t-83.5 -13.5z" />
    <glyph glyph-name="approxequal" unicode="&#x15e;" horiz-adv-x="710" 
d="M387 -11l-43 -57q5 1 15 2t21 1q68 0 96 -31.5t28 -61.5q0 -59 -44 -83t-96 -24q-36 0 -61.5 14t-25.5 38q0 15 9 26.5t28 11.5q21 0 29 -11.5t8 -26.5q0 -8 -5.5 -17.5t-5.5 -12.5q14 -7 23 -7q19 0 33.5 17t14.5 47q0 39 -18 58.5t-55 19.5q-18 0 -28 -2.5t-18 -6.5
l-4 5l76 103q-69 10 -138 58t-87 48q-33 0 -41 -25t-15 -84h-17v358h17q6 -21 20.5 -69t54 -114.5t104 -110.5t149.5 -44q49 0 80 26t31 62q0 43 -23 68t-83 48.5t-127 50.5t-142 73q-75 45 -75 170q0 98 79 166t182 68q57 0 111 -27l104 -58q29 0 38 24.5t9 60.5h19v-265
h-18q-5 17 -20.5 58t-60 92t-88 73.5t-104.5 22.5q-41 0 -76 -24t-35 -60q0 -38 26.5 -63.5t61 -40.5t95.5 -38t126.5 -53.5t107.5 -89t42 -138.5q0 -99 -83.5 -162.5t-181.5 -63.5z" />
    <glyph glyph-name="Delta" unicode="&#x15f;" horiz-adv-x="484" 
d="M229 -8q-30 3 -65.5 21t-69.5 36q-14 0 -23.5 -20t-12.5 -46h-14v224h13q13 -41 25.5 -70t32.5 -58t50.5 -48t73.5 -19q24 0 43 14t19 38q0 30 -16 46t-58 41q-41 22 -64 34.5t-52.5 34.5t-44 48t-14.5 61q0 74 56 114.5t137 40.5q38 0 72 -14q33 -17 67 -33q14 0 24 17
t10 40h14v-201h-13q-9 25 -21.5 55t-35 59t-45.5 44t-64 15q-28 0 -45.5 -13.5t-17.5 -34.5q0 -22 12.5 -35t36.5 -27.5t65.5 -37t74.5 -44.5t55 -54.5t22 -74.5q0 -78 -61 -116.5t-149 -38.5l-37 -49q5 1 16 2t20 1q64 0 91 -29.5t27 -59.5q0 -55 -42 -77t-90 -22
q-33 0 -58 13.5t-25 35.5q0 12 9.5 23.5t25.5 11.5q19 0 27 -11t8 -24q0 -9 -11 -29q14 -7 23 -7q18 0 31.5 15.5t13.5 44.5q0 37 -17.5 55.5t-52.5 18.5q-16 0 -26.5 -3.5t-15.5 -5.5l-4 5z" />
    <glyph glyph-name="Scaron" unicode="&#x160;" horiz-adv-x="710" 
d="M671 214q0 -99 -83.5 -162.5t-181.5 -63.5q-86 0 -170 54.5t-97 54.5q-33 0 -41 -25t-15 -84h-17v358h17q6 -21 20.5 -69t54 -114.5t104 -110.5t149.5 -44q49 0 80 26t31 62q0 43 -23 68t-83 48.5t-127 50.5t-142 73q-75 45 -75 170q0 98 79 166t182 68q57 0 111 -27
l104 -58q29 0 38 24.5t9 60.5h19v-265h-18q-5 17 -20.5 58t-60 92t-88 73.5t-104.5 22.5q-41 0 -76 -24t-35 -60q0 -38 26.5 -63.5t61 -40.5t95.5 -38t126.5 -53.5t107.5 -89t42 -138.5zM490 964l-109 -181h-86l-109 181l13 7l139 -101l141 102z" />
    <glyph glyph-name="scaron" unicode="&#x161;" horiz-adv-x="484" 
d="M44 207h13q26 -81 52 -119t56.5 -57t74.5 -19q25 0 43 13.5t18 37.5q0 31 -14 46t-44 32.5t-69.5 39t-66 42t-41 46.5t-14.5 60q0 74 56 114.5t137 40.5q38 0 72 -14q33 -17 67 -33q14 0 24 17t10 40h14v-201h-13q-8 24 -20 53t-34.5 58.5t-47.5 45.5t-64 16
q-28 0 -45.5 -13.5t-17.5 -33.5q0 -23 12.5 -36t36.5 -27.5t65.5 -37t74.5 -44.5t55 -54.5t22 -74.5q0 -77 -58.5 -116t-141.5 -39q-43 0 -84 18q-40 20 -79 41q-13 0 -23 -21t-12 -45h-14v224zM415 714l-109 -181h-86l-109 181l13 7l139 -101l141 102z" />
    <glyph glyph-name="Ydieresis" unicode="&#x178;" horiz-adv-x="744" 
d="M524 127l2 -46q3 -32 13.5 -44.5t32 -15t39.5 -3.5t31 -2v-16h-487v16l66 3q30 3 41 15t14 45l2 46v186l-189 308q-34 53 -53.5 70t-51.5 21l-28 3v16h467v-16l-52 -2q-21 -2 -30 -6t-9 -19q0 -11 4 -21.5t20 -38t61.5 -100.5t87.5 -139q34 59 74 127.5t59.5 105
t19.5 59.5q0 27 -44 32l-40 2v16h238v-16l-26 -2q-34 0 -57 -13t-48 -51.5t-69.5 -116t-87.5 -154.5v-249zM252 868q0 26 20 46t48 20t47 -19t19 -47q0 -30 -18 -49t-48 -19q-28 0 -48 20t-20 48zM478 868q0 26 20 46t47 20q28 0 47.5 -19.5t19.5 -46.5q0 -30 -19 -49
t-48 -19q-27 0 -47 20t-20 48z" />
    <glyph glyph-name="florin" unicode="&#x192;" horiz-adv-x="644" 
d="M428 387h152l-10 -28h-139l1 -36q0 -72 -10 -143.5t-36 -150.5t-104.5 -164t-189.5 -85q-62 0 -109.5 30.5t-47.5 81.5q0 40 24.5 68.5t74.5 28.5q39 0 66.5 -23.5t27.5 -59.5t-12 -56q-15 -20 -29 -40q0 -3 1 -7.5t12 -4.5q47 0 74 39t27 106q0 89 -15.5 202t-15.5 214
h-130l10 28h123q4 27 11 61.5t35 102t103 128.5t181 61q70 0 109.5 -28.5t39.5 -74.5q0 -40 -24 -64t-63 -24t-65 20t-26 50q0 34 16.5 54.5t16.5 35.5q0 7 -4.5 10t-14.5 3q-48 0 -63 -48t-15 -113q0 -30 6 -78z" />
    <glyph glyph-name="circumflex" unicode="&#x2c6;" 
d="M400 526l-11 -8l-141 102l-141 -102l-11 8l109 181h86z" />
    <glyph glyph-name="caron" unicode="&#x2c7;" 
d="M400 714l-109 -181h-86l-109 181l13 7l139 -101l141 102z" />
    <glyph glyph-name="macron" unicode="&#x2c9;" 
d="M100 573v76h300v-76h-300z" />
    <glyph glyph-name="breve" unicode="&#x2d8;" 
d="M107 721h15q5 -38 40 -66t86 -28q53 0 88 27t41 68h15q0 -83 -40.5 -134.5t-102.5 -51.5q-64 0 -103 50.5t-39 134.5z" />
    <glyph glyph-name="dotaccent" unicode="&#x2d9;" 
d="M183 618q0 27 20 47t49 20q27 0 47 -20t20 -47q0 -29 -19 -49t-48 -20q-28 0 -48.5 20.5t-20.5 48.5z" />
    <glyph glyph-name="ring" unicode="&#x2da;" 
d="M184 630q0 -28 18 -46t46 -18t46.5 17.5t18.5 46.5q0 28 -18.5 46.5t-46.5 18.5t-46 -18t-18 -47zM143 630q0 45 31 74t75 29t75.5 -28.5t31.5 -74.5q0 -44 -31.5 -73.5t-75.5 -29.5q-43 0 -74.5 29.5t-31.5 73.5z" />
    <glyph glyph-name="ogonek" unicode="&#x2db;" 
d="M280 0q-45 -35 -61.5 -59t-16.5 -56q0 -23 12 -37t32 -14q37 0 58 36l13 -7q-20 -44 -50.5 -67.5t-67.5 -23.5q-39 0 -60.5 20.5t-21.5 54.5q0 41 34 74t111 79h18z" />
    <glyph glyph-name="tilde" unicode="&#x2dc;" 
d="M183 590q-32 0 -47 -11t-23 -40h-17q15 73 42.5 104.5t74.5 31.5q15 0 64 -13t55 -13q58 0 71 51h17q-15 -73 -42.5 -104.5t-74.5 -31.5q-22 0 -69.5 13t-50.5 13z" />
    <glyph glyph-name="endash" unicode="&#x2013;" 
d="M500 288v-81h-500v81h500z" />
    <glyph glyph-name="emdash" unicode="&#x2014;" horiz-adv-x="1000" 
d="M1000 288v-81h-1000v81h1000z" />
    <glyph glyph-name="quoteleft" unicode="&#x2018;" horiz-adv-x="232" 
d="M213 516q0 -39 -25 -65t-65 -26q-49 0 -80.5 36.5t-31.5 87.5q0 74 55 127t133 53l2 -14q-48 0 -88 -34t-40 -78q0 -10 2.5 -15t7.5 -5q9 0 22 6.5t24 6.5q35 0 59.5 -22.5t24.5 -57.5z" />
    <glyph glyph-name="quoteright" unicode="&#x2019;" horiz-adv-x="232" 
d="M31 445q48 0 88 34t40 78q0 10 -2.5 15t-7.5 5q-8 0 -21 -6.5t-25 -6.5q-35 0 -59.5 22.5t-24.5 57.5q0 39 25 65t65 26q49 0 80.5 -36.5t31.5 -87.5q0 -74 -55 -127t-133 -53z" />
    <glyph glyph-name="quotesinglbase" unicode="&#x201a;" horiz-adv-x="232" 
d="M31 -120q48 0 88 34t40 78q0 20 -9 20q-7 0 -20 -6.5t-28 -6.5q-31 0 -57 23t-26 57q0 39 25 65t65 26q49 0 80.5 -36.5t31.5 -87.5q0 -74 -55 -127t-133 -53z" />
    <glyph glyph-name="quotedblleft" unicode="&#x201c;" horiz-adv-x="459" 
d="M441 516q0 -39 -25 -65t-65 -26q-49 0 -80.5 36.5t-31.5 87.5q0 74 55 127t133 53l2 -14q-48 0 -88 -34t-40 -78q0 -10 2.5 -15t7.5 -5q7 0 21.5 6.5t24.5 6.5q33 0 58.5 -22.5t25.5 -57.5zM213 516q0 -39 -25 -65t-65 -26q-49 0 -80.5 36.5t-31.5 87.5q0 74 55 127
t133 53l2 -14q-48 0 -88 -34t-40 -78q0 -10 2.5 -15t7.5 -5q7 0 21.5 6.5t24.5 6.5q33 0 58.5 -22.5t25.5 -57.5z" />
    <glyph glyph-name="quotedblright" unicode="&#x201d;" horiz-adv-x="459" 
d="M31 445q48 0 88 34t40 78q0 20 -9 20q-7 0 -22.5 -6.5t-24.5 -6.5q-32 0 -58 23t-26 57q0 39 25 65t65 26q49 0 80.5 -36.5t31.5 -87.5q0 -74 -55 -127t-133 -53zM259 445q48 0 88 34t40 78q0 20 -9 20q-7 0 -22.5 -6.5t-24.5 -6.5q-33 0 -58.5 22.5t-25.5 57.5
q0 39 25 65t65 26q49 0 80.5 -36.5t31.5 -87.5q0 -74 -55 -127t-133 -53z" />
    <glyph glyph-name="quotedblbase" unicode="&#x201e;" horiz-adv-x="459" 
d="M31 -120q48 0 88 34t40 78q0 20 -9 20q-8 0 -20 -6.5t-27 -6.5q-32 0 -58 23t-26 57q0 39 25 65t65 26q49 0 80.5 -36.5t31.5 -87.5q0 -74 -55 -127t-133 -53zM259 -120q48 0 88 34t40 78q0 20 -9 20q-8 0 -20 -6.5t-27 -6.5q-32 0 -58 23t-26 57q0 39 25 65t65 26
q49 0 80.5 -36.5t31.5 -87.5q0 -74 -55 -127t-133 -53z" />
    <glyph glyph-name="dagger" unicode="&#x2020;" horiz-adv-x="480" 
d="M221 400q-6 -1 -37 -5t-55 -4q-34 0 -64 14.5t-30 43.5q0 21 9.5 35.5t32.5 14.5q15 0 26 -12t11 -26q0 -18 2 -26.5t12 -8.5q49 0 64 1t24 4v8q-12 21 -23 45.5t-11 44.5q0 45 37 85v11q-17 5 -29.5 18t-12.5 30q0 21 14.5 37.5t34.5 16.5v16q0 13 11 13t11 -13v-16
q19 0 32.5 -14.5t13.5 -33.5q0 -20 -11 -32.5t-31 -21.5v-8q22 -23 32 -42t10 -44q0 -30 -12 -52t-24 -38v-8q28 3 47.5 5.5t43.5 2.5q44 0 69 -13.5t25 -44.5q0 -21 -10 -35.5t-32 -14.5q-15 0 -26 12t-11 26q0 18 -2 26.5t-12 8.5q-44 0 -62.5 -1t-32.5 -4v-23l31 -41
l-14 -505l-32 -37h-5l-33 37l-17 506l36 41v21z" />
    <glyph glyph-name="daggerdbl" unicode="&#x2021;" horiz-adv-x="480" 
d="M217 400q-9 -1 -37 -5t-51 -4q-34 0 -64 14.5t-30 43.5q0 22 9.5 36t32.5 14q15 0 26 -12t11 -26q0 -18 2 -26.5t12 -8.5q46 0 62 1t26 4v8q-12 21 -23 45.5t-11 44.5q0 45 37 85v11q-17 5 -29.5 18t-12.5 30q0 21 14.5 37.5t34.5 16.5v16q0 13 11 13t11 -13v-16
q19 0 32.5 -14.5t13.5 -33.5q0 -20 -11 -32.5t-31 -21.5v-8q22 -23 32 -42t10 -44q0 -30 -12 -52t-24 -38v-8q28 3 47.5 5.5t43.5 2.5q44 0 69 -13.5t25 -44.5q0 -22 -9.5 -36t-32.5 -14q-15 0 -26 12t-11 26q0 18 -2 26.5t-12 8.5q-43 0 -61 -1t-30 -4v-252q8 1 37.5 5
t52.5 4q34 0 64 -14.5t30 -43.5q0 -22 -9.5 -36t-32.5 -14q-15 0 -26 12t-11 26q0 18 -2 26.5t-12 8.5q-51 0 -67 -1.5t-23 -3.5v-8q12 -21 23 -45.5t11 -44.5q0 -45 -37 -85v-11q17 -5 29.5 -18t12.5 -30q0 -21 -14.5 -37.5t-34.5 -16.5v-16q0 -13 -11 -13t-11 13v16
q-19 0 -32.5 14.5t-13.5 33.5q0 20 11 32.5t31 21.5v8q-22 23 -32 42t-10 44q0 30 12 52t24 38v8q-25 -3 -45 -5.5t-44 -2.5q-44 0 -69 13.5t-25 44.5q0 22 9 36t33 14q15 0 26 -12t11 -26q0 -18 2 -26.5t12 -8.5q49 0 65.5 1.5t23.5 3.5v252z" />
    <glyph glyph-name="bullet" unicode="&#x2022;" horiz-adv-x="588" 
d="M40 366q0 105 74.5 179.5t179.5 74.5t179.5 -74.5t74.5 -179.5t-74.5 -179.5t-179.5 -74.5t-179.5 74.5t-74.5 179.5z" />
    <glyph glyph-name="ellipsis" unicode="&#x2026;" horiz-adv-x="1000" 
d="M71 86q0 38 28.5 65.5t67.5 27.5q40 0 68.5 -26.5t28.5 -66.5q0 -39 -28.5 -66.5t-68.5 -27.5q-39 0 -67.5 27.5t-28.5 66.5zM404 86q0 38 28.5 65.5t67.5 27.5q40 0 68.5 -26.5t28.5 -66.5q0 -39 -28.5 -66.5t-68.5 -27.5q-39 0 -67.5 27.5t-28.5 66.5zM737 86
q0 38 28.5 65.5t67.5 27.5q40 0 68.5 -26.5t28.5 -66.5q0 -39 -28.5 -66.5t-68.5 -27.5q-39 0 -67.5 27.5t-28.5 66.5z" />
    <glyph glyph-name="guilsinglleft" unicode="&#x2039;" horiz-adv-x="325" 
d="M286 74l-11 -10l-233 167v28l233 166l11 -10q-23 -33 -52 -77t-53 -93q26 -52 54 -95t51 -76z" />
    <glyph glyph-name="guilsinglright" unicode="&#x203a;" horiz-adv-x="325" 
d="M283 231l-233 -167l-11 10q23 33 51 75.5t54 95.5q-25 50 -53 93t-52 77l11 10l233 -166v-28z" />
    <glyph glyph-name="Euro" unicode="&#x20ac;" horiz-adv-x="757" 
d="M728 213q-21 -104 -85.5 -164.5t-209.5 -60.5q-146 0 -252.5 87t-127.5 235h-56l8 27h45q-1 9 -1 26q0 18 1 27h-53l8 27h48q21 148 126.5 235.5t251.5 87.5q68 0 108 -13t86 -50q25 -20 39 -20q22 0 30 76h20v-255h-16q-44 124 -94 176t-116 52q-86 0 -134 -74t-56 -215
h366l-11 -27h-356v-12q0 -27 1 -41h344l-11 -27h-331q12 -136 66 -208t146 -72q144 0 198 186z" />
    <glyph glyph-name="trademark" unicode="&#x2122;" horiz-adv-x="730" 
d="M41 729h276v-115h-12q-11 26 -32 64.5t-40 38.5h-11v-215q3 -20 20 -22l21 -1v-12h-171v12l24 1q19 0 19 21l1 17v199h-11q-19 0 -39.5 -37.5t-33.5 -65.5h-11v115zM380 522l1 -17q0 -22 22 -25l21 -2v-11h-104v11l20 2q21 3 21 25l1 17v155l-1 17q-3 9 -7 14.5t-14 6.5
l-13 2v12h128l55 -146l53 146h131v-12l-21 -1q-20 -3 -20 -23l-1 -16v-159l1 -16q0 -19 19 -22l18 -2v-11h-161v11l17 1q18 2 20 22v139l2 50l-12 -36l-66 -187h-26l-82 207z" />
    <glyph glyph-name="fraction" unicode="&#x2215;" horiz-adv-x="167" 
d="M-168 -2l463 742l36 -21l-464 -743z" />
    <glyph glyph-name="periodcentered" unicode="&#x2219;" horiz-adv-x="272" 
d="M36 331q0 40 29 68t70 28t70.5 -27.5t29.5 -68.5t-29 -69t-71 -28q-41 0 -70 28t-29 69z" />
    <glyph glyph-name="lozenge" unicode="&#x25ca;" horiz-adv-x="447" 
d="M23 358l158 323h55l165 -323l-167 -324h-55zM100 357l107 -213l112 213l-110 214z" />
    <glyph glyph-name="fi" unicode="&#xf001;" horiz-adv-x="664" 
d="M399 402q0 24 -6 30.5t-35 6.5h-91v-314l1 -46q0 -34 2.5 -48t35.5 -14l16 -1v-16h-313v16l24 1q29 3 35 14t6 48l1 46v311h-73l16 38h57l3 72q0 70 90.5 131.5t215.5 61.5q83 0 123 -23t55.5 -46t15.5 -48q0 -43 -28 -71t-70 -28q-43 0 -72 23t-29 66q0 28 22.5 52.5
t22.5 30.5q0 12 -15 19t-41 7q-49 0 -73.5 -42.5t-24.5 -109.5q0 -36 -1 -58t-3 -37h325v-349l1 -46q0 -36 6 -47.5t35 -14.5l24 -1v-16h-315v16l19 1q27 0 32 11.5t5 50.5l1 46v277z" />
    <glyph glyph-name="fi" unicode="&#xfb01;" horiz-adv-x="664" 
d="M399 402q0 24 -6 30.5t-35 6.5h-91v-314l1 -46q0 -34 2.5 -48t35.5 -14l16 -1v-16h-313v16l24 1q29 3 35 14t6 48l1 46v311h-73l16 38h57l3 72q0 70 90.5 131.5t215.5 61.5q83 0 123 -23t55.5 -46t15.5 -48q0 -43 -28 -71t-70 -28q-43 0 -72 23t-29 66q0 28 22.5 52.5
t22.5 30.5q0 12 -15 19t-41 7q-49 0 -73.5 -42.5t-24.5 -109.5q0 -36 -1 -58t-3 -37h325v-349l1 -46q0 -36 6 -47.5t35 -14.5l24 -1v-16h-315v16l19 1q27 0 32 11.5t5 50.5l1 46v277z" />
    <glyph glyph-name="fl" unicode="&#xf002;" horiz-adv-x="667" 
d="M401 683q0 11 -13.5 23t-33.5 12q-44 0 -64 -43t-20 -106l-4 -95h105l-17 -38h-87v-311l1 -46q0 -37 5 -47.5t33 -14.5l16 -1v-16h-313v16l24 1q29 3 35 14t6 48l1 46v311h-73l16 38h57q0 23 1.5 43.5t1.5 26.5q0 73 81.5 133t220.5 60q27 0 51.5 -2.5t44.5 -5.5h119
v-604l1 -46q0 -36 6 -47.5t35 -14.5l24 -1v-16h-315v16l19 1q27 0 32 11.5t5 50.5l1 46v521z" />
    <glyph glyph-name="fl" unicode="&#xfb02;" horiz-adv-x="667" 
d="M401 683q0 11 -13.5 23t-33.5 12q-44 0 -64 -43t-20 -106l-4 -95h105l-17 -38h-87v-311l1 -46q0 -37 5 -47.5t33 -14.5l16 -1v-16h-313v16l24 1q29 3 35 14t6 48l1 46v311h-73l16 38h57q0 23 1.5 43.5t1.5 26.5q0 73 81.5 133t220.5 60q27 0 51.5 -2.5t44.5 -5.5h119
v-604l1 -46q0 -36 6 -47.5t35 -14.5l24 -1v-16h-315v16l19 1q27 0 32 11.5t5 50.5l1 46v521z" />
    </font>
</defs>
</svg>
