<svg xmlns="http://www.w3.org/2000/svg" viewBox="0 0 100 60"><defs><style>.cls-1{fill:#ffb600}.cls-2{fill:#f7981d}.cls-3{fill:#ff8500}.cls-4{fill:#ff5050}.cls-5{fill:#e52836}.cls-6{fill:#cb2026}.cls-7{fill:#fff}.cls-8{fill:#dce5e5}</style></defs><g id="mastercard" transform="translate(0 -100.8)"><path id="Path_6251" data-name="Path 6251" class="cls-1" d="M261.6 130.8a30 30 0 1 1-60 0 30 30 0 1 1 60 0z" transform="translate(-161.6)"/><path id="Path_6252" data-name="Path 6252" class="cls-2" d="M231.6 100.8a30.078 30.078 0 0 1 30 30 30 30 0 1 1-60 0" transform="translate(-161.6)"/><path id="Path_6253" data-name="Path 6253" class="cls-3" d="M352.8 100.8a30.078 30.078 0 0 1 30 30 29.976 29.976 0 0 1-30 30" transform="translate(-282.8)"/><path id="Path_6254" data-name="Path 6254" class="cls-4" d="M29.683 100.8a30 30 0 0 0 .317 60 30.349 30.349 0 0 0 20.159-7.778 28.522 28.522 0 0 0 3.016-3.175h-6.19a36.614 36.614 0 0 1-2.222-3.016H55.4a20.332 20.332 0 0 0 1.746-3.175h-14.13a18.917 18.917 0 0 1-1.27-3.175h16.508a31.518 31.518 0 0 0 1.587-9.524 40.97 40.97 0 0 0-.635-6.349H40.794a23.206 23.206 0 0 1 .794-3.175H58.1a18.919 18.919 0 0 0-1.27-3.175H42.857a31.476 31.476 0 0 1 1.746-3.175h10.635a15.094 15.094 0 0 0-2.381-3.175h-5.873A27.053 27.053 0 0 1 50 108.9a29.29 29.29 0 0 0-20.159-7.778c0-.322 0-.322-.158-.322z"/><path id="Path_6255" data-name="Path 6255" class="cls-5" d="M0 132.083a29.976 29.976 0 0 0 30 30 30.35 30.35 0 0 0 20.159-7.783 28.521 28.521 0 0 0 3.016-3.175h-6.19a36.619 36.619 0 0 1-2.222-3.016H55.4a20.332 20.332 0 0 0 1.746-3.175h-14.13a18.917 18.917 0 0 1-1.27-3.175h16.508a31.519 31.519 0 0 0 1.587-9.524 40.971 40.971 0 0 0-.635-6.349H40.794a23.205 23.205 0 0 1 .794-3.175H58.1a18.919 18.919 0 0 0-1.27-3.175H42.857a31.475 31.475 0 0 1 1.746-3.175h10.635a15.1 15.1 0 0 0-2.381-3.175h-5.873A27.055 27.055 0 0 1 50 110.178a29.29 29.29 0 0 0-20.159-7.778h-.159" transform="translate(0 -1.283)"/><path id="Path_6256" data-name="Path 6256" class="cls-6" d="M149.917 162.083a30.35 30.35 0 0 0 20.159-7.778 28.522 28.522 0 0 0 3.016-3.175H166.9a36.613 36.613 0 0 1-2.222-3.016h10.635a20.333 20.333 0 0 0 1.746-3.175h-14.126a18.92 18.92 0 0 1-1.27-3.175h16.508a31.519 31.519 0 0 0 1.587-9.524 40.97 40.97 0 0 0-.635-6.349h-18.412a23.2 23.2 0 0 1 .794-3.175h16.508a18.917 18.917 0 0 0-1.27-3.175h-13.968a31.466 31.466 0 0 1 1.746-3.175h10.635a15.1 15.1 0 0 0-2.381-3.175H166.9a27.055 27.055 0 0 1 3.016-3.016 29.29 29.29 0 0 0-20.159-7.778h-.157" transform="translate(-119.917 -1.283)"/><g id="Group_600" data-name="Group 600" transform="translate(2.857 123.022)"><path id="Path_6257" data-name="Path 6257" class="cls-7" d="M186.2 233.968l.476-2.7a6.877 6.877 0 0 1-.794.159c-1.111 0-1.27-.635-1.111-.952l.952-5.556h1.746l.476-3.016h-1.587l.317-1.9H183.5s-1.9 10.476-1.9 11.746a2.383 2.383 0 0 0 2.54 2.7 4.873 4.873 0 0 0 2.06-.481z" transform="translate(-148.425 -218.571)"/><path id="Path_6258" data-name="Path 6258" class="cls-7" d="M210.4 235.862c0 4.444 3.016 5.556 5.556 5.556a8.241 8.241 0 0 0 3.333-.476l.635-3.016a9.515 9.515 0 0 1-3.333.794c-3.492 0-2.857-2.54-2.857-2.54h6.508a20.581 20.581 0 0 0 .476-2.857 4.3 4.3 0 0 0-4.6-4.6c-3.337-.323-5.718 3.17-5.718 7.139zm5.556-4.6c1.746 0 1.429 2.064 1.429 2.222h-3.492c-.001-.162.317-2.225 2.063-2.225z" transform="translate(-171.511 -225.544)"/><path id="Path_6259" data-name="Path 6259" class="cls-7" d="M304.73 228.2l.635-3.492a7.8 7.8 0 0 1-2.7.794c-2.222 0-3.175-1.746-3.175-3.651 0-3.81 1.9-5.873 4.127-5.873a5.3 5.3 0 0 1 2.857.952l.476-3.333a11.16 11.16 0 0 0-3.651-.794c-3.651 0-7.3 3.175-7.3 9.206 0 3.968 1.9 6.667 5.714 6.667a14.246 14.246 0 0 0 3.017-.476z" transform="translate(-240.127 -212.8)"/><path id="Path_6260" data-name="Path 6260" class="cls-7" d="M92.432 227.2a11.241 11.241 0 0 0-3.81.635l-.476 2.7a9.383 9.383 0 0 1 3.492-.635c1.111 0 2.063.159 2.063 1.111 0 .635-.159.794-.159.794h-1.428c-2.7 0-5.714 1.111-5.714 4.762 0 2.857 1.9 3.492 3.016 3.492a4.769 4.769 0 0 0 3.333-1.429l-.159 1.27h2.857l1.27-8.73c0-3.811-3.174-3.97-4.285-3.97zm.635 7.143c0 .476-.317 3.016-2.222 3.016a1.239 1.239 0 0 1-1.27-1.27c0-.794.476-1.9 2.857-1.9a2.5 2.5 0 0 0 .635.154z" transform="translate(-72.114 -224.343)"/><path id="Path_6261" data-name="Path 6261" class="cls-7" d="M138.851 239.416c.794 0 4.762.159 4.762-4.127 0-3.968-3.81-3.175-3.81-4.762 0-.794.635-1.111 1.746-1.111.476 0 2.222.159 2.222.159l.476-2.857a12.058 12.058 0 0 0-3.016-.317c-2.381 0-4.762.952-4.762 4.127 0 3.651 3.968 3.333 3.968 4.762 0 .952-1.111 1.111-1.9 1.111a10.38 10.38 0 0 1-2.857-.476l-.476 2.857c.155.318.948.634 3.647.634z" transform="translate(-111.232 -223.702)"/><path id="Path_6262" data-name="Path 6262" class="cls-7" d="M436.248 214.4l-.635 4.286a4.4 4.4 0 0 0-3.013-1.586c-2.857 0-5.4 3.492-5.4 7.619 0 2.54 1.27 5.238 3.968 5.238a4.237 4.237 0 0 0 3.016-1.27l-.159 1.111h3.175l2.381-15.238zm-1.429 8.413c0 1.746-.794 3.968-2.54 3.968-1.111 0-1.746-.952-1.746-2.54 0-2.54 1.111-4.127 2.54-4.127 1.111 0 1.746.794 1.746 2.699z" transform="translate(-345.295 -214.083)"/><path id="Path_6263" data-name="Path 6263" class="cls-7" d="M17.416 229.638l1.9-11.429.317 11.429h2.227l4.127-11.429-1.746 11.429h3.333l2.54-15.238h-5.238l-3.176 9.365-.159-9.365h-4.6L14.4 229.638z" transform="translate(-14.4 -214.083)"/><path id="Path_6264" data-name="Path 6264" class="cls-7" d="M263.492 241.181c.952-5.238 1.111-9.524 3.333-8.73a12.457 12.457 0 0 1 1.111-3.651h-.636c-1.429 0-2.54 1.9-2.54 1.9l.317-1.746h-3.016L260 241.34h3.492z" transform="translate(-211.27 -225.625)"/><path id="Path_6265" data-name="Path 6265" class="cls-7" d="M352.432 227.2a11.242 11.242 0 0 0-3.81.635l-.476 2.7a9.382 9.382 0 0 1 3.492-.635c1.111 0 2.063.159 2.063 1.111 0 .635-.159.794-.159.794h-1.429c-2.7 0-5.714 1.111-5.714 4.762 0 2.857 1.9 3.492 3.016 3.492a4.769 4.769 0 0 0 3.333-1.429l-.159 1.27h2.857l1.27-8.73c.16-3.811-3.173-3.97-4.284-3.97zm.794 7.143c0 .476-.317 3.016-2.222 3.016a1.239 1.239 0 0 1-1.27-1.27c0-.794.476-1.9 2.857-1.9.476.154.476.154.634.154z" transform="translate(-280.527 -224.343)"/><path id="Path_6266" data-name="Path 6266" class="cls-7" d="M397.892 241.181c.952-5.238 1.111-9.524 3.333-8.73a12.46 12.46 0 0 1 1.111-3.651h-.636c-1.429 0-2.54 1.9-2.54 1.9l.317-1.746h-3.016L394.4 241.34h3.492z" transform="translate(-319.003 -225.625)"/></g><g id="Group_601" data-name="Group 601" transform="translate(2.857 123.022)"><path id="Path_6267" data-name="Path 6267" class="cls-8" d="M180 231.746a2.383 2.383 0 0 0 2.54 2.7 6.041 6.041 0 0 0 2.381-.476l.476-2.7a6.876 6.876 0 0 1-.794.159c-1.111 0-1.27-.635-1.111-.952l.952-5.556h1.746l.476-3.016h-1.587l.317-1.9" transform="translate(-147.143 -218.571)"/><path id="Path_6268" data-name="Path 6268" class="cls-8" d="M218.4 235.862c0 4.444 1.429 5.556 3.968 5.556a8.241 8.241 0 0 0 3.333-.476l.635-3.016a9.515 9.515 0 0 1-3.333.794c-3.492 0-2.857-2.54-2.857-2.54h6.508a20.581 20.581 0 0 0 .476-2.857 4.3 4.3 0 0 0-4.6-4.6c-3.336-.323-4.13 3.17-4.13 7.139zm3.968-4.6c1.746 0 2.064 2.064 2.064 2.222H220.3c0-.162.322-2.225 2.068-2.225z" transform="translate(-177.924 -225.544)"/><path id="Path_6269" data-name="Path 6269" class="cls-8" d="M311.143 228.2l.635-3.492a7.8 7.8 0 0 1-2.7.794c-2.222 0-3.175-1.746-3.175-3.651 0-3.81 1.9-5.873 4.127-5.873a5.3 5.3 0 0 1 2.857.952l.476-3.333a11.16 11.16 0 0 0-3.651-.794c-3.651 0-5.714 3.175-5.714 9.206 0 3.968.317 6.667 4.127 6.667a14.245 14.245 0 0 0 3.018-.476z" transform="translate(-246.54 -212.8)"/><path id="Path_6270" data-name="Path 6270" class="cls-8" d="M88.146 231.975a9.383 9.383 0 0 1 3.492-.635c1.111 0 2.063.159 2.063 1.111 0 .635-.159.794-.159.794h-1.428c-2.7 0-5.714 1.111-5.714 4.762 0 2.857 1.9 3.492 3.016 3.492a4.769 4.769 0 0 0 3.333-1.429l-.159 1.27h2.857l1.27-8.73c0-3.651-3.175-3.81-4.444-3.81m2.381 6.825c0 .476-1.9 3.016-3.81 3.016a1.239 1.239 0 0 1-1.27-1.27c0-.794.476-1.9 2.857-1.9a12.969 12.969 0 0 0 2.223.154z" transform="translate(-72.114 -225.625)"/><path id="Path_6271" data-name="Path 6271" class="cls-8" d="M136 239.1a13.435 13.435 0 0 0 3.651.317c.794 0 4.762.159 4.762-4.127 0-3.968-3.81-3.175-3.81-4.762 0-.794.635-1.111 1.746-1.111.476 0 2.222.159 2.222.159l.476-2.857a12.058 12.058 0 0 0-3.016-.317c-2.381 0-3.175.952-3.175 4.127 0 3.651 2.381 3.333 2.381 4.762 0 .952-1.111 1.111-1.9 1.111" transform="translate(-111.873 -223.702)"/><path id="Path_6272" data-name="Path 6272" class="cls-8" d="M441.979 219.327a4.4 4.4 0 0 0-3.016-1.587c-2.857 0-3.81 3.492-3.81 7.619 0 2.54-.317 5.238 2.381 5.238a4.237 4.237 0 0 0 3.016-1.27l-.159 1.111h3.175l2.381-15.238m-4.127 8.254c0 1.746-1.429 3.968-3.175 3.968-1.111 0-1.746-.952-1.746-2.54 0-2.54 1.111-4.127 2.54-4.127a2.426 2.426 0 0 1 2.381 2.699z" transform="translate(-351.661 -214.724)"/><path id="Path_6273" data-name="Path 6273" class="cls-8" d="M17.416 229.638l1.9-11.429.317 11.429h2.227l4.127-11.429-1.746 11.429h3.333l2.54-15.238h-3.968l-4.446 9.365-.159-9.365H19.8l-5.4 15.238z" transform="translate(-14.4 -214.083)"/><path id="Path_6274" data-name="Path 6274" class="cls-8" d="M260.8 241.181h3.333c.952-5.238 1.111-9.524 3.333-8.73a12.458 12.458 0 0 1 1.111-3.651h-.635c-1.429 0-2.54 1.9-2.54 1.9l.317-1.746" transform="translate(-211.911 -225.625)"/><path id="Path_6275" data-name="Path 6275" class="cls-8" d="M348.146 231.975a9.383 9.383 0 0 1 3.492-.635c1.111 0 2.063.159 2.063 1.111 0 .635-.159.794-.159.794h-1.429c-2.7 0-5.714 1.111-5.714 4.762 0 2.857 1.9 3.492 3.016 3.492a4.769 4.769 0 0 0 3.333-1.429l-.159 1.27h2.857l1.27-8.73c0-3.651-3.175-3.81-4.444-3.81m2.381 6.825c0 .476-1.9 3.016-3.81 3.016a1.239 1.239 0 0 1-1.27-1.27c0-.794.476-1.9 2.857-1.9a13.964 13.964 0 0 0 2.224.154z" transform="translate(-280.527 -225.625)"/><path id="Path_6276" data-name="Path 6276" class="cls-8" d="M395.2 241.181h3.333c.952-5.238 1.111-9.524 3.333-8.73a12.455 12.455 0 0 1 1.111-3.651h-.635c-1.429 0-2.54 1.9-2.54 1.9l.317-1.746" transform="translate(-319.644 -225.625)"/></g></g></svg>