<svg xmlns="http://www.w3.org/2000/svg" viewBox="0 0 43.5 29"><defs><style>.cls-1{fill:#fff}</style></defs><path id="iconmonstr-payment-55" class="cls-1" d="M28.03 26.555a.581.581 0 1 1-.578-.614.575.575 0 0 1 .578.614zm-12.35-.613a.616.616 0 1 0 .578.614.576.576 0 0 0-.578-.614zm6.146-.02a.493.493 0 0 0-.509.466h1a.476.476 0 0 0-.491-.466zm9.5.02a.616.616 0 1 0 .578.614.576.576 0 0 0-.58-.614zM43.5 7.625v21.75A3.626 3.626 0 0 1 39.875 33H3.625A3.626 3.626 0 0 1 0 29.375V7.625A3.626 3.626 0 0 1 3.625 4h36.25A3.626 3.626 0 0 1 43.5 7.625zM10.049 16.66A7.222 7.222 0 0 0 21.07 22.8a8.013 8.013 0 0 1 0-12.285 7.222 7.222 0 0 0-11.021 6.145zm4.251 9.65a.715.715 0 0 0-.754-.763.746.746 0 0 0-.674.341.705.705 0 0 0-.634-.341.633.633 0 0 0-.562.285v-.237h-.417v1.918h.42v-1.065a.448.448 0 0 1 .469-.509c.277 0 .417.181.417.506v1.068h.42v-1.065a.452.452 0 0 1 .469-.509c.285 0 .42.181.42.506v1.068h.426v-1.2zm2.351-.714h-.417v.232a.729.729 0 0 0-.605-.281 1.009 1.009 0 0 0 0 2.016.726.726 0 0 0 .605-.281v.232h.417zm2.11 1.341c0-.337-.252-.513-.671-.575l-.2-.029c-.181-.024-.324-.06-.324-.188s.136-.225.364-.225a1.233 1.233 0 0 1 .6.165l.181-.337a1.435 1.435 0 0 0-.783-.2c-.486 0-.8.232-.8.614 0 .314.232.506.662.566l.2.029c.228.033.337.092.337.2 0 .149-.152.232-.437.232a1.023 1.023 0 0 1-.638-.2l-.2.324a1.369 1.369 0 0 0 .83.25c.553 0 .874-.261.874-.625zm1.858.477l-.12-.357a.771.771 0 0 1-.37.109c-.208 0-.277-.129-.277-.321v-.866h.682V25.6h-.682v-.582h-.42v.582h-.39v.381h.39v.875c0 .446.172.711.665.711a1 1 0 0 0 .522-.15zm2.126-.859a.92.92 0 0 0-.912-1.008 1.009 1.009 0 0 0 .027 2.015 1.173 1.173 0 0 0 .787-.268l-.2-.308a.913.913 0 0 1-.558.2.535.535 0 0 1-.575-.469h1.425l.011-.163zm1.646-.953l-.3-.053a.566.566 0 0 0-.506.281v-.23h-.413v1.918h.417v-1.079c0-.317.136-.493.41-.493l.261.049.129-.393zm.558.953a.574.574 0 0 1 .578-.614.845.845 0 0 1 .5.172l.2-.337a1 1 0 0 0-.691-.228 1.008 1.008 0 1 0 0 2.016 1 1 0 0 0 .691-.228l-.2-.337a.841.841 0 0 1-.5.172.572.572 0 0 1-.576-.614zm3.473-.959H28v.232a.729.729 0 0 0-.605-.281 1.009 1.009 0 0 0 0 2.016.726.726 0 0 0 .605-.281v.232h.417zm1.765.005l-.3-.053a.566.566 0 0 0-.506.281V25.6h-.413v1.918h.417v-1.079c0-.317.136-.493.41-.493l.261.049.129-.393zm2.106-.776h-.417v1a.729.729 0 0 0-.605-.281 1.009 1.009 0 0 0 0 2.016.726.726 0 0 0 .605-.281v.232h.417zm1.158-8.165a7.223 7.223 0 1 0-7.223 7.223 7.224 7.224 0 0 0 7.223-7.223z" transform="translate(0 -4)"/></svg>