<svg xmlns="http://www.w3.org/2000/svg" viewBox="0 0 234.781 60.001"><defs><style>.cls-1{fill:#139ad6}.cls-2{fill:#263b80}.cls-3{fill:#232c65}</style></defs><g id="paypal" transform="translate(0 -187.6)"><path id="Path_6277" data-name="Path 6277" class="cls-1" d="M366.952 221.2h-12.671a2.476 2.476 0 0 0-1.863 1.491l-5.217 32.8a.988.988 0 0 0 1.118 1.118h6.708a.988.988 0 0 0 1.118-1.118l1.491-9.317a1.7 1.7 0 0 1 1.863-1.491h4.1q12.857 0 14.534-12.3a9.769 9.769 0 0 0-1.491-8.2c-2.236-1.863-5.59-2.981-9.689-2.981m1.491 12.3c-.745 4.472-4.1 4.472-7.453 4.472h-2.236l1.491-8.571c0-.373.373-.745 1.118-.745h.745c2.236 0 4.472 0 5.59 1.491.745.373.745 1.491.745 3.354" transform="translate(-185.461 -17.948)"/><g id="Group_602" data-name="Group 602" transform="translate(70.435 203.252)"><path id="Path_6278" data-name="Path 6278" class="cls-2" d="M170.952 221.2h-12.671a2.476 2.476 0 0 0-1.863 1.491l-5.217 32.8a.988.988 0 0 0 1.118 1.118h5.963a2.476 2.476 0 0 0 1.863-1.491l1.491-8.944a1.7 1.7 0 0 1 1.863-1.491h4.1q12.857 0 14.534-12.3a9.768 9.768 0 0 0-1.491-8.2c-2.236-1.863-5.217-2.981-9.689-2.981m1.491 12.3c-.745 4.472-4.1 4.472-7.453 4.472h-1.863l1.491-8.571c0-.373.373-.745 1.118-.745h.745c2.236 0 4.472 0 5.59 1.491.373.373.745 1.491.373 3.354" transform="translate(-151.2 -221.2)"/><path id="Path_6279" data-name="Path 6279" class="cls-2" d="M242.828 245.945h-5.963c-.373 0-1.118.373-1.118.745l-.373 1.863-.373-.745c-1.491-1.863-4.1-2.609-7.081-2.609-6.708 0-12.671 5.217-13.789 12.3a11.108 11.108 0 0 0 2.236 9.317c1.863 2.236 4.472 2.981 7.826 2.981a11.912 11.912 0 0 0 8.571-3.354l-.373 1.863a.988.988 0 0 0 1.118 1.118h5.59a2.476 2.476 0 0 0 1.863-1.491l3.354-20.87c-.373-.373-1.118-1.118-1.491-1.118m-8.571 11.925a7.208 7.208 0 0 1-7.081 5.963 5.96 5.96 0 0 1-4.1-1.491 7.947 7.947 0 0 1-1.118-4.472 6.647 6.647 0 0 1 10.807-4.472 6.506 6.506 0 0 1 1.491 4.472" transform="translate(-184.691 -234.02)"/></g><path id="Path_6280" data-name="Path 6280" class="cls-1" d="M438.028 245.945h-5.963c-.373 0-1.118.373-1.118.745l-.373 1.863-.373-.745c-1.491-1.863-4.1-2.609-7.081-2.609-6.708 0-12.671 5.217-13.789 12.3a11.108 11.108 0 0 0 2.236 9.317c1.863 2.236 4.472 2.981 7.826 2.981a11.912 11.912 0 0 0 8.571-3.354l-.373 1.863a.988.988 0 0 0 1.118 1.118h5.59a2.476 2.476 0 0 0 1.863-1.491l3.354-20.87c-.373-.373-.745-1.118-1.491-1.118m-8.571 11.925a7.208 7.208 0 0 1-7.081 5.963 5.96 5.96 0 0 1-4.1-1.491 7.948 7.948 0 0 1-1.118-4.472 6.647 6.647 0 0 1 10.807-4.472 4.277 4.277 0 0 1 1.491 4.472" transform="translate(-218.525 -30.768)"/><path id="Path_6281" data-name="Path 6281" class="cls-2" d="M312.7 246.8h-6.34a1.936 1.936 0 0 0-1.491.745l-8.2 12.671-3.727-11.926a1.722 1.722 0 0 0-1.863-1.118h-5.963c-.745 0-1.118.745-1.118 1.491l6.708 19.752-6.335 8.944c-.373.745 0 1.863.745 1.863h5.963a1.936 1.936 0 0 0 1.491-.745l20.5-29.441c1.118-1.118.373-2.236-.373-2.236" transform="translate(-151.702 -31.622)"/><path id="Path_6282" data-name="Path 6282" class="cls-1" d="M480.417 222.578l-5.217 33.54a.988.988 0 0 0 1.118 1.118h5.217a2.476 2.476 0 0 0 1.863-1.491l5.217-32.8a.988.988 0 0 0-1.118-1.118h-5.963c-.373-.373-.745 0-1.118.745" transform="translate(-253.834 -18.207)"/><path id="Path_6283" data-name="Path 6283" class="cls-2" d="M42.857 192.072C40.248 189.091 35.4 187.6 28.7 187.6H10.062a3.2 3.2 0 0 0-2.609 2.236L0 238.656a1.7 1.7 0 0 0 1.491 1.863h11.552l2.981-18.261V223a3.2 3.2 0 0 1 2.609-2.236h5.59c10.807 0 19.006-4.472 21.615-16.77v-1.114c.373-4.845-.373-7.826-2.981-10.807"/><path id="Path_6284" data-name="Path 6284" class="cls-1" d="M59.14 220.4v1.118c-2.609 12.671-10.807 16.77-21.615 16.77h-5.59a3.2 3.2 0 0 0-2.609 2.236L25.6 263.257a1.365 1.365 0 0 0 1.491 1.491h9.689a2.087 2.087 0 0 0 2.236-1.863v-.373l1.863-11.553v-.745a2.087 2.087 0 0 1 2.236-1.863h1.491c9.317 0 16.77-3.727 18.634-14.907.745-4.472.373-8.571-1.863-11.18a3.817 3.817 0 0 0-2.237-1.864" transform="translate(-13.675 -17.521)"/><path id="Path_6285" data-name="Path 6285" class="cls-3" d="M61.232 216.718c-.373 0-.745-.373-1.118-.373a1.369 1.369 0 0 1-1.114-.372 19.687 19.687 0 0 0-4.845-.373H39.617a1.369 1.369 0 0 0-1.118.373 2.049 2.049 0 0 0-1.118 1.863L34.4 237.215v.745a3.2 3.2 0 0 1 2.609-2.236H42.6c10.807 0 19.006-4.472 21.615-16.77a1.369 1.369 0 0 1 .373-1.118c-.745-.373-1.118-.745-1.863-.745-1.118-.373-1.118-.373-1.491-.373" transform="translate(-18.375 -14.957)"/></g></svg>