<svg xmlns="http://www.w3.org/2000/svg" viewBox="0 0 24.167 29"><defs><style>.cls-1{fill:#fff}</style></defs><path id="iconmonstr-paypal-1" class="cls-1" d="M26.167 11.795a10.514 10.514 0 0 1-.2 1.966c-1.023 5.34-4.526 7.185-9 7.185h-.697a1.115 1.115 0 0 0-1.1.953l-.97 6.15a1.117 1.117 0 0 1-1.1.951H9.8a.767.767 0 0 1-.759-.884l1.675-10.73.075-.068h2.6c6.326 0 10.282-3.163 11.447-9.145a4.923 4.923 0 0 1 1.326 3.621zM8.989 16.932c.14-1 .555-1.422 1.674-1.425h2.731c5.527 0 8.7-2.525 9.694-7.721C24.055 2.789 20.548 0 15.8 0H6.926a1.275 1.275 0 0 0-1.254 1.089C2.888 19.014 2.083 23.572 2 24.963a.77.77 0 0 0 .767.812h4.82l1.4-8.843z" transform="translate(-2)"/></svg>