<svg xmlns="http://www.w3.org/2000/svg" viewBox="0 0 43.5 29"><defs><style>.cls-1{fill:#fff}</style></defs><path id="iconmonstr-payment-3" class="cls-1" d="M35.637 16.97l.68 3.11h-2.436l1.169-3.01.39-1.028.2.928zM43.5 7.625v21.75A3.626 3.626 0 0 1 39.875 33H3.625A3.626 3.626 0 0 1 0 29.375V7.625A3.626 3.626 0 0 1 3.625 4h36.25A3.626 3.626 0 0 1 43.5 7.625zm-31.077 16.26l4.62-10.746h-3.109l-2.873 7.342-.306-1.492-1.03-4.948a1.228 1.228 0 0 0-1.33-.91H3.663l-.038.223a12.413 12.413 0 0 1 3.083 1.18l2.61 9.352h3.1zm8.742-10.755H18.23L16.4 23.9h2.93zm8.383 7.248c.011-1.225-.77-2.157-2.463-2.925-1.026-.5-1.655-.83-1.648-1.334 0-.448.531-.926 1.68-.926a5.4 5.4 0 0 1 2.2.413l.263.123.4-2.333a7.554 7.554 0 0 0-2.63-.453c-2.9 0-4.943 1.461-4.961 3.554-.016 1.548 1.459 2.411 2.572 2.925 1.142.527 1.526.865 1.521 1.336-.007.721-.912 1.051-1.756 1.051a6.148 6.148 0 0 1-2.762-.566l-.379-.172-.411 2.411a9.268 9.268 0 0 0 3.27.575c3.077 0 5.08-1.444 5.103-3.679zM39.875 23.9L37.5 13.14h-2.269a1.46 1.46 0 0 0-1.537.894L29.335 23.9h3.081l.618-1.619 3.759.005.357 1.613h2.724z" transform="translate(0 -4)"/></svg>