<svg xmlns="http://www.w3.org/2000/svg" viewBox="0 0 50.822 15.429"><defs><style>.cls-1{fill:snow}</style></defs><g id="Visa_2014_logo_detail" transform="translate(.001)"><g id="g3891"><path id="polygon3052" class="cls-1" d="M189.5 2.739h4.115l-2.575 14.946h-4.113z" transform="translate(-169.043 -2.595)"/><path id="path3054" class="cls-1" d="M277.208 9.884a10.723 10.723 0 0 0-3.688-.628c-4.066 0-6.93 2.027-6.954 4.933-.023 2.148 2.045 3.346 3.605 4.061 1.6.733 2.14 1.2 2.132 1.854-.01 1-1.279 1.46-2.462 1.46a8.7 8.7 0 0 1-3.873-.785l-.53-.238-.578 3.346a13.142 13.142 0 0 0 4.583.8c4.325 0 7.133-2 7.165-5.106.016-1.7-1.081-2.994-3.455-4.061-1.438-.691-2.319-1.153-2.31-1.853 0-.621.746-1.286 2.356-1.286a7.657 7.657 0 0 1 3.08.573l.369.172.558-3.239" transform="translate(-240.267 -9.256)"/><path id="path3056" class="cls-1" d="M395.88 12.146h-3.18a2.05 2.05 0 0 0-2.155 1.239l-6.111 13.7h4.321s.706-1.842.866-2.246l5.27.006c.123.523.5 2.24.5 2.24h3.818l-3.33-14.937m-5.074 9.634c.34-.861 1.639-4.178 1.639-4.178-.024.04.338-.865.546-1.427l.278 1.289.953 4.316h-3.416z" transform="translate(-348.388 -11.872)"/><g id="g3079" transform="translate(0 .261)"><path id="path3058" class="cls-1" d="M55.017 2.854l-4.029 10.192-.429-2.071a11.7 11.7 0 0 0-5.7-6.27l3.684 13.071h4.354l6.478-14.922h-4.358" transform="translate(-40.563 -2.845)"/><path id="path3060" class="cls-1" d="M6.688 2.757H.053L0 3.068C5.162 4.3 8.578 7.295 10 10.887L8.553 4.019a1.722 1.722 0 0 0-1.865-1.262" transform="translate(0 -2.757)"/></g><path id="path3041" class="cls-1" d="M49.93 31.174a.9.9 0 0 0-.5-.675l1.213.541" transform="translate(-45.471 -28.485)"/></g></g></svg>