<svg xmlns="http://www.w3.org/2000/svg" viewBox="0 0 172.137 60"><defs><style>.cls-1{fill:#3c58bf}.cls-2{fill:#293688}.cls-3{fill:#ffbc00}.cls-4{fill:#f7981d}.cls-5{fill:#ed7c00}.cls-6{fill:#051244}</style></defs><g id="visa" transform="translate(0 -175.6)"><path id="Path_6236" data-name="Path 6236" class="cls-1" d="M184.8 236.945l8.743-56.545H207.2l-8.47 56.545z" transform="translate(-121.684 -2.915)"/><path id="Path_6237" data-name="Path 6237" class="cls-2" d="M184.8 236.945L196 180.4h11.2l-8.47 56.545z" transform="translate(-121.684 -2.915)"/><path id="Path_6238" data-name="Path 6238" class="cls-1" d="M289.8 178.113a30.693 30.693 0 0 0-12.569-2.513c-13.662 0-23.5 7.853-23.5 19.162 0 8.482 6.831 12.88 12.3 15.707s7.1 4.712 7.1 7.225c0 3.77-4.372 5.654-8.2 5.654-5.465 0-8.47-.942-13.115-3.141l-1.913-.942-1.903 12.88a39.232 39.232 0 0 0 15.574 3.141c14.481 0 24.044-7.853 24.044-19.791 0-6.6-3.552-11.623-11.749-15.707-4.918-2.827-7.924-4.4-7.924-7.225 0-2.513 2.459-5.026 7.924-5.026a22.254 22.254 0 0 1 10.383 2.2l1.366.628 2.186-12.251z" transform="translate(-163.298)"/><path id="Path_6239" data-name="Path 6239" class="cls-2" d="M289.8 178.113a30.693 30.693 0 0 0-12.569-2.513c-13.662 0-21.039 7.853-21.039 19.162 0 8.482 4.372 12.88 9.836 15.707s7.1 4.712 7.1 7.225c0 3.77-4.372 5.654-8.2 5.654-5.465 0-8.47-.942-13.115-3.141l-1.913-.942-1.9 12.88a39.232 39.232 0 0 0 15.574 3.141c14.481 0 24.044-7.853 24.044-19.791 0-6.6-3.552-11.623-11.749-15.707-4.918-2.827-7.924-4.4-7.924-7.225 0-2.513 2.459-5.026 7.924-5.026a22.254 22.254 0 0 1 10.383 2.2l1.366.628 2.186-12.251z" transform="translate(-163.298)"/><path id="Path_6240" data-name="Path 6240" class="cls-1" d="M386 180.4c-3.279 0-5.738.314-7.1 4.084l-20.5 52.461h14.754l2.732-9.424h17.487l1.639 9.424h13.115L396.652 180.4zm-6.284 37.7c.82-2.827 5.465-16.649 5.465-16.649s1.093-3.456 1.913-5.654l.82 5.34s2.732 14.136 3.279 17.277h-11.481z" transform="translate(-235.992 -2.915)"/><path id="Path_6241" data-name="Path 6241" class="cls-2" d="M389.275 180.4c-3.279 0-5.738.314-7.1 4.084L358.4 236.945h14.754l2.732-9.424h17.487l1.639 9.424h13.115L396.652 180.4zm-9.563 37.7c1.093-3.141 5.465-16.649 5.465-16.649s1.093-3.456 1.913-5.654l.82 5.34s2.732 14.136 3.279 17.277h-11.477z" transform="translate(-235.992 -2.915)"/><path id="Path_6242" data-name="Path 6242" class="cls-1" d="M71.692 220.467l-1.366-8.167c-2.459-9.424-10.383-19.791-19.126-24.817l12.3 50.262h14.75l22.132-56.545H85.627z" transform="translate(-33.713 -3.401)"/><path id="Path_6243" data-name="Path 6243" class="cls-2" d="M71.692 220.467l-1.366-8.167c-2.459-9.424-10.383-19.791-19.126-24.817l12.3 50.262h14.75l22.132-56.545H88.359z" transform="translate(-33.713 -3.401)"/><path id="Path_6244" data-name="Path 6244" class="cls-3" d="M0 180.4l2.459.628c17.487 4.712 29.509 16.649 34.154 30.785l-4.918-26.7c-.82-3.77-3.279-4.712-6.284-4.712z" transform="translate(0 -2.915)"/><path id="Path_6245" data-name="Path 6245" class="cls-4" d="M0 180.4c17.487 4.712 31.968 16.963 36.613 31.1l-4.645-22.3c-.82-3.77-3.552-5.969-6.558-5.969z" transform="translate(0 -2.915)"/><path id="Path_6246" data-name="Path 6246" class="cls-5" d="M0 180.4c17.487 4.712 31.968 16.963 36.613 31.1l-3.279-12.251c-.82-3.77-1.913-7.539-5.738-9.11z" transform="translate(0 -2.915)"/><g id="Group_599" data-name="Group 599" transform="translate(17.76 183.768)"><path id="Path_6247" data-name="Path 6247" class="cls-6" d="M85.881 227.814l-9.29-10.681-4.372 11.937-1.093-7.853C68.667 211.793 60.743 201.426 52 196.4l12.3 50.262h14.75z" transform="translate(-52 -196.4)"/><path id="Path_6248" data-name="Path 6248" class="cls-6" d="M198.735 303.022L186.986 289.2l-2.186 13.822z" transform="translate(-139.444 -252.76)"/><path id="Path_6249" data-name="Path 6249" class="cls-6" d="M271.771 274.8c1.093 1.257 1.639 2.2 1.366 3.456 0 3.77-4.372 5.654-8.2 5.654-5.465 0-8.47-.942-13.115-3.141l-1.913-.942L248 292.706a39.232 39.232 0 0 0 15.574 3.141c8.743 0 15.847-2.827 19.946-7.853z" transform="translate(-181.058 -244.015)"/><path id="Path_6250" data-name="Path 6250" class="cls-6" d="M364 260.752h12.842l2.732-9.424h17.487l1.639 9.424h13.115l-4.645-22.932-16.393-18.22.82 5.026s2.732 14.136 3.279 17.277H383.4c1.093-3.141 5.465-16.649 5.465-16.649s1.093-3.456 1.913-5.654" transform="translate(-257.44 -210.49)"/></g></g></svg>