<svg xmlns="http://www.w3.org/2000/svg" viewBox="0 0 266.377 63.856"><defs><style>.cls-1{fill:#036cb5}.cls-2{fill:#b6b6b6}</style></defs><g id="WebMoney_logo_blue" transform="translate(-20.313 -16.758)"><path id="Combined-Shape" class="cls-1" d="M755.392 54.039a31.279 31.279 0 0 1 13.571 3.091c.648.292 1.3.642 1.945.992l-2.832 2.509-4.246-4.375-7.316 6.416-4.308-4.609-13.452 11.958 8.613 9.391L744 82.327l8.5 9.391-3.363 2.914 12.155 13.357 7.194-6.533 6.257 7a34.936 34.936 0 0 1-4.07 2.684 31.113 31.113 0 0 1-15.223 3.963 30.768 30.768 0 0 1-30.917-30.559c-.058-16.744 13.808-30.505 30.859-30.505zm-5.665 28.639l7.375-6.533 6.61 7.291-7.377 6.532zm5.253 12.6l7.316-6.591 6.668 7.29-7.376 6.533zm-10.5-25.022l7.373-6.533 6.608 7.291-7.376 6.533zm13.509-3.5l5.488-4.9 4.957 5.425-5.488 4.957zm9.8 22.456l5.486-4.9 4.957 5.481-5.488 4.9zm4.838 11.025l5.488-4.9 4.953 5.424-5.486 4.956zm2.242-25.2l3.658-3.267 3.3 3.618-3.657 3.265zm-4.72-10.791l3.658-3.324 3.305 3.674-3.661 3.266zm9.381 21.582l3.658-3.266 3.363 3.616-3.716 3.265zm-16.467-8.108l5.488-4.9 4.955 5.423-5.486 4.9z" transform="translate(-499.856 -37.282)"/><g id="Group_692" data-name="Group 692" transform="translate(20.312 27.503)"><g id="Group-27" transform="translate(0 1.943)"><path id="Fill-25" class="cls-1" d="M81.684 100.693h-.278l-5.225 19.845h-4.27L65.5 92.345h4.431l4.432 21.037h.277l5.143-21.037h3.523l5.5 21.037h.277l4.037-21.037h4.63l-6.412 28.193h-4.275z" transform="translate(-65.5 -92.345)"/></g><path id="Fill-28" class="cls-1" d="M178.38 128.236h9.059c-.2-4.174-2.216-5.843-4.352-5.843-2.414 0-4.275 1.869-4.708 5.843m12.224 7.478v3.023a13.9 13.9 0 0 1-7 1.829c-6.646 0-9.376-4.135-9.376-10.417 0-6.047 3.046-10.421 8.981-10.421 4.945 0 7.993 3.223 7.993 9.7v1.472H178.3c0 4.77 1.938 6.878 6.015 6.878a12.055 12.055 0 0 0 6.289-2.067" transform="translate(-140.509 -110.102)"/><path id="Fill-30" class="cls-1" d="M249.576 115.964a9.154 9.154 0 0 0 3.643.639c2.927 0 5.141-1.832 5.141-8.272 0-5.05-1.82-6.681-4.47-6.681a8.254 8.254 0 0 0-4.314 1.312zm.042-15.944a11.868 11.868 0 0 1 5.339-1.472c4.907 0 7.558 3.42 7.558 9.782 0 7.436-3.562 11.055-9.3 11.055a18.247 18.247 0 0 1-7.719-1.951V89.682l4.117-.993v11.331z" transform="translate(-189.682 -88.689)"/><path id="Fill-32" class="cls-1" d="M327.427 117.126h.2l8.464-22.226H341v28.195h-4.273v-20.44h-.357l-8.073 20.44h-2.53l-8.075-19.962h-.355v19.962h-3.562V94.9h4.789z" transform="translate(-236.785 -92.972)"/><path id="Fill-34" class="cls-1" d="M426.976 130.147c0-5.368-2.175-7.633-4.865-7.633-2.611 0-4.868 2.266-4.868 7.633 0 5.448 2.06 7.633 4.868 7.633s4.865-2.185 4.865-7.633m-13.886 0c0-6.961 3.8-10.42 9.021-10.42s9.022 3.458 9.022 10.42c0 6.8-3.6 10.419-9.022 10.419s-9.021-3.62-9.021-10.419" transform="translate(-305.302 -110.102)"/><path id="Fill-36" class="cls-1" d="M481.366 122.673a20.152 20.152 0 0 1 10.09-2.945c4.748 0 6.525 1.869 6.525 5.964v14.4h-4.112v-13.484c0-3.141-1.54-3.7-3.561-3.7a10.879 10.879 0 0 0-4.827 1.432v15.746h-4.115v-17.413z" transform="translate(-352.405 -110.103)"/><path id="Fill-38" class="cls-1" d="M553.793 128.236h9.06c-.195-4.174-2.215-5.843-4.352-5.843-2.414 0-4.271 1.869-4.708 5.843m12.225 7.478v3.023a13.9 13.9 0 0 1-7 1.829c-6.644 0-9.375-4.135-9.375-10.417 0-6.047 3.045-10.421 8.981-10.421 4.948 0 8 3.223 8 9.7v1.472h-12.9c0 4.77 1.939 6.878 6.015 6.878a12.05 12.05 0 0 0 6.288-2.067" transform="translate(-399.507 -110.102)"/><path id="Fill-40" class="cls-1" d="M625.873 119.728h4.235l-7.162 19.879c-1.981 5.488-4.392 8.351-8.942 8.351V144.7c2.692 0 4.351-2.148 5.3-5.093l-7.6-19.879h4.353l5.064 14.633h.237z" transform="translate(-442.33 -110.103)"/><g id="Group_691" data-name="Group 691" transform="translate(42.345 34.652)"><path id="Sapienti-sat" class="cls-2" d="M202.445 214.244v-1.717a9.271 9.271 0 0 0 4.186 1.119 4.431 4.431 0 0 0 2.536-.61 1.9 1.9 0 0 0 .885-1.646 1.786 1.786 0 0 0-.728-1.557 13.567 13.567 0 0 0-2.712-1.278 47.35 47.35 0 0 1-.885-.339l-.767-.319a5.11 5.11 0 0 1-.746-.359 8.983 8.983 0 0 0-.6-.36 2.074 2.074 0 0 1-.57-.428 11.94 11.94 0 0 0-.4-.482 1.575 1.575 0 0 1-.344-.577 7.669 7.669 0 0 1-.167-.669 4.071 4.071 0 0 1-.079-.819 3.382 3.382 0 0 1 1.248-2.733 5.249 5.249 0 0 1 3.45-1.037 11 11 0 0 1 3.872.718v1.815a8.384 8.384 0 0 0-3.735-.916 2.952 2.952 0 0 0-1.966.555 1.853 1.853 0 0 0-.649 1.477 1.777 1.777 0 0 0 .649 1.487 9.15 9.15 0 0 0 2.32 1.128 15.489 15.489 0 0 1 3.95 1.917 3.06 3.06 0 0 1 1.082 2.553 3.492 3.492 0 0 1-1.484 2.906 6.6 6.6 0 0 1-4.079 1.128 9.3 9.3 0 0 1-4.267-.957zm20 .657h-1.867l-.138-1.157a5.318 5.318 0 0 1-3.381 1.4 2.975 2.975 0 0 1-2.191-.769 2.616 2.616 0 0 1-.777-1.946 3.178 3.178 0 0 1 .226-1.187 3.44 3.44 0 0 1 .747-1.107 3.689 3.689 0 0 1 1.572-.869 8.476 8.476 0 0 1 2.527-.33h1.219v-.536a2.581 2.581 0 0 0-.492-1.826 2.291 2.291 0 0 0-1.651-.489 7.392 7.392 0 0 0-3.479 1.178v-1.6a9.919 9.919 0 0 1 4.167-.98 3.688 3.688 0 0 1 2.752.821 3.5 3.5 0 0 1 .767 2.472v6.924zm-2.044-4.57h-1.041q-3.224 0-3.224 1.937a1.128 1.128 0 0 0 .432.987 1.81 1.81 0 0 0 1.082.309 3.4 3.4 0 0 0 1.592-.4 3.359 3.359 0 0 0 1.16-.916v-1.917zm5.238 8.563v-12.752a7.058 7.058 0 0 1 2.044-1.06 7.263 7.263 0 0 1 2.32-.4q4.087 0 4.088 5.012a6.391 6.391 0 0 1-1.062 3.97 3.612 3.612 0 0 1-3.047 1.376 3.719 3.719 0 0 1-2.3-.7v4.55zm2.025-12.076v6.049a2.5 2.5 0 0 0 .992.566 3.563 3.563 0 0 0 1.052.189 1.991 1.991 0 0 0 1.7-.846 5.525 5.525 0 0 0 .618-3.083 4.392 4.392 0 0 0-.638-2.654 1.991 1.991 0 0 0-1.662-.839 3.574 3.574 0 0 0-2.061.618zm11.117-2.033V214.9h-2.044v-9.618zm-2.359-2.935a1.315 1.315 0 0 1 .4-.948 1.271 1.271 0 0 1 1.868 0 1.32 1.32 0 0 1 0 1.9 1.276 1.276 0 0 1-1.868 0 1.317 1.317 0 0 1-.399-.952zm10.015 11.894a6.15 6.15 0 0 0 3.125-1.037v1.517a6.765 6.765 0 0 1-3.479.919 4.3 4.3 0 0 1-3.528-1.378 5.91 5.91 0 0 1-1.13-3.852 5.849 5.849 0 0 1 1.159-3.791 4 4 0 0 1 3.3-1.44 3.621 3.621 0 0 1 2.93 1.24 5.512 5.512 0 0 1 1.041 3.631v.74h-6.407a3.915 3.915 0 0 0 .727 2.613 2.829 2.829 0 0 0 2.263.837zm-.61-7.722a1.967 1.967 0 0 0-1.553.737 4.013 4.013 0 0 0-.786 2.195h4.5a3.69 3.69 0 0 0-.688-2.2 1.854 1.854 0 0 0-1.472-.732zm6.634 8.879v-8.74a9.483 9.483 0 0 1 5.013-1.479 3.533 3.533 0 0 1 2.5.721 3.034 3.034 0 0 1 .747 2.274v7.223h-2.044v-6.765a1.878 1.878 0 0 0-.452-1.476 1.993 1.993 0 0 0-1.317-.38 4.707 4.707 0 0 0-2.4.719v7.9h-2.045zm13.4-9.737h3.106l-.492 1.357h-2.614v5.267q0 2 1.69 2a3.4 3.4 0 0 0 1.318-.279v1.276a6.063 6.063 0 0 1-2.2.361 2.618 2.618 0 0 1-2.163-.851 3.418 3.418 0 0 1-.688-2.226v-8.22l2.044-1.5v2.817zm7.107-.379V214.9h-2.045v-9.618zm-2.359-2.935a1.319 1.319 0 0 1 .4-.948 1.27 1.27 0 0 1 1.868 0 1.318 1.318 0 0 1 0 1.9 1.275 1.275 0 0 1-1.868 0 1.321 1.321 0 0 1-.402-.952zm16.276 3.633v1.594a5.289 5.289 0 0 0-2.987-1 2.387 2.387 0 0 0-1.259.3 1.035 1.035 0 0 0-.491.955 1.14 1.14 0 0 0 .54.989 6.958 6.958 0 0 0 1.7.747q.649.22.972.34a8.288 8.288 0 0 1 .856.4 3.066 3.066 0 0 1 .8.559 2.8 2.8 0 0 1 .482.739 2.353 2.353 0 0 1 .215 1.017 2.607 2.607 0 0 1-1.09 2.2 4.755 4.755 0 0 1-2.919.819 6.123 6.123 0 0 1-3.4-.88v-1.555a6.275 6.275 0 0 0 3.166 1.037q2.161 0 2.162-1.437a1.084 1.084 0 0 0-.128-.518 1.414 1.414 0 0 0-.295-.389 2.739 2.739 0 0 0-.541-.341 6.026 6.026 0 0 0-.629-.277q-.255-.089-.805-.289-.807-.3-1.279-.519a5.59 5.59 0 0 1-.943-.568 2.1 2.1 0 0 1-.688-.829 2.749 2.749 0 0 1-.216-1.137 2.55 2.55 0 0 1 .393-1.435 2.2 2.2 0 0 1 1.022-.86 5.851 5.851 0 0 1 1.15-.359 5.312 5.312 0 0 1 1.033-.1 6.717 6.717 0 0 1 3.177.796zm10.86 9.419h-1.867l-.138-1.157a5.315 5.315 0 0 1-3.38 1.4 2.978 2.978 0 0 1-2.192-.769 2.617 2.617 0 0 1-.776-1.946 3.175 3.175 0 0 1 .226-1.187 3.427 3.427 0 0 1 .747-1.107 3.694 3.694 0 0 1 1.572-.869 8.478 8.478 0 0 1 2.525-.33h1.22v-.537a2.591 2.591 0 0 0-.491-1.826 2.3 2.3 0 0 0-1.652-.489 7.392 7.392 0 0 0-3.48 1.178v-1.6a9.921 9.921 0 0 1 4.167-.98 3.688 3.688 0 0 1 2.752.821 3.5 3.5 0 0 1 .767 2.472v6.924zm-2.043-4.57h-1.043q-3.224 0-3.224 1.937a1.13 1.13 0 0 0 .432.987 1.807 1.807 0 0 0 1.081.309 3.406 3.406 0 0 0 1.592-.4 3.37 3.37 0 0 0 1.161-.916v-1.917zm7.184-5.167h3.106l-.493 1.357h-2.613v5.267q0 2 1.689 2a3.4 3.4 0 0 0 1.318-.279v1.276a6.058 6.058 0 0 1-2.2.361 2.615 2.615 0 0 1-2.16-.851 3.413 3.413 0 0 1-.689-2.226v-8.22l2.046-1.5v2.817z" transform="translate(-202.052 -200.435)"/></g></g></g></svg>