<svg id="WebMoney_logo_blue" xmlns="http://www.w3.org/2000/svg" viewBox="0 0 144.95 43.924"><defs><style>.cls-1{fill:#fff}.cls-2{fill:none}</style></defs><path id="Combined-Shape" class="cls-1" d="M739.1 54.039a14.768 14.768 0 0 1 6.407 1.459c.306.138.614.3.919.468l-1.337 1.184-2-2.066-3.454 3.029-2.035-2.174-6.352 5.646 4.066 4.434-1.586 1.381 4.012 4.434-1.588 1.376 5.739 6.307 3.4-3.085 2.954 3.306A16.514 16.514 0 0 1 746.32 81a14.69 14.69 0 0 1-7.188 1.871 14.417 14.417 0 1 1-.028-28.832zm-2.67 13.522l3.482-3.085 3.121 3.442L739.55 71zm2.48 5.949l3.454-3.112 3.148 3.442-3.482 3.085zm-4.958-11.81l3.481-3.085 3.12 3.442-3.483 3.084zm6.378-1.653l2.591-2.313 2.341 2.561-2.591 2.34zm4.625 10.6l2.59-2.313 2.34 2.588-2.591 2.315zm2.284 5.205l2.591-2.314 2.339 2.561-2.59 2.34zm1.059-11.9l1.727-1.542 1.56 1.708-1.727 1.542zm-2.229-5.095l1.727-1.569 1.561 1.735-1.728 1.542zm4.429 10.19l1.727-1.542 1.588 1.708-1.754 1.542zm-7.772-3.828l2.591-2.313 2.339 2.561-2.59 2.314z" transform="translate(-618.453 -46.127)"/><g id="Group_612" data-name="Group 612" transform="translate(9.59 12.985)"><g id="Group-27" transform="translate(0 .917)"><path id="Fill-25" class="cls-1" d="M73.141 96.287h-.131l-2.467 9.37h-2.016L65.5 92.345h2.092l2.093 9.932h.131l2.428-9.932h1.663l2.6 9.932h.131l1.906-9.932h2.186l-3.03 13.312h-2.019z" transform="translate(-65.5 -92.345)"/></g><path id="Fill-28" class="cls-1" d="M176.186 123.744h4.277c-.093-1.971-1.046-2.759-2.055-2.759-1.14 0-2.018.882-2.223 2.759m5.772 3.531v1.425a6.563 6.563 0 0 1-3.307.864c-3.138 0-4.427-1.953-4.427-4.919 0-2.855 1.438-4.92 4.241-4.92 2.335 0 3.774 1.522 3.774 4.581V125h-6.09c0 2.252.915 3.248 2.84 3.248a5.692 5.692 0 0 0 2.969-.976" transform="translate(-158.306 -115.183)"/><path id="Fill-30" class="cls-1" d="M247.425 101.567a4.322 4.322 0 0 0 1.72.3c1.382 0 2.427-.865 2.427-3.906 0-2.384-.859-3.154-2.11-3.154a3.9 3.9 0 0 0-2.037.619zm.02-7.528a5.6 5.6 0 0 1 2.521-.7c2.317 0 3.569 1.615 3.569 4.619 0 3.511-1.682 5.22-4.389 5.22a8.616 8.616 0 0 1-3.644-.921v-13.1l1.944-.469v5.35z" transform="translate(-219.146 -88.689)"/><path id="Fill-32" class="cls-1" d="M320.221 105.393h.094l4-10.5h2.318v13.317h-2.018v-9.651h-.169l-3.812 9.651h-1.194l-3.813-9.425h-.167v9.425h-1.682V94.9h2.261z" transform="translate(-277.425 -93.989)"/><path id="Fill-34" class="cls-1" d="M419.646 124.647c0-2.534-1.027-3.6-2.3-3.6-1.233 0-2.3 1.07-2.3 3.6 0 2.572.973 3.6 2.3 3.6s2.3-1.032 2.3-3.6m-6.556 0c0-3.287 1.794-4.92 4.259-4.92s4.26 1.633 4.26 4.92c0 3.21-1.7 4.919-4.26 4.919s-4.259-1.709-4.259-4.919" transform="translate(-362.198 -115.183)"/><path id="Fill-36" class="cls-1" d="M481.366 121.118a9.514 9.514 0 0 1 4.764-1.39c2.242 0 3.081.883 3.081 2.816v6.8h-1.941v-6.365c0-1.483-.727-1.746-1.681-1.746a5.137 5.137 0 0 0-2.279.676v7.434h-1.943v-8.223z" transform="translate(-420.477 -115.183)"/><path id="Fill-38" class="cls-1" d="M551.6 123.744h4.278c-.092-1.971-1.046-2.759-2.055-2.759-1.14 0-2.017.882-2.223 2.759m5.772 3.531v1.425a6.562 6.562 0 0 1-3.306.864c-3.137 0-4.427-1.953-4.427-4.919 0-2.855 1.438-4.92 4.24-4.92 2.336 0 3.775 1.522 3.775 4.581V125h-6.091c0 2.252.915 3.248 2.84 3.248a5.689 5.689 0 0 0 2.969-.976" transform="translate(-478.755 -115.183)"/><path id="Fill-40" class="cls-1" d="M618.4 119.728h2l-3.382 9.386c-.935 2.591-2.074 3.943-4.222 3.943v-1.539c1.271 0 2.055-1.014 2.5-2.4l-3.587-9.386h2.055l2.391 6.909h.112z" transform="translate(-531.737 -115.184)"/><g id="Group_611" data-name="Group 611" transform="translate(19.993 16.361)"><path id="Sapienti-sat" class="cls-1" d="M202.238 206.955v-.811a4.377 4.377 0 0 0 1.977.528 2.093 2.093 0 0 0 1.2-.288.9.9 0 0 0 .418-.777.843.843 0 0 0-.344-.735 6.405 6.405 0 0 0-1.281-.6c-.217-.081-.355-.135-.418-.16s-.182-.075-.362-.151a2.41 2.41 0 0 1-.352-.169c-.056-.039-.15-.1-.283-.17a.978.978 0 0 1-.269-.2 4.23 4.23 0 0 0-.19-.227.744.744 0 0 1-.163-.273 3.931 3.931 0 0 1-.079-.316 1.919 1.919 0 0 1-.037-.386 1.6 1.6 0 0 1 .589-1.291 2.478 2.478 0 0 1 1.629-.489 5.191 5.191 0 0 1 1.828.339v.857a3.958 3.958 0 0 0-1.763-.433 1.394 1.394 0 0 0-.928.262.875.875 0 0 0-.306.7.839.839 0 0 0 .306.7 4.322 4.322 0 0 0 1.1.533 7.314 7.314 0 0 1 1.865.9 1.445 1.445 0 0 1 .511 1.206 1.649 1.649 0 0 1-.7 1.372 3.115 3.115 0 0 1-1.926.532 4.39 4.39 0 0 1-2.022-.453zm9.444.31h-.882l-.065-.546a2.511 2.511 0 0 1-1.6.66 1.4 1.4 0 0 1-1.035-.363 1.235 1.235 0 0 1-.367-.919 1.5 1.5 0 0 1 .107-.56 1.624 1.624 0 0 1 .353-.523 1.742 1.742 0 0 1 .742-.41 4 4 0 0 1 1.193-.156h.576v-.254a1.218 1.218 0 0 0-.232-.862 1.082 1.082 0 0 0-.78-.231 3.49 3.49 0 0 0-1.643.556v-.757a4.683 4.683 0 0 1 1.967-.463 1.741 1.741 0 0 1 1.3.388 1.652 1.652 0 0 1 .362 1.167v3.27zm-.965-2.158h-.492q-1.522 0-1.522.915a.533.533 0 0 0 .2.466.855.855 0 0 0 .511.146 1.6 1.6 0 0 0 .751-.189 1.586 1.586 0 0 0 .548-.433zm2.473 4.043v-6.02a3.333 3.333 0 0 1 .965-.5 3.43 3.43 0 0 1 1.1-.189q1.93 0 1.93 2.366a3.017 3.017 0 0 1-.5 1.874 1.705 1.705 0 0 1-1.439.65 1.756 1.756 0 0 1-1.086-.328v2.148zm.956-5.7v2.856a1.179 1.179 0 0 0 .469.267 1.682 1.682 0 0 0 .5.089.94.94 0 0 0 .8-.4 2.609 2.609 0 0 0 .292-1.456 2.074 2.074 0 0 0-.3-1.253.94.94 0 0 0-.785-.4 1.688 1.688 0 0 0-.977.296zm5.249-.96v4.776h-.965v-4.541zm-1.115-1.39a.621.621 0 0 1 .19-.448.6.6 0 0 1 .882 0 .623.623 0 0 1 0 .9.6.6 0 0 1-.882 0 .622.622 0 0 1-.19-.452zm4.729 5.616a2.9 2.9 0 0 0 1.476-.489v.716a3.194 3.194 0 0 1-1.643.434 2.03 2.03 0 0 1-1.666-.651 2.79 2.79 0 0 1-.534-1.819 2.762 2.762 0 0 1 .547-1.79 1.89 1.89 0 0 1 1.559-.68 1.709 1.709 0 0 1 1.384.585 2.6 2.6 0 0 1 .491 1.714v.349H221.6a1.848 1.848 0 0 0 .343 1.233 1.336 1.336 0 0 0 1.066.401zm-.288-3.646a.929.929 0 0 0-.733.348 1.894 1.894 0 0 0-.371 1.036h2.125a1.742 1.742 0 0 0-.325-1.04.876.876 0 0 0-.696-.341zm3.132 4.192v-4.127a4.478 4.478 0 0 1 2.367-.7 1.668 1.668 0 0 1 1.178.34 1.433 1.433 0 0 1 .353 1.074v3.411h-.965v-3.194a.887.887 0 0 0-.213-.7.941.941 0 0 0-.622-.179 2.222 2.222 0 0 0-1.132.339v3.731h-.966zm6.325-4.6h1.467l-.232.641h-1.234v2.497q0 .943.8.942a1.6 1.6 0 0 0 .622-.132v.6a2.862 2.862 0 0 1-1.04.17 1.236 1.236 0 0 1-1.021-.4 1.614 1.614 0 0 1-.325-1.051v-3.881l.965-.707v1.33zm3.356-.179v4.776h-.966v-4.541zm-1.114-1.383a.623.623 0 0 1 .19-.448.6.6 0 0 1 .882 0 .622.622 0 0 1 0 .9.6.6 0 0 1-.882 0 .624.624 0 0 1-.19-.452zm7.685 1.715v.753a2.5 2.5 0 0 0-1.411-.47 1.127 1.127 0 0 0-.594.142.489.489 0 0 0-.232.451.538.538 0 0 0 .255.467 3.284 3.284 0 0 0 .8.353q.306.1.459.16a3.909 3.909 0 0 1 .4.189 1.447 1.447 0 0 1 .376.264 1.322 1.322 0 0 1 .228.349 1.111 1.111 0 0 1 .1.48 1.231 1.231 0 0 1-.514 1.037 2.245 2.245 0 0 1-1.378.387 2.891 2.891 0 0 1-1.606-.416v-.734a2.963 2.963 0 0 0 1.495.489q1.02 0 1.021-.678a.512.512 0 0 0-.06-.245.667.667 0 0 0-.139-.184 1.293 1.293 0 0 0-.256-.161 2.838 2.838 0 0 0-.3-.131l-.38-.136q-.381-.142-.6-.245a2.638 2.638 0 0 1-.445-.268.993.993 0 0 1-.325-.391 1.3 1.3 0 0 1-.1-.537 1.2 1.2 0 0 1 .185-.677 1.04 1.04 0 0 1 .482-.406 2.762 2.762 0 0 1 .543-.169 2.508 2.508 0 0 1 .488-.048 3.172 3.172 0 0 1 1.503.378zm5.128 4.447h-.881l-.065-.546a2.51 2.51 0 0 1-1.6.66 1.406 1.406 0 0 1-1.035-.363 1.236 1.236 0 0 1-.367-.919 1.5 1.5 0 0 1 .107-.56 1.617 1.617 0 0 1 .353-.523 1.744 1.744 0 0 1 .742-.41 4 4 0 0 1 1.192-.156h.576v-.254a1.223 1.223 0 0 0-.232-.862 1.084 1.084 0 0 0-.78-.231 3.491 3.491 0 0 0-1.643.556v-.754a4.684 4.684 0 0 1 1.967-.463 1.741 1.741 0 0 1 1.3.388 1.654 1.654 0 0 1 .362 1.167v3.27zm-.964-2.158h-.492q-1.522 0-1.522.915a.534.534 0 0 0 .2.466.854.854 0 0 0 .511.146 1.608 1.608 0 0 0 .752-.189 1.591 1.591 0 0 0 .548-.433v-.9zm3.392-2.44h1.466l-.233.641h-1.234v2.495q0 .943.8.942a1.6 1.6 0 0 0 .622-.132v.6a2.86 2.86 0 0 1-1.04.17 1.235 1.235 0 0 1-1.02-.4 1.612 1.612 0 0 1-.325-1.051v-3.881l.966-.707v1.33z" transform="translate(-202.052 -200.435)"/></g></g><path id="Rectangle_1345" data-name="Rectangle 1345" class="cls-2" d="M0 0h144.95v43.924H0z"/></svg>