<svg id="Group_1475" data-name="Group 1475" xmlns="http://www.w3.org/2000/svg" viewBox="0 0 229 143.294"><defs><style>.cls-1{fill:#95989a}.cls-2{fill:#515151}.cls-3{fill:snow}</style></defs><g id="Group_1476" data-name="Group 1476"><g id="Group_1473" data-name="Group 1473"><rect id="bg" class="cls-1" width="229" height="143.294" rx="5"/><path id="Rectangle_1715" data-name="Rectangle 1715" class="cls-2" transform="translate(20.706 106.49)" d="M0 0h28.102v11.832H0z"/><path id="Rectangle_1723" data-name="Rectangle 1723" class="cls-2" transform="translate(180.897 106.49)" d="M0 0h28.102v11.832H0z"/><path id="Rectangle_1716" data-name="Rectangle 1716" class="cls-2" transform="translate(54.854 106.49)" d="M0 0h36.976v11.832H0z"/><path id="Rectangle_1717" data-name="Rectangle 1717" class="cls-2" transform="translate(20.706 66.556)" d="M0 0h188.292v16.269H0z"/><g id="Visa_2014_logo_detail" transform="translate(22.389 17.776)"><g id="g3891"><path id="polygon3052" class="cls-3" d="M188.983 2.739h3.29l-2.058 11.949h-3.288z" transform="translate(-172.629 -2.624)"/><path id="path3054" class="cls-3" d="M274.732 9.758a8.572 8.572 0 0 0-2.948-.5c-3.25 0-5.54 1.621-5.559 3.943-.018 1.717 1.635 2.675 2.882 3.246 1.28.586 1.711.959 1.7 1.482-.008.8-1.023 1.167-1.968 1.167a6.955 6.955 0 0 1-3.1-.627l-.424-.19-.462 2.675a10.507 10.507 0 0 0 3.664.637c3.458 0 5.7-1.6 5.728-4.082.012-1.359-.864-2.394-2.762-3.246-1.15-.553-1.854-.922-1.847-1.481 0-.5.6-1.028 1.884-1.028a6.121 6.121 0 0 1 2.462.458l.295.138.446-2.59" transform="translate(-245.199 -9.256)"/><path id="path3056" class="cls-3" d="M393.585 12.146h-2.542a1.639 1.639 0 0 0-1.722.991l-4.885 10.95h3.454s.565-1.472.693-1.8l4.213.005c.1.418.4 1.79.4 1.79h3.052l-2.662-11.941m-4.056 7.7c.272-.688 1.311-3.34 1.311-3.34-.019.032.27-.692.436-1.14l.222 1.03.761 3.45h-2.731z" transform="translate(-355.617 -11.926)"/><g id="g3079" transform="translate(0 .209)"><path id="path3058" class="cls-3" d="M52.98 2.854L49.759 11l-.343-1.656a9.357 9.357 0 0 0-4.556-5.01l2.94 10.45h3.48l5.184-11.93H52.98" transform="translate(-41.425 -2.847)"/><path id="path3060" class="cls-3" d="M5.346 2.757H.042L0 3.005c4.127.989 6.857 3.379 7.991 6.251L6.837 3.765a1.376 1.376 0 0 0-1.491-1.008" transform="translate(0 -2.757)"/></g><path id="path3041" class="cls-3" d="M49.83 31.039a.722.722 0 0 0-.4-.54l.969.432" transform="translate(-46.265 -28.889)"/></g></g></g></g></svg>