<svg xmlns="http://www.w3.org/2000/svg" viewBox="0 0 149 181"><defs><style>.cls-1{fill:#a8a8a8;fill-rule:evenodd}</style></defs><path id="iconmonstr-airport-17" class="cls-1" d="M182.667 39.23a10.642 10.642 0 0 0-10.643-10.647H44.31A10.649 10.649 0 0 0 33.667 39.23v159.706a10.642 10.642 0 0 0 10.643 10.647h127.714a10.635 10.635 0 0 0 10.643-10.647zM54.952 188.289h106.429V49.877H54.952zM76.238 167H140.1v-10.652H76.238zm31.929-105.56A42.588 42.588 0 1 1 65.6 104.028a42.6 42.6 0 0 1 42.567-42.588M91.276 118.2l.053.266a61.539 61.539 0 0 0 5.771 15.843A32.81 32.81 0 0 1 78.76 118.2zm24 0a50.848 50.848 0 0 1-7.109 16.013 50.576 50.576 0 0 1-7.109-16.013zm22.286 0a33.434 33.434 0 0 1-18.274 15.992 62.391 62.391 0 0 0 5.768-15.992h12.505zm3.182-20.634H126.26a74.32 74.32 0 0 1 .138 11.094h14.347a34.953 34.953 0 0 0 0-11.094m-24.064 0H99.642a63.109 63.109 0 0 0-.142 11.094h17.33a63.291 63.291 0 0 0-.149-11.094m-26.607 0H75.589a34.643 34.643 0 0 0 0 11.094h14.346a73.124 73.124 0 0 1 .106-10.817zm47.488-9.54a33.292 33.292 0 0 0-18.6-16.109A70.947 70.947 0 0 1 124.7 87.8l.053.224h12.814zm-22.637 0a61.325 61.325 0 0 0-6.758-15.939 61.534 61.534 0 0 0-6.767 15.939zm-36.164 0h12.824a74.187 74.187 0 0 1 5.832-16.216A32.838 32.838 0 0 0 78.76 88.026" transform="translate(-33.666 -28.583)"/></svg>