<svg xmlns="http://www.w3.org/2000/svg" viewBox="0 0 22 22"><defs><style>.cls-1{fill:#50af95}.cls-2{isolation:isolate}.cls-3{fill:#fff}</style></defs><title>info</title><g id="Слой_2" data-name="Слой 2"><g id="Слой_1-2" data-name="Слой 1"><g id="Group_1302" data-name="Group 1302"><path class="cls-1" d="M0 0h22v22H0z" id="Rectangle_1694" data-name="Rectangle 1694"/><g id="i" class="cls-2"><g class="cls-2"><path class="cls-3" d="M11 7a.78.78 0 0 1-.58-.24.78.78 0 0 1-.24-.59.81.81 0 0 1 .24-.6.78.78 0 0 1 .58-.27.81.81 0 0 1 .6.24.83.83 0 0 1 0 1.19.81.81 0 0 1-.6.27zm.63 10H10.3V9h1.28z"/></g></g></g></g></g></svg>