<svg xmlns="http://www.w3.org/2000/svg" viewBox="0 0 232 278.4"><defs><style>.cls-1{fill:#b52525}</style></defs><path id="iconmonstr-file-33" class="cls-1" d="M127.5 167.353c.742 3.1.893 7.876-.244 11a8.585 8.585 0 0 1-8.746 6.125h-7.389v-24.595h5.754c5.5 0 9.315 2.007 10.626 7.47zm35.856-100.34C187.1 61.457 219.094 70.25 234 80.69 216.67 57.524 173.332 14.477 147.789.858c13.421 13.549 18.131 49.126 15.567 66.155zm-86.5 92.278h-6.335v10.939h6.334c2.726 0 5.417-.313 6.682-2.633a7.191 7.191 0 0 0 0-5.672c-1.264-2.3-3.956-2.633-6.682-2.633zM234 127.6v150.8H2V0h97.544c56.353 0 38.674 92.8 38.674 92.8C173.146 84.158 234 87.928 234 127.6zM93.547 159.628c-1.856-5.614-7.03-8.828-14.2-8.828H60v42.758h10.521v-14.814h8.828c7.18 0 12.342-3.213 14.2-8.851a16.518 16.518 0 0 0-.002-10.265zm39.521-3.515c-3.445-3.468-8.248-5.313-13.908-5.313h-18.548v42.758h18.548c6.229 0 11.148-2.1 14.639-6.206 6.427-7.645 6.801-23.606-.731-31.239zM176 150.8h-30.485v42.758h10.521v-17.076h17.284v-8.491h-17.284v-8.1H176V150.8z" transform="translate(-2)"/></svg>