<svg xmlns="http://www.w3.org/2000/svg" viewBox="0 0 67.689 67.688"><defs><style>.cls-1{fill:none}.cls-2{fill:#fff}</style></defs><g id="Group_1375" data-name="Group 1375"><g id="Search"><path id="Rectangle_693" data-name="Rectangle 693" class="cls-1" d="M0 0h47.966v47.966H0z"/><path id="Path_208" data-name="Path 208" class="cls-2" d="M67.689 61.729L53.64 47.68A29.148 29.148 0 0 0 59.6 29.8 29.617 29.617 0 0 0 29.8 0 29.617 29.617 0 0 0 0 29.8a29.617 29.617 0 0 0 29.8 29.8 29.148 29.148 0 0 0 17.88-5.96l14.049 14.049zM8.514 29.8A21.079 21.079 0 0 1 29.8 8.514 21.079 21.079 0 0 1 51.086 29.8 21.079 21.079 0 0 1 29.8 51.086 21.079 21.079 0 0 1 8.514 29.8z"/></g><g id="Add" transform="translate(12.723 12.723)"><path id="Union_1" data-name="Union 1" class="cls-2" d="M14.843 33.928V19.085H0v-4.242h14.843V0h4.243v14.843h14.843v4.241H19.086v14.844z"/></g></g></svg>