<svg xmlns="http://www.w3.org/2000/svg" viewBox="0 0 44 44"><defs><style>.cls-1{fill:#fff}.cls-2{fill:none}.cls-3{fill:#a8272d}</style></defs><g id="Group_1544" data-name="Group 1544" transform="translate(-959.112 -2091.207)"><circle id="Ellipse_5" data-name="Ellipse 5" class="cls-1" cx="16.288" cy="16.288" r="16.288" transform="translate(962.191 2094.285)"/><g id="Search" transform="translate(959.112 2091.207)"><path id="Rectangle_693" data-name="Rectangle 693" class="cls-2" d="M0 0h16v16H0z"/><path id="Path_208" data-name="Path 208" class="cls-3" d="M44 40.126l-9.132-9.132a18.947 18.947 0 0 0 3.874-11.623A19.252 19.252 0 0 0 19.371 0 19.252 19.252 0 0 0 0 19.371a19.252 19.252 0 0 0 19.371 19.371 18.947 18.947 0 0 0 11.623-3.874L40.126 44zM5.535 19.371A13.7 13.7 0 0 1 19.371 5.535a13.7 13.7 0 0 1 13.837 13.836 13.7 13.7 0 0 1-13.837 13.837A13.7 13.7 0 0 1 5.535 19.371z"/></g><g id="Add" transform="translate(169.438 1929.532)"><path id="Union_1" data-name="Union 1" class="cls-3" d="M-4615.624 10V5.626H-4620v-1.25h4.376V0h1.25v4.376h4.374v1.25h-4.375V10z" transform="translate(5423.999 175.999)"/></g></g></svg>