<svg xmlns="http://www.w3.org/2000/svg" viewBox="0 0 44 34.223"><defs><style>.cls-1{fill:#231f20}.cls-2{fill:#ff5f00}.cls-3{fill:#eb001b}.cls-4{fill:#f79e1b}</style></defs><g id="Group_1479" data-name="Group 1479" transform="translate(-.001)"><path id="Path_9408" data-name="Path 9408" class="cls-1" d="M26.918 96.889v-2.252a1.331 1.331 0 0 0-.386-1.032 1.35 1.35 0 0 0-1.035-.394 1.4 1.4 0 0 0-1.27.638 1.329 1.329 0 0 0-1.194-.638 1.2 1.2 0 0 0-1.058.533V93.3h-.785v3.588h.794v-1.973a.837.837 0 0 1 .216-.683.85.85 0 0 1 .668-.27c.521 0 .786.338.786.946v2h.793v-1.993a.841.841 0 0 1 .218-.682.853.853 0 0 1 .667-.271c.537 0 .794.338.794.946v2zm11.74-3.589h-1.292v-1.087h-.793V93.3h-.718v.713h.733v1.651c0 .833.325 1.329 1.254 1.329a1.853 1.853 0 0 0 .982-.278l-.227-.668a1.458 1.458 0 0 1-.7.2c-.378 0-.521-.24-.521-.6v-1.633h1.285zm6.7-.09a1.067 1.067 0 0 0-.952.525V93.3h-.778v3.588h.786v-2.01c0-.593.257-.923.756-.923a1.287 1.287 0 0 1 .491.09l.242-.751a1.69 1.69 0 0 0-.559-.1zm-10.134.375a2.716 2.716 0 0 0-1.474-.375c-.914 0-1.511.435-1.511 1.149 0 .585.438.946 1.247 1.058l.378.053c.431.06.635.173.635.375 0 .278-.287.435-.824.435a1.932 1.932 0 0 1-1.2-.375l-.378.608a2.62 2.62 0 0 0 1.564.465c1.043 0 1.647-.488 1.647-1.171s-.476-.961-1.262-1.073l-.378-.053c-.34-.045-.612-.113-.612-.353s.257-.42.688-.42a2.34 2.34 0 0 1 1.134.308zm21.05-.375a1.067 1.067 0 0 0-.952.525V93.3h-.778v3.588h.786v-2.01c0-.593.257-.923.756-.923a1.287 1.287 0 0 1 .491.09l.242-.751a1.69 1.69 0 0 0-.559-.1zm-10.123 1.878a1.806 1.806 0 0 0 .546 1.361 1.832 1.832 0 0 0 1.381.515 1.9 1.9 0 0 0 1.3-.428l-.378-.63a1.594 1.594 0 0 1-.945.323 1.152 1.152 0 0 1 0-2.3 1.594 1.594 0 0 1 .945.323l.378-.631a1.9 1.9 0 0 0-1.3-.428 1.832 1.832 0 0 0-1.381.515 1.806 1.806 0 0 0-.546 1.361zm7.361 0V93.3h-.786v.435a1.375 1.375 0 0 0-1.134-.525 1.877 1.877 0 1 0 0 3.753 1.375 1.375 0 0 0 1.134-.525v.435h.786zm-2.925 0a1.08 1.08 0 1 1 .295.812 1.073 1.073 0 0 1-.295-.812zM41.1 93.211a1.877 1.877 0 1 0 .053 3.753 2.205 2.205 0 0 0 1.5-.488l-.378-.578a1.726 1.726 0 0 1-1.05.375 1 1 0 0 1-1.081-.878h2.686v-.3a1.711 1.711 0 0 0-1.715-1.877zm0 .7a.893.893 0 0 1 .914.871h-1.886a.927.927 0 0 1 .96-.871zM60.793 95.1v-3.24h-.756v1.877a1.375 1.375 0 0 0-1.134-.525 1.877 1.877 0 1 0 0 3.753 1.375 1.375 0 0 0 1.134-.525v.435h.756zm1.307 1.268a.369.369 0 0 1 .261.1.375.375 0 0 1 .079.113.347.347 0 0 1 0 .278.36.36 0 0 1-.2.188.358.358 0 0 1-.144.03.378.378 0 0 1-.34-.218.351.351 0 0 1 0-.278.36.36 0 0 1 .2-.188.381.381 0 0 1 .155-.026zm0 .634a.269.269 0 0 0 .11-.022.285.285 0 0 0 .087-.06.27.27 0 0 0-.087-.435.273.273 0 0 0-.11-.023.285.285 0 0 0-.11.023.267.267 0 0 0-.091.435.291.291 0 0 0 .212.083zm.023-.447a.152.152 0 0 1 .1.03.094.094 0 0 1 .034.079.09.09 0 0 1-.026.068.133.133 0 0 1-.079.034l.11.124h-.087l-.1-.124h-.035v.124h-.072v-.33zm-.083.064v.09h.083a.08.08 0 0 0 .045 0 .037.037 0 0 0 0-.034.037.037 0 0 0 0-.034.08.08 0 0 0-.045 0zM57.887 95.1a1.08 1.08 0 1 1 .295.812 1.073 1.073 0 0 1-.295-.812zm-26.537 0v-1.8h-.786v.435a1.375 1.375 0 0 0-1.134-.525 1.877 1.877 0 1 0 0 3.753 1.375 1.375 0 0 0 1.134-.525v.435h.786zm-2.925 0a1.069 1.069 0 1 1 .29.815 1.073 1.073 0 0 1-.3-.815z" transform="translate(-18.925 -62.854)"/><g id="_Group_" data-name="&lt;Group&gt;"><path id="Rectangle_1722" data-name="Rectangle 1722" class="cls-2" transform="translate(16.088 2.89)" d="M0 0h11.823v21.462H0z"/><path id="_Path_" data-name="&lt;Path&gt;" class="cls-3" d="M31.856 28.776a13.636 13.636 0 0 1 5.161-10.71 13.436 13.436 0 0 0-18.277 1.468 13.7 13.7 0 0 0 0 18.479 13.436 13.436 0 0 0 18.276 1.468 13.636 13.636 0 0 1-5.161-10.706z" transform="translate(-15.155 -15.153)"/><path id="Path_9409" data-name="Path 9409" class="cls-4" d="M95.263 28.773a13.629 13.629 0 0 1-7.607 12.25A13.425 13.425 0 0 1 73.4 39.48a13.686 13.686 0 0 0 0-21.416 13.425 13.425 0 0 1 14.256-1.544 13.629 13.629 0 0 1 7.607 12.25z" transform="translate(-51.263 -15.151)"/><path id="Path_9410" data-name="Path 9410" class="cls-4" d="M127.76 72.585v-.435h.176v-.09h-.447v.09h.191v.435zm.867 0v-.525h-.135l-.158.375-.158-.375h-.12v.525h.1v-.394l.146.342h.1l.146-.342v.4z" transform="translate(-85.051 -50.527)"/></g></g></svg>