<svg id="Group_11" data-name="Group 11" xmlns="http://www.w3.org/2000/svg" viewBox="0 0 182.096 100.984"><defs><style>.cls-1{fill:#fff}</style></defs><g id="Group_1" data-name="Group 1" transform="translate(81.552 27.061)"><path id="Path_1" data-name="Path 1" class="cls-1" d="M60.006 30.55l-9.119-.019v-.3h.579c.261-.037.516-.072.765-.1a.916.916 0 0 0 .587-.279 1.447 1.447 0 0 0 .271-.829l.037-.856v-8.826l-.037-.856a1.438 1.438 0 0 0-.279-.838 1.012 1.012 0 0 0-.625-.3 6.867 6.867 0 0 0-.728-.066 16.246 16.246 0 0 1-.587-.027v-.3l8.615-.019a22.291 22.291 0 0 1 2.741.13 3.78 3.78 0 0 1 1.651.579 3.265 3.265 0 0 1 1.034 1.109 3.161 3.161 0 0 1 .374 1.576 2.294 2.294 0 0 1-.792 1.957 4.405 4.405 0 0 1-1.586.792 8.3 8.3 0 0 1-1.948.2v.149a14.837 14.837 0 0 1 2.042.1 5.93 5.93 0 0 1 1.361.382 2.727 2.727 0 0 1 1.2 1.05 3.468 3.468 0 0 1 .523 1.981 3.236 3.236 0 0 1-1.921 3.115 5.616 5.616 0 0 1-2.052.438q-1.212.057-2.106.057zm-.672-7.386a1.291 1.291 0 0 0 1.044-.914 6.073 6.073 0 0 0 .261-1.94 5.042 5.042 0 0 0-.345-1.837c-.231-.59-.516-.93-.858-1.016a4.739 4.739 0 0 0-.951-.149c-.292-.013-.55-.024-.774-.037v6.023c.236 0 .476 0 .718-.01a5.045 5.045 0 0 0 .906-.119zm.691 6.845q.616-.149.885-1.172a8.362 8.362 0 0 0 .271-2.139 4.839 4.839 0 0 0-.42-1.962q-.418-.957-1.016-1.032t-.923-.083a20.67 20.67 0 0 0-.494-.01h-.616v6.583h.224q.671 0 1.119-.027a5.354 5.354 0 0 0 .971-.157z" transform="translate(-50.87 -16.845)"/><path id="Path_2" data-name="Path 2" class="cls-1" d="M61.141 28.8v-.3l.5-.019c.361-.037.579-.123.652-.261a2.251 2.251 0 0 0 .112-.895l.019-.858v-4.458l-.019-.765a3.132 3.132 0 0 0-.112-.672c-.05-.149-.274-.242-.672-.281l-.486-.037v-.3h4.848v1.566a6.492 6.492 0 0 1 .548-1.007q.421-.671 1.949-.672a2.069 2.069 0 0 1 1.52.629 2.025 2.025 0 0 1 .625 1.483 1.905 1.905 0 0 1-.587 1.427 1.994 1.994 0 0 1-1.444.569 1.7 1.7 0 0 1-1.222-.494 1.528 1.528 0 0 1-.513-1.129 2.149 2.149 0 0 1 .168-.858c.125-.236.248-.478.374-.728-.063-.087-.125-.13-.186-.13a1 1 0 0 0-.838.579 2.083 2.083 0 0 0-.356 1.082v4.309l.019.933a1.36 1.36 0 0 0 .128.709c.085.125.3.205.644.242l.551.037v.3h-6.222z" transform="translate(-44.676 -15.092)"/><path id="Path_3" data-name="Path 3" class="cls-1" d="M73.44 30.585h-6.061v-.3l.447-.019c.361-.037.579-.123.654-.261a2.221 2.221 0 0 0 .112-.895l.019-.858V23.8l-.019-.765a3.131 3.131 0 0 0-.112-.672c-.05-.149-.274-.242-.672-.281l-.5-.037v-.3h4.9v6.507l.019.858a2.243 2.243 0 0 0 .113.89c.074.143.292.232.652.271l.447.019v.3zm-4.886-11.953a1.655 1.655 0 0 1 .534-1.239 1.789 1.789 0 0 1 1.284-.513 1.85 1.85 0 0 1 1.3.494 1.64 1.64 0 0 1 .534 1.258 1.677 1.677 0 0 1-.534 1.258 1.812 1.812 0 0 1-1.3.513 1.789 1.789 0 0 1-1.284-.513 1.677 1.677 0 0 1-.534-1.258z" transform="translate(-40.957 -16.88)"/><path id="Path_4" data-name="Path 4" class="cls-1" d="M71.959 25.035h.241a8.945 8.945 0 0 0 .97 2.219 3.632 3.632 0 0 0 1.053 1.063 2.584 2.584 0 0 0 1.39.354 1.292 1.292 0 0 0 .8-.252.823.823 0 0 0 .335-.7 1.218 1.218 0 0 0-.261-.858 3.713 3.713 0 0 0-.821-.606q-.56-.327-1.3-.728a9.232 9.232 0 0 1-1.231-.784 2.837 2.837 0 0 1-.765-.867 2.25 2.25 0 0 1-.271-1.119 2.481 2.481 0 0 1 1.044-2.135 4.24 4.24 0 0 1 2.554-.755 3.469 3.469 0 0 1 1.342.261q.616.317 1.249.616a.528.528 0 0 0 .447-.317 1.438 1.438 0 0 0 .186-.745h.261v3.748h-.242q-.149-.447-.374-.988a4.892 4.892 0 0 0-.643-1.09 3.527 3.527 0 0 0-.885-.848 2.179 2.179 0 0 0-1.193-.3 1.344 1.344 0 0 0-.848.252.763.763 0 0 0-.327.625.93.93 0 0 0 .232.672 3.353 3.353 0 0 0 .681.513q.447.272 1.222.689t1.39.83a3.73 3.73 0 0 1 1.034 1.015 2.642 2.642 0 0 1-.68 3.553 4.654 4.654 0 0 1-2.639.728 3.877 3.877 0 0 1-1.566-.335q-.745-.373-1.473-.765c-.162 0-.3.13-.43.391a2.4 2.4 0 0 0-.224.838h-.261v-4.175z" transform="translate(-38.152 -15.19)"/><path id="Path_5" data-name="Path 5" class="cls-1" d="M78.553 22.02h-1.268v-.5a4.558 4.558 0 0 0 1.326-.625 9.8 9.8 0 0 0 2.369-2.248 6.853 6.853 0 0 0 .646-1.044h.524v3.711h2.426l-.26.709h-2.165v5.072l.037.951a1.819 1.819 0 0 0 .351 1.212 1.2 1.2 0 0 0 1.945-.2 2.768 2.768 0 0 0 .333-1.351h.261a2.92 2.92 0 0 1-.612 1.837q-.611.794-2.632.792a3.992 3.992 0 0 1-2.288-.672 2.147 2.147 0 0 1-.994-1.884v-5.76z" transform="translate(-34.938 -16.446)"/><path id="Path_6" data-name="Path 6" class="cls-1" d="M92.472 24.4a4.2 4.2 0 0 1-1.5 3.291 5.188 5.188 0 0 1-3.533 1.315 5.132 5.132 0 0 1-3.59-1.306 4.45 4.45 0 0 1 .018-6.583 5.5 5.5 0 0 1 7.124-.01 4.215 4.215 0 0 1 1.481 3.293zm-3.711-.019q0-.262-.037-1.044a27.776 27.776 0 0 1-.037-.933 3.891 3.891 0 0 0-.308-1.659 1.011 1.011 0 0 0-.96-.652 1 1 0 0 0-.914.681 3.834 3.834 0 0 0-.317 1.632c0 .236-.01.526-.027.867s-.034.712-.046 1.109c0 .175.013.531.037 1.073s.037.854.037.941a3.891 3.891 0 0 0 .311 1.664.993.993 0 0 0 1.872-.019 3.819 3.819 0 0 0 .317-1.642q0-.373.019-.885c.01-.341.027-.714.053-1.128z" transform="translate(-31.851 -15.119)"/><path id="Path_7" data-name="Path 7" class="cls-1" d="M95.322 30.543h-6.067v-.3l.451-.019c.362-.037.58-.123.656-.261a2.221 2.221 0 0 0 .112-.895l.019-.858V19l-.019-.765a3.131 3.131 0 0 0-.112-.672c-.05-.149-.274-.242-.672-.279l-.635-.037v-.3h5.034v11.265l.019.858a2.243 2.243 0 0 0 .112.887c.075.143.292.232.652.271l.447.019v.3z" transform="translate(-27.839 -16.838)"/><path id="Path_8" data-name="Path 8" class="cls-1" d="M60.006 43.91l-9.119-.019v-.3h.579c.261-.037.516-.072.765-.1a.916.916 0 0 0 .587-.279 1.447 1.447 0 0 0 .271-.829l.037-.856V32.7l-.037-.856a1.438 1.438 0 0 0-.279-.838 1.012 1.012 0 0 0-.625-.3 6.868 6.868 0 0 0-.728-.066 16.246 16.246 0 0 1-.587-.027v-.3l8.615-.019a22.291 22.291 0 0 1 2.741.13 3.78 3.78 0 0 1 1.651.579 3.265 3.265 0 0 1 1.034 1.109 3.161 3.161 0 0 1 .374 1.576 2.294 2.294 0 0 1-.792 1.957 4.406 4.406 0 0 1-1.586.792 8.3 8.3 0 0 1-1.948.2v.149a14.836 14.836 0 0 1 2.042.1 5.93 5.93 0 0 1 1.361.382 2.727 2.727 0 0 1 1.2 1.05 3.468 3.468 0 0 1 .523 1.981 3.236 3.236 0 0 1-1.921 3.115 5.616 5.616 0 0 1-2.052.438q-1.212.06-2.106.058zm-.672-7.384a1.291 1.291 0 0 0 1.044-.914 6.073 6.073 0 0 0 .261-1.94 5.042 5.042 0 0 0-.345-1.837c-.231-.59-.516-.93-.858-1.016a4.739 4.739 0 0 0-.951-.149c-.292-.013-.55-.024-.774-.037v6.023c.236 0 .476 0 .718-.01a5.045 5.045 0 0 0 .906-.12zm.691 6.844q.616-.149.885-1.172a8.362 8.362 0 0 0 .271-2.139 4.839 4.839 0 0 0-.42-1.962q-.418-.957-1.016-1.032t-.923-.083a20.67 20.67 0 0 0-.494-.01h-.616v6.583h.224q.671 0 1.119-.027a5.354 5.354 0 0 0 .971-.158z" transform="translate(-50.87 -8.787)"/><path id="Path_9" data-name="Path 9" class="cls-1" d="M61.141 42.157v-.3l.5-.019c.361-.037.579-.123.652-.261a2.251 2.251 0 0 0 .112-.895l.019-.858v-4.455l-.019-.765a3.132 3.132 0 0 0-.112-.672c-.05-.149-.274-.242-.672-.281l-.486-.037v-.3h4.848v1.566a6.492 6.492 0 0 1 .548-1.007q.421-.671 1.949-.672a2.069 2.069 0 0 1 1.52.629 2.025 2.025 0 0 1 .625 1.483 1.905 1.905 0 0 1-.587 1.427 1.994 1.994 0 0 1-1.444.569 1.7 1.7 0 0 1-1.222-.494 1.528 1.528 0 0 1-.513-1.129 2.149 2.149 0 0 1 .168-.858c.125-.236.248-.478.374-.728-.063-.087-.125-.13-.186-.13a1 1 0 0 0-.838.579 2.083 2.083 0 0 0-.356 1.082v4.309l.019.933a1.36 1.36 0 0 0 .128.709c.085.125.3.205.644.242l.551.037v.3h-6.222z" transform="translate(-44.676 -7.034)"/><path id="Path_10" data-name="Path 10" class="cls-1" d="M77.5 37.766a4.2 4.2 0 0 1-1.5 3.291 5.188 5.188 0 0 1-3.533 1.315 5.132 5.132 0 0 1-3.589-1.315 4.452 4.452 0 0 1 .019-6.583 5.5 5.5 0 0 1 7.123-.01 4.21 4.21 0 0 1 1.48 3.302zm-3.711-.019q0-.262-.037-1.044a27.776 27.776 0 0 1-.037-.933 3.891 3.891 0 0 0-.308-1.659 1.011 1.011 0 0 0-.96-.652 1 1 0 0 0-.914.68 3.834 3.834 0 0 0-.317 1.632c0 .236-.01.526-.029.867s-.034.712-.046 1.109c0 .175.013.531.037 1.073s.037.854.037.941a3.891 3.891 0 0 0 .308 1.659.994.994 0 0 0 1.877-.02 3.819 3.819 0 0 0 .317-1.642q0-.373.019-.885t.054-1.126z" transform="translate(-40.879 -7.061)"/><path id="Path_11" data-name="Path 11" class="cls-1" d="M79.1 39.921q.984-1.005 1.967-2.028t1.36-1.493a1.356 1.356 0 0 0 .38-.707.222.222 0 0 0-.122-.213.888.888 0 0 0-.345-.083l-.633-.037v-.3h3.524v.3q-.188 0-.366.01a3.241 3.241 0 0 0-.487.075 1.776 1.776 0 0 0-.516.186 4.472 4.472 0 0 0-.609.475q-.4.353-.694.651t-.534.558q.914 1.489 1.864 3.024t1.39 2.195a4.057 4.057 0 0 0 .652.829 1.227 1.227 0 0 0 .587.223l.447.019v.3h-6.314v-.3l.37-.019q.481 0 .481-.3a1.5 1.5 0 0 0-.25-.614q-.25-.428-.768-1.247t-1-1.563l-.351.372v1.34l.019.856a2.646 2.646 0 0 0 .1.939c.067.143.274.213.62.213l.353.019v.3h-5.9v-.3l.43-.019c.361-.037.577-.123.652-.261a2.221 2.221 0 0 0 .112-.895l.019-.858V32.36l-.019-.765a1.143 1.143 0 0 0-.159-.7 1.021 1.021 0 0 0-.681-.252l-.709-.037v-.3h5.165v8.38z" transform="translate(-36.936 -8.78)"/><path id="Path_12" data-name="Path 12" class="cls-1" d="M91.287 39.387a4.481 4.481 0 0 1-1.682 2.191 4.709 4.709 0 0 1-2.729.792 5.359 5.359 0 0 1-3.625-1.222 4.6 4.6 0 0 1 .046-6.695 5.136 5.136 0 0 1 3.522-1.3 4.3 4.3 0 0 1 3.288 1.212 4.167 4.167 0 0 1 1.14 2.964h-5.723a9.368 9.368 0 0 0 .1 1.371 5.135 5.135 0 0 0 .39 1.351 2.6 2.6 0 0 0 .814 1.053 2.126 2.126 0 0 0 1.324.4 2.5 2.5 0 0 0 1.81-.643 4.235 4.235 0 0 0 1.023-1.613zm-3.3-2.424c-.013-.136-.022-.3-.027-.484s-.01-.423-.01-.709a4.2 4.2 0 0 0-.277-1.725.981.981 0 0 0-.962-.587.826.826 0 0 0-.822.569 6.22 6.22 0 0 0-.324 1.744l-.037 1.193h2.459z" transform="translate(-32.195 -7.061)"/><path id="Path_13" data-name="Path 13" class="cls-1" d="M88.126 42.157v-.3l.5-.019c.361-.037.579-.123.652-.261a2.251 2.251 0 0 0 .112-.895l.019-.858v-4.455l-.019-.765a3.132 3.132 0 0 0-.112-.672c-.05-.149-.274-.242-.672-.281l-.486-.037v-.3h4.848v1.566a6.491 6.491 0 0 1 .548-1.007q.421-.671 1.949-.672a2.069 2.069 0 0 1 1.52.625 2.025 2.025 0 0 1 .625 1.483 1.905 1.905 0 0 1-.587 1.427 1.994 1.994 0 0 1-1.444.569 1.7 1.7 0 0 1-1.222-.494 1.528 1.528 0 0 1-.513-1.129 2.149 2.149 0 0 1 .168-.858c.125-.236.248-.478.374-.728-.063-.087-.125-.13-.186-.13a1 1 0 0 0-.838.579 2.083 2.083 0 0 0-.356 1.082v4.313l.019.933a1.36 1.36 0 0 0 .128.709c.085.125.3.205.644.242l.551.037v.3h-6.222z" transform="translate(-28.4 -7.034)"/><path id="Path_14" data-name="Path 14" class="cls-1" d="M103.812 41.271q.442 0 .616-.553a4.4 4.4 0 0 0 .172-1.318h.261a2.416 2.416 0 0 1-1.64 2.833 4.253 4.253 0 0 1-1.193.139 2.535 2.535 0 0 1-1.427-.41 1.645 1.645 0 0 1-.755-1.1 2.153 2.153 0 0 1-1 1.135 3.817 3.817 0 0 1-1.818.378 2.836 2.836 0 0 1-1.94-.654 2.612 2.612 0 0 1-.279-3.317 1.933 1.933 0 0 1 .951-.7 9.783 9.783 0 0 1 1.493-.224 10.649 10.649 0 0 0 1.483-.215 2.322 2.322 0 0 0 .687-.265.535.535 0 0 0 .205-.476l-.018-1.7a2.212 2.212 0 0 0-.184-1.047.825.825 0 0 0-.776-.317 1.085 1.085 0 0 0-.619.168.506.506 0 0 0-.248.431c0 .138.133.309.4.515a1.106 1.106 0 0 1 .4.928 1.34 1.34 0 0 1-.515 1.031 2.522 2.522 0 0 1-1.674.449 1.84 1.84 0 0 1-1.113-.346 1.09 1.09 0 0 1-.476-.927 2.081 2.081 0 0 1 1.3-1.855 6.485 6.485 0 0 1 3.092-.693 6.2 6.2 0 0 1 2.785.627 2.049 2.049 0 0 1 1.271 1.938v4.29a2.948 2.948 0 0 0 .111.919.417.417 0 0 0 .448.336zm-4.187-.56v-3.562l-.056-.019a1.526 1.526 0 0 1-.617.42 1.95 1.95 0 0 0-.627.382 1.519 1.519 0 0 0-.277.718 5.831 5.831 0 0 0-.1 1.09 5.68 5.68 0 0 0 .128 1.343.575.575 0 0 0 .59.5.83.83 0 0 0 .617-.279 1.279 1.279 0 0 0 .342-.593z" transform="translate(-24.646 -7.061)"/><path id="Path_15" data-name="Path 15" class="cls-1" d="M108.215 34.186a1.669 1.669 0 0 1 .635-.745 1.871 1.871 0 0 1 1.044-.279 1.551 1.551 0 0 1 1.044.335 1.142 1.142 0 0 1 .391.914 1.016 1.016 0 0 1-.3.745 1.048 1.048 0 0 1-.778.3 1.138 1.138 0 0 1-.75-.252.9.9 0 0 1-.306-.737.822.822 0 0 1 .17-.494.717.717 0 0 0 .17-.345c0-.05-.05-.075-.147-.075a1 1 0 0 0-.534.2 1.408 1.408 0 0 0-.479.587 2.443 2.443 0 0 1 .526.885 3.311 3.311 0 0 1 .188 1.109A2.78 2.78 0 0 1 108 38.613a3.948 3.948 0 0 1-2.543.867 4.793 4.793 0 0 1-1.759-.337 1.448 1.448 0 0 0-.749.128.548.548 0 0 0-.356.526.416.416 0 0 0 .281.391 1.181 1.181 0 0 0 .6.149h3.971a3.4 3.4 0 0 1 2.443.871 2.894 2.894 0 0 1 .914 2.187 2.529 2.529 0 0 1-1.539 2.4 7.974 7.974 0 0 1-3.609.77 9.714 9.714 0 0 1-2.974-.412q-1.277-.414-1.278-1.444a.929.929 0 0 1 .382-.779 2.289 2.289 0 0 1 .96-.4 4.024 4.024 0 0 1-1.165-.957 2.01 2.01 0 0 1-.42-1.291 2.215 2.215 0 0 1 .616-1.579 2.508 2.508 0 0 1 1.473-.781 3.327 3.327 0 0 1-1.072-1.09 3.04 3.04 0 0 1 .689-3.795 3.955 3.955 0 0 1 2.583-.877 3.839 3.839 0 0 1 2.767 1.026zm-5.109 9.51a1.311 1.311 0 0 0-.755.308.922.922 0 0 0-.234.681q0 .745 1.092 1.129a7.561 7.561 0 0 0 2.507.382 8.563 8.563 0 0 0 2.854-.391q1.082-.392 1.082-1.249a.666.666 0 0 0-.484-.689 4.406 4.406 0 0 0-1.38-.168h-4.681zm3.226-7.365l-.056-1.361a2.707 2.707 0 0 0-.186-1.1.662.662 0 0 0-.652-.41.653.653 0 0 0-.625.42 2.6 2.6 0 0 0-.2 1.09l-.056 1.361.056 1.361a2.45 2.45 0 0 0 .205 1.073.668.668 0 0 0 .633.42.653.653 0 0 0 .625-.41 2.512 2.512 0 0 0 .2-1.082z" transform="translate(-20.537 -7.063)"/><path id="Path_16" data-name="Path 16" class="cls-1" d="M117.144 39.387a4.48 4.48 0 0 1-1.682 2.191 4.707 4.707 0 0 1-2.727.792 5.358 5.358 0 0 1-3.625-1.222 4.6 4.6 0 0 1 .046-6.695 5.136 5.136 0 0 1 3.522-1.3 4.3 4.3 0 0 1 3.288 1.212 4.168 4.168 0 0 1 1.14 2.964h-5.725a9.589 9.589 0 0 0 .1 1.371 5.135 5.135 0 0 0 .39 1.351 2.6 2.6 0 0 0 .814 1.053 2.123 2.123 0 0 0 1.324.4 2.5 2.5 0 0 0 1.81-.643 4.255 4.255 0 0 0 1.023-1.613zm-3.3-2.424c-.013-.136-.022-.3-.027-.484s-.01-.423-.01-.709a4.2 4.2 0 0 0-.277-1.725.981.981 0 0 0-.962-.587.828.828 0 0 0-.824.569 6.22 6.22 0 0 0-.324 1.744l-.037 1.193h2.461z" transform="translate(-16.599 -7.061)"/><path id="Path_17" data-name="Path 17" class="cls-1" d="M61.787 50.514h-4.159v4.42l.037.858a1.191 1.191 0 0 0 .215.83 1.415 1.415 0 0 0 .811.289l.672.056v.3h-8.317v-.3l.933-.075a1.2 1.2 0 0 0 .755-.317 1.468 1.468 0 0 0 .266-.822l.037-.858v-8.857L53 45.18a1.559 1.559 0 0 0-.252-.83 1.207 1.207 0 0 0-.774-.308l-.97-.075v-.3h8.354v.3l-.672.056a1.254 1.254 0 0 0-.811.289 1.236 1.236 0 0 0-.215.83l-.032.858v4.1h4.159V46l-.037-.858a1.486 1.486 0 0 0-.252-.83 1.278 1.278 0 0 0-.774-.289l-.672-.056v-.3h8.354v.3l-.97.075a1.2 1.2 0 0 0-.755.317 1.473 1.473 0 0 0-.271.821l-.037.858V54.9l.037.858a1.559 1.559 0 0 0 .252.83 1.2 1.2 0 0 0 .774.308l.933.075v.3h-8.317v-.3l.672-.056a1.292 1.292 0 0 0 .782-.281 1.525 1.525 0 0 0 .242-.838l.037-.858v-4.424z" transform="translate(-50.786 -.722)"/><path id="Path_18" data-name="Path 18" class="cls-1" d="M72.756 51.126a4.2 4.2 0 0 1-1.5 3.291 5.188 5.188 0 0 1-3.533 1.315 5.132 5.132 0 0 1-3.589-1.315 4.45 4.45 0 0 1 .018-6.583 5.5 5.5 0 0 1 7.123-.01 4.206 4.206 0 0 1 1.481 3.302zm-3.71-.018q0-.262-.037-1.044a27.776 27.776 0 0 1-.037-.933 3.891 3.891 0 0 0-.308-1.659 1.011 1.011 0 0 0-.96-.652 1 1 0 0 0-.914.68 3.834 3.834 0 0 0-.317 1.632c0 .236-.01.526-.027.867s-.034.712-.046 1.109c0 .175.013.531.037 1.073s.037.854.037.941a3.891 3.891 0 0 0 .308 1.659.994.994 0 0 0 1.874-.019 3.819 3.819 0 0 0 .317-1.642q0-.373.019-.885c.008-.341.029-.718.055-1.127z" transform="translate(-43.743 .997)"/><path id="Path_19" data-name="Path 19" class="cls-1" d="M81.616 55.475h-4.9v-1.193a3.033 3.033 0 0 1-1.053 1.026 3.52 3.52 0 0 1-1.725.354 3.615 3.615 0 0 1-2.275-.765 2.428 2.428 0 0 1-1.007-2.07v-4.138l-.019-.765a1.143 1.143 0 0 0-.159-.7 1.021 1.021 0 0 0-.681-.252l-.523-.037v-.3h4.979v6.1l.019.765a2 2 0 0 0 .268 1.146.919.919 0 0 0 .8.382 1.036 1.036 0 0 0 .859-.335 3.451 3.451 0 0 0 .434-.689v-5.038l-.037-.858a1.281 1.281 0 0 0-.2-.838 1.322 1.322 0 0 0-.811-.3l-.571-.037v-.3h5.221v6.788l.019.765a1.143 1.143 0 0 0 .159.7 1.017 1.017 0 0 0 .681.252l.523.037v.3z" transform="translate(-39.772 1.068)"/><path id="Path_20" data-name="Path 20" class="cls-1" d="M77.7 51.756h.242a8.945 8.945 0 0 0 .97 2.219 3.632 3.632 0 0 0 1.053 1.063 2.584 2.584 0 0 0 1.39.354 1.292 1.292 0 0 0 .8-.252.823.823 0 0 0 .335-.7 1.218 1.218 0 0 0-.261-.858 3.713 3.713 0 0 0-.821-.606q-.56-.327-1.3-.728a9.233 9.233 0 0 1-1.231-.784 2.837 2.837 0 0 1-.765-.867 2.25 2.25 0 0 1-.271-1.119 2.481 2.481 0 0 1 1.059-2.134 4.24 4.24 0 0 1 2.554-.755 3.469 3.469 0 0 1 1.342.261q.616.317 1.249.616a.528.528 0 0 0 .447-.317 1.438 1.438 0 0 0 .186-.745h.261v3.748h-.242q-.149-.447-.374-.988a4.892 4.892 0 0 0-.643-1.09 3.527 3.527 0 0 0-.885-.848 2.178 2.178 0 0 0-1.193-.3 1.344 1.344 0 0 0-.848.252.763.763 0 0 0-.327.625.93.93 0 0 0 .232.672 3.353 3.353 0 0 0 .681.513q.447.272 1.222.689t1.39.83a3.73 3.73 0 0 1 1.026 1.016 2.642 2.642 0 0 1-.68 3.553 4.654 4.654 0 0 1-2.639.728 3.877 3.877 0 0 1-1.566-.335q-.745-.373-1.473-.765c-.162 0-.3.13-.43.391a2.4 2.4 0 0 0-.224.838H77.7v-4.177z" transform="translate(-34.687 .927)"/><path id="Path_21" data-name="Path 21" class="cls-1" d="M92.683 52.748A4.481 4.481 0 0 1 91 54.94a4.709 4.709 0 0 1-2.729.792 5.358 5.358 0 0 1-3.625-1.222 4.6 4.6 0 0 1 .046-6.695 5.136 5.136 0 0 1 3.522-1.3 4.3 4.3 0 0 1 3.288 1.212 4.168 4.168 0 0 1 1.14 2.964H86.92a9.588 9.588 0 0 0 .1 1.371 5.135 5.135 0 0 0 .39 1.351 2.6 2.6 0 0 0 .814 1.053 2.123 2.123 0 0 0 1.324.4 2.5 2.5 0 0 0 1.81-.643 4.255 4.255 0 0 0 1.023-1.613zm-3.3-2.424c-.013-.136-.022-.3-.027-.484s-.01-.423-.01-.709a4.2 4.2 0 0 0-.277-1.725.98.98 0 0 0-.962-.587.828.828 0 0 0-.824.569 6.22 6.22 0 0 0-.324 1.744l-.037 1.193h2.461z" transform="translate(-31.353 .997)"/></g><g id="Group_10" data-name="Group 10"><path id="Path_22" data-name="Path 22" class="cls-1" d="M3.078 70.189V19.213L.944 17.425v54.262l15 4.226 18.833 12.735v-2.719L17.442 74.207z" transform="translate(.569 10.51)"/><path id="Path_23" data-name="Path 23" class="cls-1" d="M22.264 65.992v.486l18.22-12.323-.175-.367z" transform="translate(13.428 32.441)"/><path id="Path_24" data-name="Path 24" class="cls-1" d="M33.566 54.567l.534 1.193 14.831-4.126-1.379-.96z" transform="translate(20.245 30.563)"/><path id="Path_25" data-name="Path 25" class="cls-1" d="M16.286 16.916l-.442-.954-13.279 3.727.994.8z" transform="translate(1.547 9.627)"/><g id="Group_2" data-name="Group 2" transform="translate(0 19.329)"><path id="Path_26" data-name="Path 26" class="cls-1" d="M49.615 72.7V20.568L35.74 16.626l-4.486-3.017-.749 2.05 3.957 2.676 13.229 3.727v49.283z" transform="translate(18.4 -11.121)"/><path id="Path_27" data-name="Path 27" class="cls-1" d="M11.356 17.5l3.577-2.421-.123-.4-3.6 2.434z" transform="translate(6.763 -10.476)"/><path id="Path_28" data-name="Path 28" class="cls-1" d="M54.823 15.047l-4.293-2.9-.362.994 4.215 2.85 15.28 4.309v54.988L54.382 79.6 35.346 92.468 16.314 79.6 1.029 75.288V20.3l15.285-4.31 4.293-2.9-.314-1.029-4.42 2.99L0 19.52v56.547l15.873 4.473 19.473 13.172L54.823 80.54l15.87-4.473V19.52z" transform="translate(0 -12.057)"/><path id="Path_29" data-name="Path 29" class="cls-1" d="M3.17 70.335l12.96 3.654 17.3 11.7 17.308-11.7L63.7 70.335V21.482L50.742 17.83l-3.918-2.65-.3.821 3.854 2.605 12.471 3.517V69.7l-12.471 3.511L33.434 84.67 16.491 73.211 4.02 69.7V22.123l12.471-3.517 3.7-2.5-.257-.846-3.8 2.57L3.17 21.482z" transform="translate(1.912 -10.173)"/></g><g id="Group_8" data-name="Group 8" transform="translate(9.801 31.365)"><path id="Path_30" data-name="Path 30" class="cls-1" d="M42.85 22.44l-.882-.428a1.917 1.917 0 0 0-3.052-1.48l-.883-.428a5.353 5.353 0 1 0-4.673 9.632l.949.46-.725 1.494-.268-.13a.891.891 0 1 0-.778 1.6l.266.13-.476.984-.035-.018a.772.772 0 0 0-.673 1.39l.035.016-3.04 6.263-3.04-6.263.035-.016a.772.772 0 0 0-.673-1.39l-.035.018-.476-.984.268-.13a.891.891 0 1 0-.778-1.6l-.268.13-.724-1.49.949-.46A5.353 5.353 0 1 0 19.2 20.1l-.882.428a1.917 1.917 0 0 0-3.052 1.48l-.882.428a5.353 5.353 0 0 0 4.673 9.633l.949-.462.725 1.493-.268.13a.892.892 0 1 0 .778 1.6l.268-.13.476.983-.035.018a.771.771 0 0 0 .673 1.388l.035-.016 4.154 8.562-2.275 4.688-4.457-2.153-.644 1.33 2.089 1.015-.425.885-2.089-1.013-.646 1.329 2.091 1.015-.428.882-2.089-1.013-.646 1.331 4.457 2.161-.212.439a1.621 1.621 0 0 0 2.918 1.416l4.162-8.58 4.162 8.58a1.621 1.621 0 0 0 2.918-1.416l-.213-.439 4.457-2.161-.644-1.331-2.086 1.013-.428-.882 2.089-1.015-.644-1.329-2.096 1.013-.428-.882 2.089-1.018-.644-1.329-4.457 2.161-2.275-4.688 4.154-8.562.034.016a.772.772 0 1 0 .675-1.388l-.035-.018.478-.983.268.13a.892.892 0 0 0 .778-1.6l-.27-.139.725-1.493.949.462a5.354 5.354 0 0 0 4.676-9.629zm-2.458.726a.2.2 0 1 1-.269.095.2.2 0 0 1 .269-.095zm-.927-2.41a.426.426 0 1 1 .2.571.43.43 0 0 1-.199-.571zm-.251 3.044a1.911 1.911 0 0 0 1.763-.048l.858.417a3.353 3.353 0 1 1-2.927 6.031L34.374 28a3.353 3.353 0 1 1 2.926-6.029l.858.415a1.914 1.914 0 0 0 1.056 1.414zm-7.729-.564a4.827 4.827 0 0 0-.287 3.484 4.846 4.846 0 0 1 6.613-6.164l.718.348a1.868 1.868 0 0 0-.175.276l-.393-.191a4.855 4.855 0 0 0-6.476 2.249zm3.355 7.216l.471.229-.725 1.494-.471-.229zm-11.72 1.494l-.471.229-.725-1.494.471-.229zm-3.7-11.387a4.846 4.846 0 0 1 6.613 6.164 4.844 4.844 0 0 0-6.762-5.73l-.393.191a1.868 1.868 0 0 0-.175-.276zm-2.222 0a.426.426 0 1 1-.2.568.427.427 0 0 1 .202-.568zm-.358 2.607a.2.2 0 1 1-.095.271.2.2 0 0 1 .097-.271zm-.585.59a1.915 1.915 0 0 0 2.818-1.367l.859-.415a3.352 3.352 0 0 1 2.926 6.033l-4.534 2.2a3.352 3.352 0 0 1-2.924-6.034zm-1.651-.861l.717-.348a1.854 1.854 0 0 0 .109.308l-.978.473a4.841 4.841 0 0 0-2.382 2.559 4.851 4.851 0 0 1 2.536-2.992zm3.79 8.2a3.855 3.855 0 0 1-5.244-4.949 3.856 3.856 0 0 0 5.395 4.516l4.535-2.2a3.845 3.845 0 0 0 1.877-1.994 3.85 3.85 0 0 1-2.028 2.427zm2.345 2.705c-.284.136-.462.356-.4.486a.57.57 0 0 1 .265-.761l3.453-1.675a.567.567 0 0 1 .76.265c-.063-.131-.345-.125-.628.011zm3.636.734l-.471.229-.476-.983.471-.228zM22.2 36.222c-.223.109-.364.277-.316.378a.451.451 0 0 1 .208-.6l2.988-1.449a.45.45 0 0 1 .6.208c-.05-.1-.269-.095-.494.014zm2.377-.069l.471-.229 3.242 6.682-.292.6zm-4.266 12.671l-.3.614-.164-.08.377-.776 4.179 2.028-.08.162zm-.058 5.438l-2.089-1.015-.3.612-.164-.079.377-.776 2.091 1.015.617-1.273.164.079zm1.074-2.212l-2.089-1.015-.3.614-.164-.079.377-.776 2.089 1.013.617-1.273.164.079zm15.736 1.97l2.089-1.015.377.776-.164.079-.3-.612-2.091 1.015-.7-1.436.162-.079zm-1.073-2.212l2.091-1.013.375.776-.162.079-.3-.614-2.086 1.014-.7-1.436.162-.079zm1.016-3.224l.377.776-.164.08-.3-.614-4.016 1.948-.08-.162zm-1.872 8.126a1.032 1.032 0 0 1-.478 1.379c.252-.122.255-.638.006-1.151L29.8 46.92l.292-.6zm-12.561.229c-.248.511-.245 1.029.006 1.151a1.033 1.033 0 0 1-.478-1.379l10.085-20.786.473.229zM35.35 36.6c.05-.1-.093-.269-.316-.378l-2.988-1.449c-.223-.109-.444-.115-.492-.014a.45.45 0 0 1 .6-.208L35.144 36a.45.45 0 0 1 .206.6zm-2.49-2.068l.476-.983.471.228-.476.983zm3.769-1.01a.571.571 0 0 1 .265.761c.063-.131-.115-.349-.4-.486l-3.452-1.674c-.282-.136-.564-.143-.628-.011a.571.571 0 0 1 .761-.265zm7.366-4.222a3.863 3.863 0 0 1-5.156 1.788l-4.535-2.2a3.847 3.847 0 0 1-2.028-2.427 3.845 3.845 0 0 0 1.877 1.994l4.535 2.2a3.856 3.856 0 0 0 5.4-4.516 3.856 3.856 0 0 1-.093 3.161zm-1.215-5.977l-.976-.473a2.012 2.012 0 0 0 .109-.308l.718.348a4.831 4.831 0 0 1 2.531 2.993 4.838 4.838 0 0 0-2.383-2.555z" transform="translate(-2.945 -19.565)"/><g id="Group_5" data-name="Group 5" transform="translate(10.061 41.174)"><g id="Group_4" data-name="Group 4"><g id="Group_3" data-name="Group 3" transform="translate(.733)"><path id="Path_31" data-name="Path 31" class="cls-1" d="M27.319 45.436s3.8-.165 4.234 2.65a4.707 4.707 0 0 0 2.3 3.66s-2.814 1.231-4.016-.983.679-4.098-2.518-5.327z" transform="translate(-4.117 -45.136)"/><path id="Path_32" data-name="Path 32" class="cls-1" d="M31.849 50.711c.71-3.714-.874-5.462-4.971-5.462h-4.76c.651 3.66 4.431 2.95 5.67 7.54s5.672 1.638 5.672 1.638-2.321-.002-1.611-3.716zm-1.257 2.814c-.491-1.475 1.093-5.709-3.333-7.54 0 0 3.551-.082 3.934 2.759s-.438 4.016 0 5.026 1.175.765 1.175.765a1.364 1.364 0 0 1-1.776-1.011z" transform="translate(-7.254 -45.247)"/><path id="Path_33" data-name="Path 33" class="cls-1" d="M19.374 45.436s-3.8-.165-4.234 2.65a4.708 4.708 0 0 1-2.294 3.66s2.814 1.231 4.016-.983-.685-4.098 2.512-5.327z" transform="translate(-12.846 -45.136)"/><path id="Path_34" data-name="Path 34" class="cls-1" d="M15.043 54.426s4.431 2.951 5.672-1.638 5.021-3.88 5.67-7.54h-4.758c-4.1 0-5.683 1.747-4.973 5.462s-1.611 3.716-1.611 3.716zm1.093.111s.737.245 1.175-.765-.383-2.185 0-5.026 3.934-2.759 3.934-2.759c-4.426 1.831-2.842 6.065-3.333 7.54a1.365 1.365 0 0 1-1.776 1.01z" transform="translate(-11.521 -45.248)"/><path id="Path_35" data-name="Path 35" class="cls-1" d="M26.487 48.781c-2.5-1.978-2.64-2.385-2.64-2.385s-.138.409-2.64 2.385-2.422 3.7-.51 5.318a19.342 19.342 0 0 1 3.15 3.442A19.341 19.341 0 0 1 27 54.1c1.91-1.623 1.991-3.343-.513-5.319zm-.127 5.135a23.355 23.355 0 0 0-2.512 2.841 6.365 6.365 0 0 1 1.884-3.533c1.735-1.781 1.146-2.552.43-3.405-.965-1.148-2-2.2-2-2.2a33.184 33.184 0 0 1 2.677 2.167c.924.889 1.306 2.346-.478 4.13z" transform="translate(-8.958 -44.556)"/></g><path id="Path_36" data-name="Path 36" class="cls-1" d="M18.325 51.519a1.234 1.234 0 1 1 2.331.813c-.224.644-1.927 1.779-1.927 1.779a7 7 0 0 1-.404-2.592z" transform="translate(-8.838 -41.965)"/><path id="Path_37" data-name="Path 37" class="cls-1" d="M15.447 49.614a.861.861 0 1 1 .593 1.616 4.885 4.885 0 0 1-1.812-.252s.772-1.201 1.219-1.364z" transform="translate(-11.279 -42.647)"/><path id="Path_38" data-name="Path 38" class="cls-1" d="M14.056 47.468a.79.79 0 0 1-.582 1.468c-.406-.16-1.085-1.279-1.085-1.279a4.478 4.478 0 0 1 1.667-.189z" transform="translate(-12.389 -43.935)"/><path id="Path_39" data-name="Path 39" class="cls-1" d="M26.85 51.519a1.234 1.234 0 1 0-2.331.813c.224.644 1.927 1.779 1.927 1.779a7 7 0 0 0 .404-2.592z" transform="translate(-5.115 -41.965)"/><path id="Path_40" data-name="Path 40" class="cls-1" d="M29.7 49.614a.861.861 0 0 0-.593 1.616 4.881 4.881 0 0 0 1.81-.252s-.77-1.201-1.217-1.364z" transform="translate(-2.645 -42.647)"/><path id="Path_41" data-name="Path 41" class="cls-1" d="M31.014 47.468a.789.789 0 0 0 .58 1.468c.406-.16 1.085-1.279 1.085-1.279a4.473 4.473 0 0 0-1.665-.189z" transform="translate(-1.457 -43.935)"/><path id="Path_42" data-name="Path 42" class="cls-1" d="M21.626 54.476a.79.79 0 0 1 1.579-.032 4.459 4.459 0 0 1-.76 1.5 4.489 4.489 0 0 1-.819-1.468z" transform="translate(-6.818 -40.168)"/></g></g><g id="Group_6" data-name="Group 6" transform="translate(37.372 12.442)"><path id="Path_43" data-name="Path 43" class="cls-1" d="M42.472 42.643c2.342-3.153-1.2-4.785-1.2-4.785s.723.713.444 1.359c-.234.54-1.308 2.073-4.317.806S32.16 38.472 31.2 42.3s-.986 3.91-.986 3.91c1.728-2.8 10.057-.604 12.258-3.567zm-5.311-.014c3.277.571 4.657-.752 5.254-1.773a1.352 1.352 0 0 0-.1-1.688 1.438 1.438 0 0 1 .6 1.507c-.115 1.143-1.444 3.32-5.478 2.563s-5.813 1.092-5.813 1.092c.676-.875 2.261-2.272 5.537-1.701z" transform="translate(-28.951 -20.974)"/><path id="Path_44" data-name="Path 44" class="cls-1" d="M34.778 35.281a8.855 8.855 0 0 0-2.988 6.624s2.062-.106 5.119-2.863c4.147-3.74.579-8.7.579-8.7s.571 1.809-2.71 4.939zm1.007 1.132a22.749 22.749 0 0 0-3.27 3.782 7.787 7.787 0 0 1 2.733-4.26c2.347-1.949 2.374-3.359 2.374-3.359a5.071 5.071 0 0 1-1.837 3.837z" transform="translate(-28.003 -25.504)"/><path id="Path_45" data-name="Path 45" class="cls-1" d="M35.672 45.022a7.637 7.637 0 0 0-6.247.47s.93 1.517 4.277 2.695c4.543 1.6 6.823-3.149 6.823-3.149s-1.13 1.177-4.853-.016zm-.442 1.23a19.484 19.484 0 0 0-4.213-.915 6.713 6.713 0 0 1 4.353.313c2.443.973 3.522.41 3.522.41a4.376 4.376 0 0 1-3.662.191z" transform="translate(-29.425 -16.912)"/><path id="Path_46" data-name="Path 46" class="cls-1" d="M31.9 39.55a9.828 9.828 0 0 0 5.3-2.719c2.464-2.5 4.093-1.026 4.093-1.026A6.751 6.751 0 0 0 39 38.49c-1.718 3.336-7.1 1.06-7.1 1.06z" transform="translate(-27.935 -22.472)"/><path id="Path_47" data-name="Path 47" class="cls-1" d="M30.212 44.418a7.839 7.839 0 0 0 4.288-1.324A6.191 6.191 0 0 1 40.051 43a5.976 5.976 0 0 0-2.568 1.775c-2.231 2.461-7.271-.357-7.271-.357z" transform="translate(-28.95 -18.253)"/><path id="Path_48" data-name="Path 48" class="cls-1" d="M33.059 35.318a6.608 6.608 0 0 0 .818-4.151c-.382-2.217 2.273-2.613 2.273-2.613a2.158 2.158 0 0 0-.42 2.759c.962 1.576-.183 3.343-2.671 4.005z" transform="translate(-27.233 -26.585)"/><path id="Path_49" data-name="Path 49" class="cls-1" d="M35.69 43.658a.789.789 0 1 0 .58 1.467c.406-.16 1.085-1.278 1.085-1.278a4.478 4.478 0 0 0-1.665-.189z" transform="translate(-25.947 -17.501)"/><path id="Path_50" data-name="Path 50" class="cls-1" d="M35.947 38.6a.7.7 0 1 0 1.053.932 3.98 3.98 0 0 0 .341-1.454 4 4 0 0 0-1.394.522z" transform="translate(-25.597 -20.841)"/><path id="Path_51" data-name="Path 51" class="cls-1" d="M34.108 28.046a.583.583 0 0 0 1.044.519 3.3 3.3 0 0 0-.034-1.239s-.865.431-1.01.72z" transform="translate(-26.638 -27.326)"/></g><g id="Group_7" data-name="Group 7" transform="translate(0 12.442)"><path id="Path_52" data-name="Path 52" class="cls-1" d="M19.174 46.208l-.986-3.91c-.964-3.823-3.2-3.54-6.2-2.273s-4.083-.266-4.316-.806c-.279-.646.442-1.359.442-1.359s-3.54 1.632-1.2 4.785c2.201 2.96 10.53.764 12.26 3.563zm-1.414-1.877s-1.779-1.848-5.813-1.092-5.363-1.42-5.478-2.563a1.438 1.438 0 0 1 .6-1.507 1.353 1.353 0 0 0-.1 1.688c.6 1.02 1.977 2.344 5.252 1.773s4.864.824 5.539 1.701z" transform="translate(-6.113 -20.973)"/><path id="Path_53" data-name="Path 53" class="cls-1" d="M9.668 30.346s-3.57 4.955.579 8.7C13.3 41.8 15.364 41.9 15.364 41.9a8.848 8.848 0 0 0-2.988-6.624c-3.276-3.125-2.708-4.93-2.708-4.93zm-.135 2.233s.026 1.409 2.374 3.359a7.787 7.787 0 0 1 2.733 4.26 22.749 22.749 0 0 0-3.27-3.782 5.073 5.073 0 0 1-1.836-3.837z" transform="translate(-4.831 -25.504)"/><path id="Path_54" data-name="Path 54" class="cls-1" d="M8.122 45.038s2.28 4.745 6.821 3.149c3.349-1.177 4.277-2.695 4.277-2.695a7.634 7.634 0 0 0-6.246-.47c-3.72 1.193-4.852.016-4.852.016zm1.634 1.021s1.079.561 3.522-.41a6.712 6.712 0 0 1 4.353-.313 19.6 19.6 0 0 0-4.213.915 4.377 4.377 0 0 1-3.662-.192z" transform="translate(-4.902 -16.912)"/><path id="Path_55" data-name="Path 55" class="cls-1" d="M16.111 39.55a9.828 9.828 0 0 1-5.3-2.719c-2.464-2.5-4.093-1.026-4.093-1.026a6.751 6.751 0 0 1 2.288 2.685c1.719 3.336 7.105 1.06 7.105 1.06z" transform="translate(-5.749 -22.472)"/><path id="Path_56" data-name="Path 56" class="cls-1" d="M17.962 44.418a7.845 7.845 0 0 1-4.29-1.324A6.191 6.191 0 0 0 8.122 43a5.976 5.976 0 0 1 2.568 1.775c2.232 2.461 7.272-.357 7.272-.357z" transform="translate(-4.902 -18.253)"/><path id="Path_57" data-name="Path 57" class="cls-1" d="M12.576 35.318a6.6 6.6 0 0 1-.818-4.151c.382-2.217-2.275-2.613-2.275-2.613a2.156 2.156 0 0 1 .42 2.759c-.959 1.576.185 3.343 2.673 4.005z" transform="translate(-4.08 -26.585)"/><path id="Path_58" data-name="Path 58" class="cls-1" d="M9.6 43.658a.789.789 0 0 1-.582 1.467c-.406-.16-1.085-1.278-1.085-1.278a4.483 4.483 0 0 1 1.667-.189z" transform="translate(-5.018 -17.501)"/><path id="Path_59" data-name="Path 59" class="cls-1" d="M9.117 38.6a.7.7 0 0 1-1.056.928 3.979 3.979 0 0 1-.341-1.454 4.017 4.017 0 0 1 1.397.526z" transform="translate(-5.145 -20.841)"/><path id="Path_60" data-name="Path 60" class="cls-1" d="M10.8 28.046a.583.583 0 0 1-1.044.519 3.307 3.307 0 0 1 .032-1.239s.869.431 1.012.72z" transform="translate(-3.95 -27.326)"/></g></g><g id="Group_9" data-name="Group 9" transform="translate(18.63)"><path id="Path_61" data-name="Path 61" class="cls-1" d="M25.433 12.392c-5.366 0-9.715 1.012-9.715 2.26s4.349 2.26 9.715 2.26 9.715-1.012 9.715-2.26-4.348-2.26-9.715-2.26zm0 4.1c-4.372 0-7.915-.747-7.915-1.669s3.545-1.669 7.915-1.669 7.915.747 7.915 1.669-3.548 1.671-7.915 1.671z" transform="translate(-9.15 7.474)"/><path id="Path_62" data-name="Path 62" class="cls-1" d="M27.056 2.73a34.358 34.358 0 0 0-.9-.12 1.912 1.912 0 0 0-.71.21 36.74 36.74 0 0 1 2.251.3 1.96 1.96 0 0 0-.641-.39z" transform="translate(-3.281 1.574)"/><path id="Path_63" data-name="Path 63" class="cls-1" d="M28.235 3.3a34.335 34.335 0 0 0-2.929-.391 1.758 1.758 0 0 0-.244.268c1.255.111 2.384.263 3.343.444a1.976 1.976 0 0 0-.17-.321z" transform="translate(-3.514 1.752)"/><path id="Path_64" data-name="Path 64" class="cls-1" d="M28.6 3.726a34.777 34.777 0 0 0-3.6-.478 1.844 1.844 0 0 0-.107.281 34.916 34.916 0 0 1 3.751.5 1.683 1.683 0 0 0-.044-.303z" transform="translate(-3.619 1.959)"/><path id="Path_65" data-name="Path 65" class="cls-1" d="M28.651 4.1a35.561 35.561 0 0 0-3.793-.5 2.2 2.2 0 0 0-.013.289 36.175 36.175 0 0 1 3.745.486 1.91 1.91 0 0 0 .061-.275z" transform="translate(-3.645 2.175)"/><path id="Path_66" data-name="Path 66" class="cls-1" d="M28.469 4.436a36.706 36.706 0 0 0-3.6-.463 1.874 1.874 0 0 0 .077.3c1.26.106 2.4.252 3.375.428a1.825 1.825 0 0 0 .148-.265z" transform="translate(-3.633 2.396)"/><path id="Path_67" data-name="Path 67" class="cls-1" d="M27.742 4.974a1.833 1.833 0 0 0 .281-.242 36.83 36.83 0 0 0-3.022-.38 1.964 1.964 0 0 0 .213.309c.917.084 1.765.19 2.528.313z" transform="translate(-3.551 2.625)"/><path id="Path_68" data-name="Path 68" class="cls-1" d="M27.093 4.963a38.013 38.013 0 0 0-1.735-.21 1.848 1.848 0 0 0 .519.257l-.03.083.282.034c0-.019 0-.037.006-.056a1.881 1.881 0 0 0 .958-.108z" transform="translate(-3.335 2.867)"/><path id="Path_69" data-name="Path 69" class="cls-1" d="M25.644 5.144a4.64 4.64 0 0 1-.127.276l.483.053c0-.1 0-.191.008-.289z" transform="translate(-3.239 3.103)"/><path id="Path_70" data-name="Path 70" class="cls-1" d="M25.31 5.765c.292.027.576.059.85.091a4.197 4.197 0 0 1-.027-.293c-.212-.026-.426-.048-.646-.071a4.254 4.254 0 0 1-.177.273z" transform="translate(-3.364 3.312)"/><path id="Path_71" data-name="Path 71" class="cls-1" d="M26.381 5.955a47.827 47.827 0 0 0-1.113-.119 4.316 4.316 0 0 1-.239.268q.743.065 1.424.147a3.274 3.274 0 0 1-.072-.296z" transform="translate(-3.533 3.52)"/><path id="Path_72" data-name="Path 72" class="cls-1" d="M26.794 6.36a40.503 40.503 0 0 0-1.816-.186 3.842 3.842 0 0 1-.346.261c.813.061 1.579.138 2.288.229a3.09 3.09 0 0 1-.126-.304z" transform="translate(-3.774 3.724)"/><path id="Path_73" data-name="Path 73" class="cls-1" d="M27.717 7.1a3.534 3.534 0 0 1-.2-.317 46.435 46.435 0 0 0-2.915-.284 3.406 3.406 0 0 1-.689.247c1.387.08 2.677.2 3.804.354z" transform="translate(-4.208 3.922)"/><path id="Path_74" data-name="Path 74" class="cls-1" d="M23.627 7.117a45.359 45.359 0 0 1 5.083.483 3.371 3.371 0 0 1-.364-.346 47.467 47.467 0 0 0-5.027-.434c.099.102.202.201.308.297z" transform="translate(-4.565 4.111)"/><path id="Path_75" data-name="Path 75" class="cls-1" d="M29.6 7.948a2.828 2.828 0 0 1-.281-.085 3.071 3.071 0 0 1-.205-.087A41.619 41.619 0 0 0 23.74 7.2c.141.111.284.215.43.313a39.607 39.607 0 0 1 5.079.577c.118-.043.235-.09.351-.142z" transform="translate(-4.311 4.343)"/><path id="Path_76" data-name="Path 76" class="cls-1" d="M27.4 8.195a5.842 5.842 0 0 0 .874-.157 40.693 40.693 0 0 0-3.908-.433 5.576 5.576 0 0 0 .832.351c.779.066 1.516.144 2.202.239z" transform="translate(-3.937 4.587)"/><path id="Path_77" data-name="Path 77" class="cls-1" d="M18.246 2.611a35.17 35.17 0 0 0-.895.119 1.975 1.975 0 0 0-.646.391 35.562 35.562 0 0 1 2.249-.3 1.857 1.857 0 0 0-.708-.21z" transform="translate(-8.554 1.575)"/><path id="Path_78" data-name="Path 78" class="cls-1" d="M19.509 2.9c-1.084.1-2.071.236-2.927.391a1.822 1.822 0 0 0-.17.322 35.7 35.7 0 0 1 3.341-.446 1.758 1.758 0 0 0-.244-.267z" transform="translate(-8.731 1.752)"/><path id="Path_79" data-name="Path 79" class="cls-1" d="M19.974 3.248a35.219 35.219 0 0 0-3.609.478 1.665 1.665 0 0 0-.035.3 34.951 34.951 0 0 1 3.751-.494 1.782 1.782 0 0 0-.107-.284z" transform="translate(-8.781 1.959)"/><path id="Path_80" data-name="Path 80" class="cls-1" d="M16.4 4.379a35.3 35.3 0 0 1 3.745-.484 1.932 1.932 0 0 0-.013-.289 35.207 35.207 0 0 0-3.793.5 1.888 1.888 0 0 0 .061.273z" transform="translate(-8.775 2.175)"/><path id="Path_81" data-name="Path 81" class="cls-1" d="M20.049 3.974a36.114 36.114 0 0 0-3.6.462 1.818 1.818 0 0 0 .151.264 36.524 36.524 0 0 1 3.375-.428 1.815 1.815 0 0 0 .074-.298z" transform="translate(-8.711 2.397)"/><path id="Path_82" data-name="Path 82" class="cls-1" d="M19.481 4.661a2.077 2.077 0 0 0 .213-.309 37.78 37.78 0 0 0-3.024.38 1.925 1.925 0 0 0 .282.242 37.506 37.506 0 0 1 2.529-.313z" transform="translate(-8.575 2.625)"/><path id="Path_83" data-name="Path 83" class="cls-1" d="M18.074 5.071c0 .019 0 .037.006.056l.281-.034c-.01-.029-.021-.055-.029-.083a1.84 1.84 0 0 0 .521-.258c-.614.061-1.194.131-1.736.212a1.885 1.885 0 0 0 .957.107z" transform="translate(-8.306 2.866)"/><path id="Path_84" data-name="Path 84" class="cls-1" d="M18.1 5.144c-.122.013-.244.027-.362.042.006.1.008.192.008.289l.481-.055a2.999 2.999 0 0 1-.127-.276z" transform="translate(-7.933 3.103)"/><path id="Path_85" data-name="Path 85" class="cls-1" d="M17.718 5.857c.276-.034.558-.064.85-.093a4.64 4.64 0 0 1-.176-.271c-.22.022-.434.045-.646.071a7.43 7.43 0 0 1-.028.293z" transform="translate(-7.943 3.313)"/><path id="Path_86" data-name="Path 86" class="cls-1" d="M18.825 5.835c-.385.037-.755.075-1.113.119q-.031.151-.072.3c.454-.055.93-.106 1.424-.149a4.112 4.112 0 0 1-.239-.27z" transform="translate(-7.99 3.519)"/><path id="Path_87" data-name="Path 87" class="cls-1" d="M17.624 6.359a3.983 3.983 0 0 1-.123.306 43.794 43.794 0 0 1 2.288-.229 4.1 4.1 0 0 1-.346-.263c-.643.053-1.243.115-1.819.186z" transform="translate(-8.074 3.723)"/><path id="Path_88" data-name="Path 88" class="cls-1" d="M17.475 6.786q-.094.164-.2.317a46.655 46.655 0 0 1 3.807-.353 3.344 3.344 0 0 1-.693-.248 46.474 46.474 0 0 0-2.914.284z" transform="translate(-8.212 3.922)"/><path id="Path_89" data-name="Path 89" class="cls-1" d="M22.269 6.816a47.819 47.819 0 0 0-5.027.434 3.541 3.541 0 0 1-.366.346 45.428 45.428 0 0 1 5.084-.478c.104-.097.206-.196.309-.302z" transform="translate(-8.451 4.111)"/><path id="Path_90" data-name="Path 90" class="cls-1" d="M21.592 7.514q.219-.147.428-.313a41.623 41.623 0 0 0-5.372.574 3.133 3.133 0 0 1-.207.088 2.8 2.8 0 0 1-.279.085c.115.051.232.1.351.143a39.932 39.932 0 0 1 5.079-.577z" transform="translate(-8.882 4.343)"/><path id="Path_91" data-name="Path 91" class="cls-1" d="M19.838 7.957a5.711 5.711 0 0 0 .83-.353c-1.46.1-2.785.247-3.91.434a5.805 5.805 0 0 0 .874.157 39.158 39.158 0 0 1 2.206-.238z" transform="translate(-8.522 4.586)"/><path id="Path_92" data-name="Path 92" class="cls-1" d="M42.305 3.42a2.432 2.432 0 0 0-3.035 1.824 2.535 2.535 0 0 0 1.581 2.89c-1.1 3.421-4.2 5.548-7.134 5.186-2.873-.375-5.262-3.089-5.574-6.56a3.507 3.507 0 0 0 3.181-3.27 3.419 3.419 0 1 0-6.837 0 3.511 3.511 0 0 0 3.181 3.27c-.313 3.471-2.7 6.185-5.574 6.56-2.939.361-6.036-1.767-7.134-5.186a2.533 2.533 0 0 0 1.581-2.89A2.484 2.484 0 1 0 11.73 6.49a2.531 2.531 0 0 0 3.014 1.71l3.445 13.314c0-1.432 4.349-2.594 9.715-2.594s9.713 1.161 9.715 2.592q1.728-6.655 3.449-13.312a2.528 2.528 0 0 0 3.012-1.71 2.437 2.437 0 0 0-1.775-3.07zM29.4 1.444a.942.942 0 0 1 .938.968.965.965 0 0 1-1.927-.05.945.945 0 0 1 .989-.918zM25.849 5.33a.407.407 0 1 1 .385-.42.406.406 0 0 1-.385.42zm-11.584-.34a.705.705 0 0 1 1.372-.327.706.706 0 0 1-1.372.327zm13.641 4.167a6.365 6.365 0 0 0 3.448 4.322 6.319 6.319 0 0 0 5.725.135 5.9 5.9 0 0 1-6.086.7 5.163 5.163 0 0 1-3.087-5.157zm-12.051 1.687a7.95 7.95 0 0 0 3.735 3.351 4.775 4.775 0 0 0 4.211-.252 3.833 3.833 0 0 1-4.213.976c-2.707-.891-3.747-4.056-3.733-4.075zm11.967 6.212c-4.46 0-8.267.83-9.776 2 .508-1.568 4.692-2.791 9.776-2.791s9.265 1.223 9.774 2.791c-1.508-1.17-5.315-2-9.774-2zM43.488 5.518a.706.706 0 1 1-.5-.859.7.7 0 0 1 .5.859z" transform="translate(-11.621)"/></g></g></svg>