<svg id="Group_752" data-name="Group 752" xmlns="http://www.w3.org/2000/svg" viewBox="0 0 361.504 407.549"><defs><style>.cls-1{fill:#231f20}.cls-2{fill:#36352d}.cls-3{fill:#c70000}.cls-4{fill:red}.cls-5{fill:#f6a550}.cls-6{fill:#fed296}.cls-7{fill:#b48657}.cls-8{fill:#d69417}.cls-9{fill:#c16518}.cls-10{clip-path:url(#clip-path)}.cls-11{fill:#b0ccd9}.cls-12{fill:#fff}.cls-13{fill:#0023b3}.cls-14{fill:#f9aa1a}.cls-15{fill:#f27e21}</style><clipPath id="clip-path"><path id="Path_6307" data-name="Path 6307" d="M352.4 231.261c32.831-1.228 53.866-22.543 52.363-62.738l36.958-1.374c1.391 37.16-18.013 92.028-89.321 94.69v-30.578z" transform="translate(-352.402 -167.149)"/></clipPath></defs><g id="Group_733" data-name="Group 733" transform="translate(161.7 294.27)"><g id="Group_732" data-name="Group 732"><path id="Rectangle_1369" data-name="Rectangle 1369" class="cls-1" d="M0 0h103.671v46.24H0z"/><path id="Rectangle_1370" data-name="Rectangle 1370" class="cls-2" transform="translate(51.835)" d="M0 0h51.836v46.24H0z"/></g></g><g id="Group_735" data-name="Group 735" transform="translate(235.371 295.02)"><g id="Group_734" data-name="Group 734"><path id="Rectangle_1371" data-name="Rectangle 1371" class="cls-2" d="M0 0h28.969v112.528H0z"/><path id="Rectangle_1372" data-name="Rectangle 1372" class="cls-3" transform="translate(29.131)" d="M0 0h2.523v112.528H0z"/><path id="Rectangle_1373" data-name="Rectangle 1373" class="cls-1" transform="translate(14.556)" d="M0 0h14.413v112.528H0z"/></g></g><g id="Group_737" data-name="Group 737" transform="translate(160.206 295.02)"><g id="Group_736" data-name="Group 736"><path id="Rectangle_1374" data-name="Rectangle 1374" class="cls-2" transform="translate(2.523)" d="M0 0h28.97v112.529H0z"/><path id="Rectangle_1375" data-name="Rectangle 1375" class="cls-4" d="M0 0h2.524v112.529H0z"/><path id="Rectangle_1376" data-name="Rectangle 1376" class="cls-1" transform="translate(17.08)" d="M0 0h14.413v112.529H0z"/></g></g><g id="Group_738" data-name="Group 738" transform="translate(133.872)"><path id="Path_6293" data-name="Path 6293" class="cls-2" d="M173.449 55.715C173.449 16.211 213.695 0 253.015 0v183.13H210.94c-41.025 0-37.491-127.415-37.491-127.415z" transform="translate(-173.373)"/><path id="Path_6294" data-name="Path 6294" class="cls-1" d="M356.078 55.715C356.078 16.211 315.833 0 276.514 0v183.13h42.075c41.024 0 37.489-127.415 37.489-127.415z" transform="translate(-196.872)"/><path id="Path_6295" data-name="Path 6295" class="cls-5" d="M322.616 150.076c0-22.432-20.64-40.618-46.1-40.618v133.1h46.117v-92.482z" transform="translate(-196.872 -24.939)"/><path id="Path_6296" data-name="Path 6296" class="cls-6" d="M216.8 150.076c0-22.432 20.641-40.618 46.1-40.618v133.1h-46.111v-92.482z" transform="translate(-183.265 -24.939)"/><path id="Path_6297" data-name="Path 6297" class="cls-7" d="M276.512 201.909s8.88-5.329 10.067-.591-7.107 2.957-10.067.591z" transform="translate(-196.872 -45.421)"/><path id="Path_6298" data-name="Path 6298" class="cls-5" d="M280.415 142.9l-11.179-3.136v5.614c0 12.307-.656 21.058-10.789 28.552-8.715 6.446-19.212 8.332-10.762 11.847 7.193 2.992 21.565 2.541 21.565 2.541z" transform="translate(-189.594 -31.844)"/><path id="Path_6299" data-name="Path 6299" class="cls-1" d="M284.475 222.3a.982.982 0 0 1-.951-.769c-.068-.3-1.757-7.274-10.593-7.274s-10.581 6.987-10.646 7.277a.98.98 0 1 1-1.912-.433c.021-.087 2.12-8.8 12.558-8.8s12.483 8.715 12.5 8.807a.978.978 0 0 1-.745 1.164 1.066 1.066 0 0 1-.211.028z" transform="translate(-193.189 -48.371)"/><path id="Path_6300" data-name="Path 6300" class="cls-8" d="M209.233 171.145a4.485 4.485 0 0 1 4.194 3.814c.3 1.464 7.749 36.059 46.724 36.059s46.665-34.635 46.954-36.075c.558-2.628 2.848-4.272 5.194-3.671a4.91 4.91 0 0 1 3.234 5.817c-.086.433-9.346 43.623-55.382 43.623-46.1 0-55.056-43.208-55.145-43.665a4.888 4.888 0 0 1 3.286-5.775 4.69 4.69 0 0 1 .941-.127z" transform="translate(-180.557 -38.993)"/><path id="Path_6301" data-name="Path 6301" class="cls-9" d="M276.451 211.02c38.985 0 46.665-34.635 46.954-36.075.558-2.628 2.848-4.272 5.194-3.671a4.91 4.91 0 0 1 3.234 5.817c-.086.433-9.346 43.623-55.382 43.623v-9.694z" transform="translate(-196.858 -38.994)"/><path id="Path_6302" data-name="Path 6302" class="cls-2" d="M197.441 163.3s1.639-35.2 57.537-35.2V15.936l-72.989 36.3 7.722 93.053z" transform="translate(-175.336 -3.631)"/><path id="Path_6303" data-name="Path 6303" class="cls-1" d="M334.048 163.3s-1.638-35.2-57.535-35.2V15.936l72.987 36.3-7.722 93.053z" transform="translate(-196.872 -3.631)"/></g><g id="Group_745" data-name="Group 745" transform="translate(272.025 103.789)"><g id="Group_743" data-name="Group 743" transform="translate(0 25.278)"><g id="Group_742" data-name="Group 742"><path id="Path_6304" data-name="Path 6304" class="cls-5" d="M352.29 231.261c32.83-1.228 53.866-22.543 52.363-62.738l36.958-1.374c1.391 37.16-18.015 92.028-89.322 94.69v-30.578z" transform="translate(-352.289 -167.149)"/><path id="Path_6305" data-name="Path 6305" class="cls-3" d="M352.29 269.555v-30.578c25.255-.944 43.517-13.789 49.922-37.956h37.011c-7.174 32.479-31.2 66.454-86.933 68.534z" transform="translate(-352.289 -174.866)"/><g id="Group_741" data-name="Group 741" transform="translate(.087)"><g id="Group_740" data-name="Group 740"><g id="Group_739" data-name="Group 739" class="cls-10"><path id="Rectangle_1377" data-name="Rectangle 1377" class="cls-1" transform="translate(43.466 23.154)" d="M0 0h44.73v14.903H0z"/><path id="Rectangle_1378" data-name="Rectangle 1378" class="cls-11" transform="translate(43.466 36.167)" d="M0 0h44.73v1.889H0z"/><path id="Path_6306" data-name="Path 6306" class="cls-11" d="M430.655 197.135h-16.267l-12.188 24.19h16.212s-2.355-6.833 5.577-9.288c2.234 0 1.955-.945 1-2.073-3.396-4.08.745-11.884 5.666-12.829z" transform="translate(-363.747 -173.981)"/></g></g><circle id="Ellipse_8" data-name="Ellipse 8" class="cls-12" cx="2.703" cy="2.703" r="2.703" transform="translate(53.189 25.504)"/><circle id="Ellipse_9" data-name="Ellipse 9" class="cls-12" cx="2.703" cy="2.703" r="2.703" transform="translate(50.486 32.704)"/><circle id="Ellipse_10" data-name="Ellipse 10" class="cls-12" cx="2.703" cy="2.703" r="2.703" transform="translate(46.412 40.044)"/></g></g></g><g id="Group_744" data-name="Group 744" transform="translate(37.572)"><path id="Path_6308" data-name="Path 6308" class="cls-5" d="M458.889 160.207a3.491 3.491 0 1 0 6.974-.256l-.828-22.058a3.49 3.49 0 1 0-6.97.258z" transform="translate(-413.96 -134.413)"/><path id="Path_6309" data-name="Path 6309" class="cls-5" d="M445.879 160.7a3.491 3.491 0 1 0 6.973-.269l-.823-22.054a3.492 3.492 0 1 0-6.975.258z" transform="translate(-410.996 -134.523)"/><path id="Path_6310" data-name="Path 6310" class="cls-5" d="M432.876 161.181a3.492 3.492 0 1 0 6.977-.256l-.825-22.064a3.491 3.491 0 1 0-6.973.263z" transform="translate(-408.034 -134.636)"/><path id="Path_6311" data-name="Path 6311" class="cls-5" d="M419.87 161.665a3.493 3.493 0 1 0 6.976-.258l-.826-22.062a3.491 3.491 0 1 0-6.973.267z" transform="translate(-405.07 -134.744)"/><path id="Path_6312" data-name="Path 6312" class="cls-5" d="M416.9 186.548a3.624 3.624 0 0 0 5.1-.188l.384-.413a3.626 3.626 0 0 0-.188-5.1l-14.808-13.825a3.609 3.609 0 0 0-5.1.2l-.38.4a3.624 3.624 0 0 0 .188 5.1z" transform="translate(-400.947 -141.625)"/></g></g><g id="Group_747" data-name="Group 747" transform="translate(0 179.057)"><path id="Path_6313" data-name="Path 6313" class="cls-6" d="M161.768 250.178H29.494l1.036 37.01s18.028.267 21.29 0c77.049-6.328 109.948-5.135 109.948-5.135z" transform="translate(-6.72 -236.056)"/><g id="Group_746" data-name="Group 746" transform="translate(16.298 24.143)"><path id="Path_6314" data-name="Path 6314" class="cls-6" d="M46.826 289.186a3.49 3.49 0 1 1 .009 6.977l-22.075.03a3.49 3.49 0 1 1-.014-6.975z" transform="translate(-21.115 -269.087)"/><path id="Path_6315" data-name="Path 6315" class="cls-6" d="M46.8 276.167a3.494 3.494 0 1 1 .012 6.984l-22.072.029a3.491 3.491 0 1 1-.015-6.978z" transform="translate(-21.111 -266.121)"/><path id="Path_6316" data-name="Path 6316" class="cls-6" d="M46.785 263.157a3.489 3.489 0 1 1 .015 6.975l-22.081.035a3.49 3.49 0 1 1-.014-6.977z" transform="translate(-21.107 -263.157)"/></g><path id="Path_6317" data-name="Path 6317" class="cls-6" d="M25.671 250.178a3.49 3.49 0 1 1 .017 6.977l-22.076.032a3.491 3.491 0 1 1-.012-6.977z" transform="translate(0 -236.056)"/><path id="Path_6318" data-name="Path 6318" class="cls-6" d="M49.41 246.239a3.618 3.618 0 0 1 .009 5.1l-.4.393a3.614 3.614 0 0 1-5.1.007l-13.37-13.3a3.618 3.618 0 0 1-.009-5.1l.4-.394a3.615 3.615 0 0 1 5.1-.006z" transform="translate(-6.72 -231.89)"/><path id="Path_6319" data-name="Path 6319" class="cls-13" d="M65.872 286.722c72.923-5.8 104.184-4.67 104.184-4.67v-31.874H65.872z" transform="translate(-15.008 -236.057)"/><path id="Path_6320" data-name="Path 6320" class="cls-4" d="M65.872 286.722c72.923-5.8 104.184-4.67 104.184-4.67v-31.874H65.872z" transform="translate(-15.008 -236.057)"/><path id="Path_6321" data-name="Path 6321" class="cls-2" d="M62.814 286.911v-36.733h14.9v35.583q-7.147.526-14.9 1.15z" transform="translate(-14.311 -236.056)"/><path id="Path_6322" data-name="Path 6322" class="cls-12" d="M79.666 285.9v-35.723h1.889v35.583z" transform="translate(-18.151 -236.056)"/><path id="Rectangle_1379" data-name="Rectangle 1379" class="cls-12" transform="translate(48.215 14.122)" d="M0 0h28.488v3.504H0z"/></g><g id="Group_748" data-name="Group 748" transform="translate(135.962 395.567)"><path id="Rectangle_1380" data-name="Rectangle 1380" class="cls-1" d="M0 0h55.736v11.982H0z"/></g><g id="Group_749" data-name="Group 749" transform="translate(235.371 395.567)"><path id="Rectangle_1381" data-name="Rectangle 1381" class="cls-1" d="M0 0h55.736v11.982H0z"/></g><g id="Group_751" data-name="Group 751" transform="translate(147.327 181.818)"><g id="Group_750" data-name="Group 750"><path id="Path_6323" data-name="Path 6323" class="cls-4" d="M206.975 319.626h104.619l6.177-69.451H200.8v30.7z" transform="translate(-193.076 -238.817)"/><path id="Path_6324" data-name="Path 6324" class="cls-3" d="M328.851 319.634h-52.309v-69.451h58.487v30.694z" transform="translate(-210.334 -238.819)"/><path id="Path_6325" data-name="Path 6325" class="cls-4" d="M190.8 402.414h132.415l-13.9-48.882H204.7z" transform="translate(-190.798 -262.366)"/><path id="Path_6326" data-name="Path 6326" class="cls-3" d="M342.75 402.417h-66.208v-48.88h52.309z" transform="translate(-210.334 -262.367)"/><path id="Rectangle_1382" data-name="Rectangle 1382" class="cls-12" transform="translate(13.899 80.814)" d="M0 0h104.619v10.356H0z"/><path id="Rectangle_1383" data-name="Rectangle 1383" class="cls-11" transform="translate(66.208 80.815)" d="M0 0h52.309v10.356H0z"/><circle id="Ellipse_11" data-name="Ellipse 11" class="cls-11" cx="3.747" cy="3.747" r="3.747" transform="translate(66.237 24.495)"/><circle id="Ellipse_12" data-name="Ellipse 12" class="cls-11" cx="3.747" cy="3.747" r="3.747" transform="translate(66.237 35.981)"/><circle id="Ellipse_13" data-name="Ellipse 13" class="cls-11" cx="3.747" cy="3.747" r="3.747" transform="translate(66.237 47.468)"/><circle id="Ellipse_14" data-name="Ellipse 14" class="cls-11" cx="3.747" cy="3.747" r="3.747" transform="translate(66.237 58.954)"/><circle id="Ellipse_15" data-name="Ellipse 15" class="cls-11" cx="3.747" cy="3.747" r="3.747" transform="translate(66.237 70.441)"/><path id="Path_6327" data-name="Path 6327" class="cls-2" d="M262.876 258.181l-46.116-11.332v-11.383l46.116 11.334z" transform="translate(-196.713 -235.466)"/><path id="Path_6328" data-name="Path 6328" class="cls-12" d="M272.132 378.616h3.405V249.93l-3.405-.858z" transform="translate(-209.329 -238.566)"/><path id="Rectangle_1384" data-name="Rectangle 1384" class="cls-14" transform="translate(53.682 80.808)" d="M0 0h12.526v10.362H0z"/><path id="Rectangle_1385" data-name="Rectangle 1385" class="cls-15" transform="translate(66.208 80.811)" d="M0 0h12.526v10.362H0z"/><circle id="Ellipse_16" data-name="Ellipse 16" class="cls-12" cx="3.234" cy="3.234" r="3.234" transform="translate(24.088 4.264)"/><circle id="Ellipse_17" data-name="Ellipse 17" class="cls-12" cx="2.376" cy="2.376" r="2.376" transform="translate(28.767 6.346)"/><path id="Path_6329" data-name="Path 6329" class="cls-1" d="M276.578 258.181l46.117-11.332v-11.383L276.578 246.8z" transform="translate(-210.342 -235.466)"/><circle id="Ellipse_18" data-name="Ellipse 18" class="cls-11" cx="3.234" cy="3.234" r="3.234" transform="translate(101.77 4.264)"/><circle id="Ellipse_19" data-name="Ellipse 19" class="cls-11" cx="2.376" cy="2.376" r="2.376" transform="translate(98.808 6.346)"/></g><path id="Rectangle_1386" data-name="Rectangle 1386" class="cls-2" transform="translate(7.722 11.358)" d="M0 0h12.325v4.476H0z"/><path id="Rectangle_1387" data-name="Rectangle 1387" class="cls-1" transform="translate(112.353 11.358)" d="M0 0h12.342v4.476H0z"/></g></svg>